{"glyphs":{"0":{"ha":667,"x_min":56,"x_max":611,"o":"m 56 710 q 77 822 56 769 q 136 912 99 874 q 225 972 174 950 q 335 993 276 993 q 444 972 393 993 q 531 912 494 950 q 590 822 568 874 q 611 710 611 769 l 611 263 q 590 151 611 203 q 531 60 568 99 q 444 1 494 22 q 335 -21 393 -21 q 225 1 276 -21 q 136 60 174 22 q 77 151 99 99 q 56 263 56 203 l 56 710 m 194 711 l 194 261 q 234 158 194 199 q 333 118 274 118 q 433 158 393 118 q 472 261 472 199 l 472 711 q 433 814 472 774 q 333 854 393 854 q 234 814 274 854 q 194 711 194 774 z "},"1":{"ha":550,"x_min":42,"x_max":550,"o":"m 42 139 l 228 139 l 228 633 q 233 705 228 667 q 247 782 238 743 q 267 858 256 821 q 292 925 279 896 l 288 926 q 255 863 275 897 q 212 797 235 829 q 164 735 189 764 q 115 683 139 706 l 42 617 l 42 806 l 228 972 l 367 972 l 367 139 l 550 139 l 550 0 l 42 0 l 42 139 z "},"2":{"ha":626,"x_min":56,"x_max":578,"o":"m 56 139 l 564 139 l 564 0 l 56 0 l 56 307 q 206 406 136 360 q 327 499 275 453 q 409 591 379 544 q 439 689 439 638 q 392 802 439 756 q 269 849 346 849 q 192 834 229 849 q 126 794 156 819 q 78 735 97 769 q 56 661 60 701 l 56 917 q 269 988 153 988 q 391 965 335 988 q 489 901 447 942 q 554 806 531 861 q 578 688 578 751 q 534 528 578 600 q 417 394 490 457 q 251 269 344 331 q 56 139 157 208 z "},"3":{"ha":850,"x_min":56,"x_max":801,"o":"m 56 972 l 786 972 l 786 686 q 447 599 618 632 q 97 565 275 565 l 72 565 l 72 561 l 110 561 q 198 563 150 561 q 299 564 246 564 q 474 555 385 564 q 635 517 563 546 q 755 431 708 488 q 801 279 801 375 q 779 169 801 219 q 719 81 757 118 q 628 22 681 43 q 518 0 576 0 l 60 0 l 60 139 l 519 139 q 621 178 579 139 q 663 278 663 217 q 621 378 663 339 q 519 417 579 417 l 56 417 l 56 567 l 786 833 l 56 833 l 56 972 z "},"4":{"ha":801,"x_min":-7,"x_max":732,"o":"m -7 208 l -7 547 l 400 972 l 732 972 l 732 0 l 593 0 l 593 208 l -7 208 m -7 347 l 593 347 l 593 972 l -7 347 z "},"5":{"ha":856,"x_min":56,"x_max":807,"o":"m 56 972 l 792 972 l 792 833 l 193 833 l 193 597 l 482 597 q 614 575 554 597 q 717 513 674 553 q 783 419 760 474 q 807 299 807 364 q 783 178 807 233 q 717 84 760 124 q 614 22 674 44 q 482 0 554 0 l 60 0 l 60 139 l 483 139 q 619 181 571 139 q 668 299 668 224 q 622 413 668 368 q 483 458 576 458 l 56 458 l 56 972 z "},"6":{"ha":685,"x_min":56,"x_max":636,"o":"m 56 701 q 78 813 56 761 q 140 903 100 865 q 232 964 179 942 q 346 986 285 986 q 460 964 407 986 q 552 903 513 942 q 614 813 592 865 q 636 701 636 761 l 497 701 q 453 806 497 764 q 347 847 410 847 q 239 805 283 847 q 194 701 194 763 l 194 319 q 225 447 206 396 q 272 527 244 497 q 331 569 299 557 q 397 582 363 582 q 489 562 446 582 q 565 506 532 542 q 617 417 597 469 q 636 303 636 365 q 613 175 636 233 q 549 75 589 117 q 455 10 508 33 q 340 -14 401 -14 q 230 8 282 -14 q 139 68 178 29 q 78 159 100 107 q 56 271 56 211 l 56 701 m 194 292 q 238 172 194 219 q 344 125 282 125 q 403 138 375 125 q 451 172 431 150 q 485 225 472 194 q 497 292 497 256 q 485 358 497 328 q 451 411 472 389 q 403 446 431 433 q 344 458 375 458 q 238 411 282 458 q 194 292 194 364 z "},"7":{"ha":767,"x_min":42,"x_max":781,"o":"m 42 156 l 781 833 l 43 833 l 43 972 l 781 972 l 781 646 l 42 -33 l 42 156 z "},"8":{"ha":678,"x_min":49,"x_max":629,"o":"m 332 986 l 346 986 q 458 965 406 986 q 548 904 510 943 q 608 814 586 865 q 629 701 629 763 q 597 572 629 626 q 513 486 565 518 q 597 400 565 454 q 629 271 629 346 q 608 159 629 211 q 548 68 586 107 q 458 8 510 29 q 346 -14 406 -14 l 332 -14 q 220 8 272 -14 q 130 68 168 29 q 70 159 92 107 q 49 271 49 211 q 81 400 49 346 q 165 486 113 454 q 81 572 113 518 q 49 701 49 626 q 70 814 49 763 q 130 904 92 865 q 220 965 168 943 q 332 986 272 986 m 188 271 q 228 167 188 208 q 331 125 268 125 l 347 125 q 450 167 410 125 q 490 271 490 208 q 450 375 490 333 q 347 417 410 417 l 331 417 q 228 375 268 417 q 188 271 188 333 m 188 701 q 228 597 188 639 q 331 556 268 556 l 347 556 q 450 597 410 556 q 490 701 490 639 q 450 806 490 764 q 347 847 410 847 l 331 847 q 228 806 268 847 q 188 701 188 764 z "},"9":{"ha":685,"x_min":49,"x_max":629,"o":"m 344 986 q 455 965 403 986 q 546 904 507 943 q 607 814 585 865 q 629 701 629 763 l 629 271 q 607 160 629 211 q 545 69 585 108 q 453 8 506 31 q 339 -14 400 -14 q 225 8 278 -14 q 133 69 172 31 q 71 160 93 108 q 49 271 49 211 l 188 271 q 231 167 188 208 q 338 125 275 125 q 446 167 401 125 q 490 271 490 210 l 490 653 q 460 526 481 576 q 413 446 440 476 q 354 403 386 415 q 288 390 322 390 q 197 410 240 390 q 120 467 153 431 q 68 555 88 503 q 49 669 49 607 q 72 797 49 739 q 136 897 96 856 q 230 963 176 939 q 344 986 283 986 m 188 681 q 200 614 188 644 q 233 561 213 583 q 282 526 254 539 q 340 514 310 514 q 447 561 403 514 q 490 681 490 608 q 447 800 490 753 q 340 847 403 847 q 282 835 310 847 q 233 800 254 822 q 200 747 213 778 q 188 681 188 717 z "},"\u0000":{"ha":0,"x_min":0,"x_max":0,"o":""},"\r":{"ha":347,"x_min":0,"x_max":0,"o":""}," ":{"ha":347,"x_min":0,"x_max":0,"o":""},"A":{"ha":558,"x_min":0,"x_max":558,"o":"m 0 0 l 139 972 l 419 972 l 558 0 l 418 0 l 279 972 l 140 0 l 0 0 z "},"V":{"ha":558,"x_min":0,"x_max":558,"o":"m 139 0 l 0 972 l 140 972 l 279 0 l 418 972 l 558 972 l 419 0 l 139 0 z "},"R":{"ha":951,"x_min":69,"x_max":924,"o":"m 69 0 l 69 972 l 610 972 q 720 951 668 972 q 810 893 772 931 q 871 805 849 856 q 893 694 893 754 q 819 511 893 565 q 626 457 746 457 q 488 472 560 457 l 488 468 q 642 399 578 447 q 755 287 706 351 q 843 148 804 222 q 924 0 882 74 l 764 0 l 522 417 l 208 417 l 208 0 l 69 0 m 208 556 l 610 556 q 712 594 669 556 q 754 694 754 633 q 712 794 754 756 q 610 833 669 833 l 208 833 l 208 556 z "},"C":{"ha":938,"x_min":21,"x_max":882,"o":"m 21 486 q 60 688 21 594 q 166 848 99 781 q 326 954 233 915 q 528 993 419 993 q 718 959 626 993 q 882 856 810 925 l 882 590 q 831 700 865 651 q 751 783 797 749 q 647 836 704 818 q 528 854 590 854 q 381 826 449 854 q 265 749 314 799 q 188 633 215 700 q 160 486 160 565 q 188 340 160 407 q 265 223 215 272 q 381 146 314 174 q 528 118 449 118 q 647 136 590 118 q 751 189 704 154 q 831 272 797 224 q 882 382 865 321 l 882 117 q 718 13 810 47 q 528 -21 626 -21 q 326 18 419 -21 q 166 124 233 57 q 60 285 99 192 q 21 486 21 378 z "},"E":{"ha":624,"x_min":69,"x_max":568,"o":"m 69 972 l 568 972 l 568 833 l 208 833 l 208 556 l 568 556 l 568 417 l 208 417 l 208 139 l 568 139 l 568 0 l 69 0 l 69 972 z "},"S":{"ha":646,"x_min":49,"x_max":604,"o":"m 49 322 q 78 241 54 278 q 135 178 101 204 q 212 138 169 153 q 297 124 254 124 q 358 132 328 124 q 412 158 388 140 q 451 201 436 175 q 465 261 465 226 q 435 341 465 310 q 358 397 404 372 q 257 444 311 421 q 156 500 203 467 q 79 582 110 533 q 49 707 49 631 q 73 826 49 774 q 139 914 97 878 q 236 969 181 950 q 354 988 292 988 q 468 970 413 988 q 571 917 524 953 l 571 661 q 500 797 561 746 q 356 849 439 849 q 295 841 325 849 q 241 817 265 833 q 202 776 217 801 q 188 715 188 751 q 218 631 188 664 q 295 571 249 597 q 396 519 342 544 q 497 460 450 494 q 574 378 543 426 q 604 257 604 331 q 579 141 604 192 q 513 56 554 90 q 415 3 471 21 q 299 -15 360 -15 q 167 6 232 -15 q 49 68 101 26 l 49 322 z "},"B":{"ha":965,"x_min":69,"x_max":917,"o":"m 69 972 l 633 972 q 744 951 692 972 q 834 894 796 931 q 894 806 872 857 q 917 696 917 756 q 888 574 917 629 q 800 486 858 519 q 888 399 858 453 q 917 278 917 344 q 894 167 917 218 q 834 79 872 117 q 744 21 796 42 q 633 0 692 0 l 69 0 l 69 972 m 208 556 l 635 556 q 736 594 694 556 q 778 694 778 633 q 736 794 778 756 q 635 833 694 833 l 208 833 l 208 556 m 635 139 q 736 178 694 139 q 778 278 778 217 q 736 378 778 339 q 635 417 694 417 l 208 417 l 208 139 l 635 139 z "},"L":{"ha":568,"x_min":69,"x_max":568,"o":"m 69 972 l 208 972 l 208 139 l 568 139 l 568 0 l 69 0 l 69 972 z "},"F":{"ha":603,"x_min":69,"x_max":568,"o":"m 69 972 l 568 972 l 568 833 l 208 833 l 208 556 l 568 556 l 568 417 l 208 417 l 208 0 l 69 0 l 69 972 z "},"I":{"ha":278,"x_min":69,"x_max":208,"o":"m 69 972 l 208 972 l 208 0 l 69 0 l 69 972 z "},"P":{"ha":875,"x_min":69,"x_max":861,"o":"m 69 972 l 578 972 q 688 951 636 972 q 778 894 740 931 q 839 806 817 857 q 861 696 861 756 q 839 585 861 636 q 778 497 817 535 q 688 438 740 460 q 578 417 636 417 l 208 417 l 208 0 l 69 0 l 69 972 m 208 833 l 208 556 l 579 556 q 681 594 639 556 q 722 694 722 633 q 681 794 722 756 q 579 833 639 833 l 208 833 z "},"H":{"ha":1028,"x_min":69,"x_max":958,"o":"m 208 972 l 208 556 l 819 556 l 819 972 l 958 972 l 958 0 l 819 0 l 819 417 l 208 417 l 208 0 l 69 0 l 69 972 l 208 972 z "},"O":{"ha":1056,"x_min":21,"x_max":1035,"o":"m 528 993 q 729 954 636 993 q 890 848 822 915 q 996 688 957 781 q 1035 486 1035 594 q 996 285 1035 378 q 890 124 957 192 q 729 18 822 57 q 528 -21 636 -21 q 326 18 419 -21 q 166 124 233 57 q 60 285 99 192 q 21 486 21 378 q 60 688 21 594 q 166 848 99 781 q 326 954 233 915 q 528 993 419 993 m 528 118 q 674 146 607 118 q 791 223 742 174 q 868 340 840 272 q 896 486 896 407 q 868 633 896 565 q 791 749 840 700 q 674 826 742 799 q 528 854 607 854 q 381 826 449 854 q 265 749 314 799 q 188 633 215 700 q 160 486 160 565 q 188 340 160 407 q 265 223 215 272 q 381 146 314 174 q 528 118 449 118 z "},"D":{"ha":979,"x_min":69,"x_max":958,"o":"m 69 972 l 481 972 q 669 934 582 972 q 820 830 756 896 q 922 675 885 764 q 958 483 958 586 q 922 292 958 381 q 820 139 885 204 q 669 37 756 74 q 481 0 582 0 l 69 0 l 69 972 m 482 139 q 616 165 554 139 q 723 236 678 190 q 794 345 768 282 q 819 483 819 408 q 794 621 819 557 q 723 732 768 685 q 616 806 678 779 q 482 833 554 833 l 208 833 l 208 139 l 482 139 z "},"K":{"ha":646,"x_min":69,"x_max":646,"o":"m 69 972 l 208 972 l 208 488 l 485 972 l 644 972 l 368 488 l 646 0 l 486 0 l 208 488 l 208 0 l 69 0 l 69 972 z "},"N":{"ha":839,"x_min":69,"x_max":769,"o":"m 69 972 l 353 972 l 631 0 l 631 972 l 769 972 l 769 0 l 486 0 l 208 972 l 208 0 l 69 0 l 69 972 z "},"M":{"ha":1261,"x_min":69,"x_max":1192,"o":"m 69 972 l 353 972 l 631 0 l 908 972 l 1192 972 l 1192 0 l 1053 0 l 1053 972 l 775 0 l 486 0 l 208 972 l 208 0 l 69 0 l 69 972 z "},"T":{"ha":500,"x_min":0,"x_max":500,"o":"m 500 972 l 500 833 l 319 833 l 319 0 l 181 0 l 181 833 l 0 833 l 0 972 l 500 972 z "},"Z":{"ha":861,"x_min":49,"x_max":813,"o":"m 49 833 l 49 972 l 813 972 l 813 664 l 49 139 l 813 139 l 813 0 l 49 0 l 49 307 l 813 833 l 49 833 z "},"G":{"ha":938,"x_min":21,"x_max":882,"o":"m 21 486 q 60 688 21 594 q 166 848 99 781 q 326 954 233 915 q 528 993 419 993 q 724 957 633 993 q 882 856 814 921 l 882 590 q 833 697 865 649 q 754 781 800 746 q 651 835 708 815 q 528 854 593 854 q 381 826 449 854 q 265 749 314 799 q 188 633 215 700 q 160 486 160 565 q 188 340 160 407 q 265 223 215 272 q 381 146 314 174 q 528 118 449 118 q 739 181 649 118 q 869 346 829 243 l 389 346 l 389 485 l 882 485 l 882 117 q 724 15 814 51 q 528 -21 633 -21 q 326 18 419 -21 q 166 124 233 57 q 60 285 99 192 q 21 486 21 378 z "},"Q":{"ha":1056,"x_min":21,"x_max":1035,"o":"m 528 993 q 734 953 640 993 q 894 844 828 914 q 998 680 961 775 q 1035 474 1035 585 l 839 278 l 1024 107 l 1024 -83 l 740 179 l 546 -15 l 528 -15 q 327 23 419 -15 q 167 128 235 61 q 60 288 99 196 q 21 489 21 381 q 60 690 21 597 q 167 849 99 782 q 327 955 235 917 q 528 993 419 993 m 528 118 q 739 181 642 118 l 513 390 l 513 579 l 836 281 q 896 486 896 375 q 868 633 896 565 q 791 749 840 700 q 674 826 742 799 q 528 854 607 854 q 381 826 449 854 q 265 749 314 799 q 188 633 215 700 q 160 486 160 565 q 188 340 160 407 q 265 223 215 272 q 381 146 314 174 q 528 118 449 118 z "},"J":{"ha":500,"x_min":28,"x_max":444,"o":"m 444 972 l 444 263 q 424 152 444 204 q 366 62 403 100 q 278 1 329 24 q 168 -21 228 -21 q 96 -12 132 -21 q 28 17 60 -3 l 28 261 q 67 160 28 201 q 167 118 106 118 q 267 160 228 118 q 306 261 306 201 l 306 833 l 28 833 l 28 972 l 444 972 z "},"U":{"ha":667,"x_min":56,"x_max":611,"o":"m 56 263 l 56 972 l 194 972 l 194 261 q 234 158 194 199 q 333 118 274 118 q 433 158 393 118 q 472 261 472 199 l 472 972 l 611 972 l 611 263 q 590 151 611 203 q 531 60 568 99 q 444 1 494 22 q 335 -21 393 -21 q 225 1 276 -21 q 136 60 174 22 q 77 151 99 99 q 56 263 56 203 z "},"Y":{"ha":514,"x_min":-21,"x_max":535,"o":"m 122 972 l 203 685 q 224 594 214 644 q 240 492 233 544 q 251 389 247 440 q 256 296 256 338 l 260 296 q 263 389 260 338 q 274 492 267 440 q 290 594 281 544 q 311 685 300 644 l 392 972 l 535 972 l 326 281 l 326 0 l 188 0 l 188 281 l -21 972 l 122 972 z "},"W":{"ha":1261,"x_min":69,"x_max":1192,"o":"m 69 0 l 69 972 l 208 972 l 208 0 l 486 972 l 775 972 l 1053 0 l 1053 972 l 1192 972 l 1192 0 l 908 0 l 631 972 l 353 0 l 69 0 z "},"X":{"ha":885,"x_min":-35,"x_max":928,"o":"m 144 972 l 479 556 q 556 576 521 558 q 617 621 592 593 q 656 685 642 649 q 671 764 671 722 q 655 847 671 808 q 611 913 639 885 q 545 956 583 940 q 463 972 507 972 l 743 972 q 794 871 779 926 q 810 757 810 815 q 785 623 810 679 q 717 530 761 567 q 612 475 672 493 q 478 457 551 457 q 430 459 454 457 q 382 464 406 461 l 381 460 q 469 438 424 454 q 557 398 514 422 q 638 344 600 374 q 701 281 675 314 l 928 0 l 749 0 l 413 417 q 332 399 369 415 q 267 355 294 383 q 225 289 240 326 q 210 208 210 251 q 226 126 210 164 q 269 60 242 88 q 335 16 297 32 q 418 0 374 0 l 138 0 q 87 101 103 46 q 71 214 71 156 q 97 349 71 292 q 168 442 122 406 q 276 497 214 479 q 410 515 338 515 q 459 513 435 515 q 508 508 483 511 l 508 513 q 422 536 467 519 q 333 576 376 553 q 253 631 290 600 q 189 694 215 661 l -35 972 l 144 972 z "},"&":{"ha":731,"x_min":40,"x_max":661,"o":"m 40 268 q 92 408 40 351 q 229 464 143 464 q 297 453 261 464 l 67 650 l 67 972 l 661 972 l 661 833 l 67 833 l 425 525 q 509 432 468 488 q 574 325 550 376 l 578 326 q 538 444 554 376 q 522 569 522 513 l 522 694 l 661 694 l 661 0 l 324 0 q 215 20 267 0 q 125 76 164 40 q 63 160 86 111 q 40 268 40 210 m 322 139 l 661 139 l 404 358 q 314 392 367 392 q 220 358 261 392 q 179 269 179 324 q 223 175 179 211 q 322 139 267 139 z "},".":{"ha":417,"x_min":69,"x_max":347,"o":"m 69 139 l 347 139 l 347 0 l 69 0 l 69 139 z "},",":{"ha":292,"x_min":69,"x_max":222,"o":"m 222 167 l 194 -167 l 69 -167 l 69 167 l 222 167 z "},"a":{"ha":764,"x_min":21,"x_max":778,"o":"m 21 138 q 42 243 21 196 q 94 332 63 290 q 162 414 125 374 q 230 501 199 454 q 282 603 261 547 q 303 729 303 658 q 299 785 303 751 q 288 853 294 818 q 271 921 281 889 q 250 972 261 953 l 399 972 l 778 0 l 629 0 l 486 365 q 485 249 490 313 q 457 130 479 185 q 392 38 435 75 q 281 0 350 0 l 63 0 q 31 66 40 31 q 21 138 21 101 m 281 42 q 366 69 333 42 q 418 137 399 96 q 444 225 438 178 q 451 313 451 272 q 441 431 451 375 q 414 542 431 488 q 376 649 397 596 q 333 758 356 703 q 314 577 340 657 q 253 428 288 497 q 190 297 219 360 q 160 169 160 235 q 191 77 160 113 q 281 42 222 42 z "},"b":{"ha":943,"x_min":56,"x_max":908,"o":"m 611 972 q 714 955 665 972 q 800 906 763 938 q 859 828 838 874 q 881 725 881 782 q 831 577 881 640 q 700 490 781 514 q 851 406 794 467 q 908 246 908 346 q 887 139 908 185 q 828 62 865 93 q 742 15 792 31 q 635 0 692 0 l 393 0 q 289 4 347 0 q 178 26 231 8 q 91 79 126 44 q 56 176 56 114 l 56 365 q 199 417 118 417 q 294 396 251 417 q 372 344 336 375 q 442 277 408 314 q 511 210 475 240 q 588 158 547 179 q 679 138 629 138 q 784 174 744 138 q 824 278 824 211 q 799 369 824 331 q 737 431 775 407 q 651 467 699 456 q 558 478 604 478 l 56 478 l 56 972 l 611 972 m 194 617 l 613 617 q 701 644 660 617 q 742 725 742 672 q 701 806 742 778 q 613 833 660 833 l 194 833 l 194 617 m 368 35 l 660 32 q 490 75 557 36 q 375 159 424 114 q 285 241 326 204 q 190 278 243 278 q 122 251 146 278 q 97 179 97 224 q 126 101 97 129 q 196 58 154 72 q 285 39 238 43 q 368 35 332 35 z "},"c":{"ha":982,"x_min":21,"x_max":926,"o":"m 21 486 q 60 688 21 594 q 166 848 99 781 q 326 954 233 915 q 528 993 419 993 q 749 946 644 993 q 926 807 853 899 l 926 165 q 749 26 853 74 q 528 -21 644 -21 q 326 18 419 -21 q 166 124 233 57 q 60 285 99 192 q 21 486 21 378 m 160 486 q 188 340 160 407 q 265 223 215 272 q 381 146 314 174 q 528 118 449 118 q 674 146 607 118 q 791 223 742 174 q 868 340 840 272 q 896 486 896 407 q 868 633 896 565 q 791 749 840 700 q 674 826 742 799 q 528 854 607 854 q 381 826 449 854 q 265 749 314 799 q 188 633 215 700 q 160 486 160 565 z "},"d":{"ha":1076,"x_min":56,"x_max":1056,"o":"m 56 0 l 56 704 q 78 815 56 765 q 138 902 100 865 q 228 959 176 939 q 339 979 279 979 l 578 979 q 768 940 681 979 q 919 835 856 901 q 1019 678 983 768 q 1056 488 1056 589 q 1019 297 1056 386 q 919 142 983 208 q 768 38 856 76 q 578 0 681 0 l 56 0 m 219 139 l 579 139 q 715 166 653 139 q 822 240 778 193 q 892 350 867 286 q 917 486 917 414 q 866 677 917 589 q 719 810 815 765 l 219 139 m 194 700 q 235 600 194 638 q 336 563 275 563 q 444 588 394 563 q 537 652 494 614 q 615 737 579 690 q 682 825 651 783 q 579 840 629 840 l 338 840 q 235 801 276 840 q 194 700 194 763 m 97 554 l 97 39 l 550 647 q 494 584 525 618 q 428 521 464 550 q 353 472 393 492 q 272 451 314 451 q 171 480 217 451 q 97 554 125 508 z "},"e":{"ha":696,"x_min":69,"x_max":744,"o":"m 69 972 l 744 972 q 615 923 686 958 q 480 838 543 888 q 374 727 417 789 q 332 597 332 665 q 363 504 332 542 q 451 467 393 467 q 531 490 497 467 q 589 548 565 513 q 624 626 613 583 q 636 708 636 669 l 636 386 q 474 329 564 329 q 386 347 424 329 q 324 394 349 364 q 286 465 299 425 q 274 553 274 506 q 311 708 274 639 q 413 833 349 778 l 208 833 l 208 139 l 638 139 l 638 0 l 69 0 l 69 972 z "},"f":{"ha":689,"x_min":69,"x_max":744,"o":"m 744 972 q 615 923 686 958 q 480 838 543 888 q 374 727 417 789 q 332 597 332 665 q 363 504 332 542 q 451 467 393 467 q 531 490 497 467 q 589 548 565 513 q 624 626 613 583 q 636 708 636 669 l 636 386 q 474 329 564 329 q 386 347 424 329 q 324 394 349 364 q 286 465 299 425 q 274 553 274 506 q 311 708 274 639 q 413 833 349 778 l 208 833 l 208 0 l 69 0 l 69 972 l 744 972 z "},"g":{"ha":989,"x_min":21,"x_max":926,"o":"m 21 469 q 58 675 21 579 q 161 842 94 771 q 321 953 228 913 q 526 993 414 993 q 749 944 644 993 q 926 801 853 896 l 926 0 l 788 0 l 788 465 l 315 465 q 440 454 375 465 q 558 415 504 443 q 646 338 611 386 q 681 217 681 290 q 660 118 681 161 q 605 46 640 75 q 524 2 569 17 q 425 -12 478 -12 q 252 30 328 -12 q 125 140 176 72 q 47 295 74 208 q 21 469 21 382 m 161 507 l 892 507 q 858 647 888 583 q 778 757 828 711 q 663 828 729 803 q 521 854 597 854 q 379 828 443 854 q 269 756 315 803 q 194 646 222 710 q 161 507 167 582 m 161 465 q 176 351 161 411 q 222 242 192 292 q 299 159 253 192 q 410 126 346 126 q 511 159 467 126 q 556 254 556 192 q 525 348 556 308 q 449 413 494 388 q 352 452 404 439 q 256 465 300 465 l 161 465 z "},"h":{"ha":938,"x_min":14,"x_max":868,"o":"m 14 742 q 34 842 14 796 q 89 922 54 889 q 170 974 124 956 q 271 993 217 993 q 415 958 347 993 q 525 857 483 922 l 333 492 q 417 486 371 486 l 729 486 l 729 972 l 868 972 l 868 0 l 729 0 l 729 444 l 418 444 l 178 0 l 19 0 l 272 467 q 174 501 221 478 q 91 559 126 525 q 35 639 56 593 q 14 742 14 685 m 83 711 q 101 631 83 667 q 147 569 118 596 q 214 525 176 543 q 290 499 251 507 l 422 751 q 350 840 396 804 q 243 875 304 875 q 128 828 172 875 q 83 711 83 781 z "},"i":{"ha":739,"x_min":56,"x_max":739,"o":"m 56 0 l 56 925 q 133 974 92 956 q 224 992 175 992 q 328 967 282 992 q 406 903 374 943 q 455 813 438 864 q 472 708 472 763 l 472 139 l 739 139 l 739 0 l 56 0 m 97 139 l 333 139 l 333 933 q 208 894 254 933 q 136 796 161 856 q 104 667 111 736 q 97 536 97 597 l 97 139 z "},"j":{"ha":569,"x_min":56,"x_max":514,"o":"m 56 51 l 56 972 l 514 972 l 514 268 q 493 158 514 210 q 435 67 472 106 q 348 7 399 29 q 238 -15 297 -15 q 56 51 133 -15 m 375 51 l 375 833 l 97 833 l 97 440 q 108 298 97 368 q 149 173 119 228 q 233 85 179 118 q 375 51 288 51 z "},"k":{"ha":825,"x_min":69,"x_max":804,"o":"m 69 972 l 208 972 l 208 486 l 343 486 q 433 490 388 486 l 281 744 q 311 841 288 796 q 372 920 335 886 q 455 974 408 954 q 554 993 501 993 q 649 975 604 993 q 725 926 693 957 q 776 851 757 894 q 794 757 794 808 q 769 644 794 693 q 701 559 743 594 q 606 501 660 524 q 499 467 553 478 l 804 0 l 638 0 l 347 444 l 208 444 l 208 0 l 69 0 l 69 972 m 479 499 q 562 522 519 506 q 639 564 604 538 q 696 627 674 590 q 718 714 718 664 q 707 772 718 744 q 676 821 696 800 q 631 853 657 842 q 572 865 604 865 q 505 849 533 865 q 457 804 476 832 q 428 742 438 776 q 418 671 418 707 q 479 499 418 575 z "},"l":{"ha":583,"x_min":69,"x_max":528,"o":"m 69 704 q 90 815 69 763 q 148 905 111 867 q 235 965 185 943 q 346 988 286 988 q 528 921 450 988 l 528 0 l 69 0 l 69 704 m 208 139 l 486 139 l 486 532 q 475 675 486 606 q 434 799 464 744 q 350 888 404 854 q 208 921 296 921 l 208 139 z "},"m":{"ha":1179,"x_min":69,"x_max":1131,"o":"m 69 0 l 69 972 l 353 972 l 611 68 l 611 594 q 619 730 611 660 q 655 858 628 800 q 732 954 682 917 q 865 992 782 992 q 986 966 936 992 q 1068 897 1036 940 q 1115 795 1100 853 q 1131 674 1131 738 l 1131 392 q 1127 281 1131 347 q 1107 151 1124 214 q 1055 44 1090 89 q 954 0 1019 0 l 765 0 q 726 80 739 36 q 714 168 714 124 q 734 276 714 228 q 784 367 754 325 q 849 450 814 410 q 913 533 883 490 q 963 624 943 576 q 983 732 983 672 q 948 855 983 803 q 835 907 913 907 q 739 875 775 907 q 684 796 703 843 q 659 694 665 749 q 653 594 653 640 l 653 0 l 486 0 l 208 972 l 208 0 l 69 0 m 853 160 q 880 78 853 114 q 957 42 907 42 q 1035 81 1007 42 q 1076 176 1063 121 q 1093 288 1090 231 q 1096 379 1096 344 l 1099 683 q 1058 526 1097 596 q 974 394 1019 456 q 890 276 928 332 q 853 160 853 219 z "},"n":{"ha":943,"x_min":69,"x_max":888,"o":"m 69 0 l 69 972 l 365 972 q 485 744 428 856 q 581 504 543 632 l 585 506 q 547 640 567 567 q 528 776 528 714 q 574 934 528 871 q 721 997 621 997 q 810 981 768 997 q 888 931 853 964 l 888 0 l 69 0 m 208 42 l 706 42 l 208 972 l 208 42 m 846 78 l 846 658 q 838 727 846 692 q 811 792 829 763 q 765 841 793 822 q 697 860 736 860 q 605 816 633 860 q 576 714 576 772 q 606 565 576 650 q 679 390 636 479 q 768 217 722 300 q 846 78 814 135 z "},"o":{"ha":678,"x_min":56,"x_max":622,"o":"m 56 0 l 56 715 q 78 826 56 775 q 138 913 100 876 q 228 971 176 950 q 339 992 281 992 q 449 971 397 992 q 540 913 501 950 q 600 826 578 876 q 622 715 622 775 l 622 0 l 56 0 m 581 139 l 581 567 q 477 470 542 504 q 339 436 413 436 q 201 470 265 436 q 97 567 136 504 l 97 139 l 581 139 m 194 714 q 237 613 194 651 q 340 575 279 575 q 442 614 400 575 q 483 714 483 653 q 441 815 483 776 q 338 853 399 853 q 236 814 278 853 q 194 714 194 775 z "},"p":{"ha":721,"x_min":0,"x_max":707,"o":"m 0 890 q 4 972 0 931 l 156 972 q 144 878 149 925 q 140 783 140 832 q 144 702 140 744 q 163 622 149 660 q 201 551 176 583 q 264 500 225 519 l 264 919 q 351 974 300 956 q 453 992 401 992 q 555 971 508 992 q 635 914 601 950 q 688 830 669 878 q 707 728 707 782 q 680 609 707 661 q 608 520 653 557 q 506 465 564 483 q 386 446 449 446 q 311 453 353 446 l 311 0 l 171 0 l 171 510 q 38 678 76 575 q 0 890 0 781 m 307 692 l 307 499 q 349 490 328 493 q 392 486 369 486 q 472 500 435 486 q 536 540 508 514 q 580 601 564 565 q 596 681 596 638 q 585 744 596 713 q 556 799 575 775 q 510 838 538 824 q 447 853 482 853 q 388 839 414 853 q 344 803 361 825 q 317 751 326 781 q 307 692 307 722 z "},"q":{"ha":1104,"x_min":21,"x_max":1118,"o":"m 21 486 q 60 688 21 594 q 166 848 99 781 q 326 954 233 915 q 528 993 419 993 q 729 954 636 993 q 890 848 822 915 q 996 688 957 781 q 1035 486 1035 594 q 1031 415 1035 451 l 810 194 q 861 126 829 154 q 942 99 893 99 q 1017 119 983 99 q 1072 170 1050 139 q 1106 240 1094 201 q 1118 315 1118 278 l 1118 14 q 1063 -17 1093 -7 q 1000 -26 1032 -26 q 924 -12 958 -26 q 865 28 890 3 q 819 85 839 53 q 783 153 799 118 q 778 164 782 158 l 597 -17 q 563 -19 579 -18 q 528 -21 546 -21 q 326 18 419 -21 q 166 124 233 57 q 60 285 99 192 q 21 486 21 378 m 406 138 q 372 228 372 175 q 387 295 372 265 q 426 346 401 325 q 482 378 450 367 q 549 389 514 389 q 693 342 631 389 q 793 226 756 296 q 870 347 844 279 q 896 486 896 414 q 868 633 896 565 q 791 749 840 700 q 674 826 742 799 q 528 854 607 854 q 381 826 449 854 q 265 749 314 799 q 188 633 215 700 q 160 486 160 565 q 225 271 160 365 q 406 138 290 176 m 408 222 q 444 144 408 169 q 528 118 479 118 q 651 138 590 118 q 761 197 713 157 q 677 303 729 258 q 551 347 625 347 q 452 314 496 347 q 408 222 408 281 z "},"r":{"ha":947,"x_min":69,"x_max":906,"o":"m 69 0 l 69 972 l 622 972 q 733 951 681 972 q 823 893 785 931 q 883 805 861 856 q 906 694 906 754 l 906 536 q 903 438 906 494 q 892 322 900 382 q 867 205 883 263 q 821 101 850 147 q 750 28 792 56 q 649 0 708 0 l 425 0 q 389 110 389 49 q 416 208 389 163 q 483 292 443 254 q 569 362 522 331 q 656 418 617 393 q 639 417 647 417 q 622 417 631 417 l 208 417 l 208 0 l 69 0 m 594 556 q 656 564 626 556 q 710 590 686 572 q 747 633 733 607 q 761 694 761 660 q 747 755 761 729 q 709 798 732 781 q 656 824 686 815 q 594 833 626 833 l 208 833 l 208 556 l 594 556 m 528 163 q 560 74 528 107 q 647 42 592 42 q 735 69 699 42 q 797 142 772 97 q 835 244 821 188 q 857 357 850 300 q 866 465 864 414 q 868 553 868 517 q 783 466 840 506 q 669 384 726 426 q 570 290 613 342 q 528 163 528 238 z "},"s":{"ha":667,"x_min":56,"x_max":611,"o":"m 358 988 q 496 960 429 988 q 611 879 563 932 l 611 260 q 585 142 611 193 q 517 56 560 92 q 417 3 474 21 q 299 -15 360 -15 q 171 4 233 -15 q 56 64 108 24 l 56 715 q 81 831 56 781 q 147 916 106 881 q 244 969 189 951 q 358 988 299 988 m 194 718 q 240 621 194 660 q 346 549 285 582 q 470 481 407 515 q 569 397 533 447 l 569 582 q 558 683 569 635 q 522 767 547 731 q 456 826 497 804 q 357 849 415 849 q 297 841 326 849 q 245 817 268 833 q 208 777 222 801 q 194 718 194 753 m 97 568 l 97 379 q 108 283 97 329 q 144 201 119 236 q 209 144 169 165 q 306 124 249 124 q 366 131 336 124 q 419 155 396 139 q 458 196 443 171 q 472 256 472 221 q 428 351 472 315 q 323 417 383 388 q 199 481 263 447 q 97 568 135 514 z "},"t":{"ha":626,"x_min":-7,"x_max":571,"o":"m -7 972 l 571 972 l 571 51 q 390 -15 493 -15 q 177 63 256 -15 q 99 276 99 142 q 117 417 99 349 q 156 555 135 486 q 196 692 178 624 q 214 833 214 761 l -7 833 l -7 972 m 251 833 l 251 51 q 393 85 339 51 q 477 173 447 118 q 518 298 507 228 q 529 440 529 368 l 529 833 l 251 833 z "},"u":{"ha":714,"x_min":42,"x_max":658,"o":"m 42 593 q 45 703 42 638 q 66 828 49 768 q 119 930 83 888 q 218 972 154 972 l 407 972 q 446 901 433 940 q 458 821 458 861 q 438 717 458 764 q 386 627 417 669 q 319 546 356 585 q 253 467 283 507 q 201 383 222 426 q 181 289 181 340 q 226 166 181 214 q 347 118 272 118 q 428 138 396 118 q 481 189 461 157 q 510 262 501 221 q 519 344 519 303 l 519 972 l 658 972 l 658 343 q 639 205 658 271 q 581 89 619 139 q 483 9 542 39 q 346 -21 424 -21 q 214 7 271 -21 q 119 82 157 35 q 61 192 81 129 q 42 325 42 256 l 42 593 m 319 821 q 292 898 319 865 q 217 931 264 931 q 138 891 165 931 q 96 797 110 851 q 79 685 82 742 q 76 593 76 628 l 74 353 q 114 487 75 426 q 199 602 153 547 q 282 710 244 657 q 319 821 319 763 z "},"v":{"ha":750,"x_min":-21,"x_max":736,"o":"m -21 972 l 128 972 l 271 607 q 272 724 267 660 q 300 843 278 788 q 365 935 322 899 q 476 972 407 972 l 694 972 q 726 906 717 942 q 736 835 736 871 q 715 729 736 776 q 663 640 694 682 q 595 558 632 599 q 527 472 558 518 q 475 371 496 426 q 454 243 454 315 q 458 187 454 221 q 469 117 463 153 q 486 50 476 82 q 507 0 496 18 l 358 0 l -21 972 m 306 660 q 315 541 306 597 q 342 431 325 485 q 380 324 358 378 q 424 214 401 271 q 443 397 417 315 q 503 547 469 478 q 567 677 538 615 q 597 803 597 739 q 566 895 597 860 q 476 931 535 931 q 392 903 425 931 q 339 836 358 876 q 313 748 319 796 q 306 660 306 700 z "},"w":{"ha":1322,"x_min":69,"x_max":1308,"o":"m 69 0 l 69 972 l 783 972 l 869 676 l 869 690 q 876 781 869 732 q 902 873 883 831 q 955 944 921 915 q 1043 972 989 972 l 1267 972 q 1299 906 1289 942 q 1308 833 1308 869 q 1288 728 1308 774 q 1235 644 1267 683 q 1167 565 1204 604 q 1099 480 1131 526 q 1047 374 1068 433 q 1026 235 1026 315 q 1038 116 1026 174 q 1065 0 1050 58 l 917 0 l 635 972 l 353 0 l 69 0 m 208 931 l 208 0 l 478 931 l 208 931 m 993 249 q 1021 421 993 344 q 1082 561 1049 497 q 1142 681 1115 625 q 1169 793 1169 738 q 1135 891 1169 851 q 1042 931 1101 931 q 969 906 997 931 q 927 844 942 881 q 908 765 913 807 q 903 689 903 722 q 932 466 903 574 q 993 249 961 358 z "},"x":{"ha":921,"x_min":-35,"x_max":858,"o":"m 138 972 l 411 603 l 686 972 l 858 972 l 858 94 q 765 13 817 42 q 646 -17 714 -17 q 549 3 590 -17 q 481 56 508 22 q 441 133 454 89 q 428 229 428 178 q 451 377 428 304 q 508 521 474 450 q 585 658 543 592 q 663 788 626 725 l 660 790 q 551 614 607 700 q 436 440 494 528 q 289 219 361 329 q 138 0 217 108 l -35 0 l 325 486 l -35 972 l 138 972 m 614 113 q 702 149 664 113 q 766 235 740 185 q 805 342 792 286 q 818 439 818 399 l 818 919 q 714 785 771 860 q 607 631 657 711 q 524 467 557 551 q 490 304 490 383 q 497 243 490 276 q 517 181 503 210 q 555 132 531 151 q 614 113 579 113 z "},"y":{"ha":893,"x_min":56,"x_max":949,"o":"m 56 0 l 56 878 q 149 960 97 931 q 268 989 200 989 q 365 969 324 989 q 433 917 406 950 q 473 839 460 883 q 486 743 486 794 q 463 595 486 668 q 406 451 440 522 q 329 314 371 381 q 251 185 288 247 l 254 182 q 363 358 307 272 q 478 532 419 444 q 625 753 553 643 q 776 972 697 864 l 949 972 l 228 0 l 56 0 m 96 53 q 200 188 143 114 q 307 341 257 261 q 390 505 357 421 q 424 668 424 589 q 417 729 424 696 q 397 792 411 763 q 360 840 383 821 q 300 860 336 860 q 212 824 250 860 q 148 738 174 789 q 109 630 122 686 q 96 533 96 574 l 96 53 z "},"z":{"ha":886,"x_min":56,"x_max":844,"o":"m 56 0 l 56 185 l 819 833 l 56 833 l 56 972 l 819 972 l 819 651 l 368 267 q 499 315 432 297 q 638 333 567 333 q 717 325 679 333 q 783 298 756 317 q 828 247 811 279 q 844 167 844 215 q 827 77 844 121 q 778 0 810 33 l 56 0 m 507 42 q 576 51 540 42 q 640 78 611 60 q 688 125 669 96 q 707 193 707 154 q 675 267 707 244 q 596 289 643 289 q 469 265 538 289 q 335 203 401 240 q 208 122 268 165 q 104 42 147 79 l 507 42 z "},"•":{"ha":417,"x_min":69,"x_max":347,"o":"m 69 625 l 347 625 l 347 347 l 69 347 l 69 625 z "},"…":{"ha":1250,"x_min":69,"x_max":1181,"o":"m 903 0 l 903 139 l 1181 139 l 1181 0 l 903 0 m 486 139 l 764 139 l 764 0 l 486 0 l 486 139 m 347 139 l 347 0 l 69 0 l 69 139 l 347 139 z "},":":{"ha":417,"x_min":69,"x_max":347,"o":"m 69 139 l 347 139 l 347 0 l 69 0 l 69 139 m 347 833 l 347 694 l 69 694 l 69 833 l 347 833 z "},";":{"ha":417,"x_min":69,"x_max":347,"o":"m 69 833 l 347 833 l 347 694 l 69 694 l 69 833 m 297 167 l 269 -167 l 144 -167 l 144 167 l 297 167 z "},"-":{"ha":556,"x_min":69,"x_max":486,"o":"m 69 556 l 486 556 l 486 417 l 69 417 l 69 556 z "},"–":{"ha":694,"x_min":69,"x_max":625,"o":"m 69 554 l 625 554 l 625 415 l 69 415 l 69 554 z "},"—":{"ha":833,"x_min":69,"x_max":764,"o":"m 69 554 l 764 554 l 764 415 l 69 415 l 69 554 z "},"(":{"ha":343,"x_min":56,"x_max":288,"o":"m 140 972 l 288 972 q 194 486 194 731 q 288 0 194 242 l 140 0 q 77 230 99 104 q 56 486 56 356 q 77 742 56 617 q 140 972 99 868 z "},")":{"ha":343,"x_min":56,"x_max":288,"o":"m 56 0 q 149 486 149 242 q 56 972 149 731 l 203 972 q 266 742 244 868 q 288 486 288 617 q 266 230 288 356 q 203 0 244 104 l 56 0 z "},"[":{"ha":403,"x_min":69,"x_max":347,"o":"m 347 972 l 347 833 l 208 833 l 208 139 l 347 139 l 347 0 l 69 0 l 69 972 l 347 972 z "},"]":{"ha":403,"x_min":56,"x_max":333,"o":"m 194 139 l 194 833 l 56 833 l 56 972 l 333 972 l 333 0 l 56 0 l 56 139 l 194 139 z "},"{":{"ha":347,"x_min":14,"x_max":278,"o":"m 14 417 l 14 556 q 101 575 64 556 q 139 654 139 594 l 139 972 l 278 972 l 278 694 q 253 578 278 633 q 179 486 228 524 q 253 394 228 449 q 278 278 278 339 l 278 0 l 139 0 l 139 318 q 101 397 139 378 q 14 417 64 417 z "},"}":{"ha":347,"x_min":69,"x_max":333,"o":"m 208 972 l 208 654 q 246 575 208 594 q 333 556 283 556 l 333 417 q 246 397 283 417 q 208 318 208 378 l 208 0 l 69 0 l 69 278 q 94 394 69 339 q 168 486 119 449 q 94 578 119 524 q 69 694 69 633 l 69 972 l 208 972 z "},"?":{"ha":578,"x_min":28,"x_max":550,"o":"m 28 917 q 249 988 124 988 q 366 969 311 988 q 462 917 421 951 q 526 831 503 882 q 550 714 550 779 q 532 608 550 653 q 487 531 514 564 q 428 472 460 497 q 370 424 397 447 q 325 378 343 401 q 307 326 307 356 l 307 279 l 168 279 l 168 328 q 186 416 168 379 q 231 481 204 453 q 290 532 258 508 q 348 581 321 556 q 393 638 375 607 q 411 711 411 668 q 363 815 411 781 q 251 849 315 849 q 172 835 211 849 q 103 798 133 822 q 52 739 72 774 q 28 661 32 704 l 28 917 m 156 0 l 156 153 l 322 153 l 322 0 l 156 0 z "},"!":{"ha":271,"x_min":56,"x_max":222,"o":"m 68 972 l 207 972 l 207 278 l 68 278 l 68 972 m 56 0 l 56 153 l 222 153 l 222 0 l 56 0 z "},"‚":{"ha":292,"x_min":69,"x_max":222,"o":"m 222 333 l 194 0 l 69 0 l 69 333 l 222 333 z "},"’":{"ha":292,"x_min":69,"x_max":222,"o":"m 222 972 l 194 639 l 69 639 l 69 972 l 222 972 z "},"‘":{"ha":292,"x_min":69,"x_max":222,"o":"m 69 639 l 97 972 l 222 972 l 222 639 l 69 639 z "},"“":{"ha":514,"x_min":69,"x_max":444,"o":"m 319 972 l 444 972 l 444 639 l 292 639 l 319 972 m 69 639 l 97 972 l 222 972 l 222 639 l 69 639 z "},"”":{"ha":514,"x_min":69,"x_max":444,"o":"m 292 639 l 292 972 l 444 972 l 417 639 l 292 639 m 222 972 l 194 639 l 69 639 l 69 972 l 222 972 z "},"„":{"ha":514,"x_min":69,"x_max":444,"o":"m 292 0 l 292 333 l 444 333 l 417 0 l 292 0 m 222 333 l 194 0 l 69 0 l 69 333 l 222 333 z "},"‹":{"ha":449,"x_min":14,"x_max":379,"o":"m 213 772 l 379 772 l 178 486 l 379 200 l 213 200 l 14 486 l 213 772 z "},"«":{"ha":713,"x_min":14,"x_max":671,"o":"m 306 486 l 504 772 l 671 772 l 469 486 l 671 200 l 504 200 l 306 486 m 14 486 l 213 772 l 379 772 l 178 486 l 379 200 l 213 200 l 14 486 z "},"»":{"ha":713,"x_min":42,"x_max":699,"o":"m 500 772 l 699 486 l 500 200 l 333 200 l 535 486 l 333 772 l 500 772 m 243 486 l 42 772 l 208 772 l 407 486 l 208 200 l 42 200 l 243 486 z "},"›":{"ha":449,"x_min":69,"x_max":435,"o":"m 271 486 l 69 772 l 236 772 l 435 486 l 236 200 l 69 200 l 271 486 z "},"¿":{"ha":606,"x_min":42,"x_max":564,"o":"m 42 258 q 60 364 42 319 q 105 442 78 408 q 163 500 132 475 q 222 548 194 525 q 267 594 249 571 q 285 646 285 617 l 285 693 l 424 693 l 424 644 q 406 556 424 593 q 360 492 388 519 q 302 440 333 464 q 244 391 271 417 q 199 335 217 365 q 181 261 181 304 q 228 158 181 192 q 340 124 276 124 q 419 137 381 124 q 489 174 458 150 q 540 233 519 199 q 564 311 560 268 l 564 56 q 343 -15 468 -15 q 226 3 281 -15 q 130 56 171 21 q 65 142 89 90 q 42 258 42 193 m 436 972 l 436 819 l 269 819 l 269 972 l 436 972 z "},"¡":{"ha":271,"x_min":56,"x_max":222,"o":"m 68 694 l 207 694 l 207 0 l 68 0 l 68 694 m 222 972 l 222 819 l 56 819 l 56 972 l 222 972 z "},"+":{"ha":694,"x_min":69,"x_max":625,"o":"m 278 554 l 278 764 l 417 764 l 417 554 l 625 554 l 625 415 l 417 415 l 417 208 l 278 208 l 278 415 l 69 415 l 69 554 l 278 554 z "},"×":{"ha":693,"x_min":69,"x_max":624,"o":"m 69 307 l 249 486 l 74 660 l 172 758 l 347 585 l 525 763 l 624 664 l 446 486 l 619 311 l 521 213 l 347 388 l 168 208 l 69 307 z "},"=":{"ha":694,"x_min":69,"x_max":625,"o":"m 69 693 l 625 693 l 625 554 l 69 554 l 69 693 m 625 415 l 625 276 l 69 276 l 69 415 l 625 415 z "},"_":{"ha":833,"x_min":69,"x_max":764,"o":"m 69 -69 l 764 -69 l 764 -208 l 69 -208 l 69 -69 z "},"§":{"ha":668,"x_min":56,"x_max":613,"o":"m 231 622 l 231 626 q 165 636 196 626 q 109 665 133 646 q 70 713 85 685 q 56 778 56 740 q 73 856 56 819 q 119 917 90 892 q 185 958 147 943 q 263 972 222 972 l 599 972 l 599 833 l 263 833 q 214 813 233 833 q 194 764 194 793 q 213 714 194 733 q 263 694 232 694 l 406 694 q 483 680 446 694 q 549 640 521 665 q 595 578 578 614 q 613 500 613 542 q 598 435 613 463 q 559 388 583 407 q 503 358 535 368 q 438 349 472 349 l 438 344 q 503 335 471 344 q 559 306 535 325 q 598 260 583 288 q 613 194 613 232 q 595 117 613 153 q 549 55 578 81 q 483 15 521 29 q 406 0 446 0 l 69 0 l 69 139 l 406 139 q 455 160 436 139 q 474 210 474 181 q 454 258 474 239 q 406 278 435 278 l 263 278 q 185 292 222 278 q 119 333 147 307 q 73 394 90 358 q 56 472 56 431 q 70 538 56 510 q 109 584 85 565 q 165 613 133 603 q 231 622 197 622 m 263 417 l 406 417 q 455 436 436 417 q 474 486 474 456 q 454 535 474 515 q 406 556 435 556 l 263 556 q 214 536 233 556 q 194 488 194 517 q 213 438 194 458 q 263 417 232 417 z "},"°":{"ha":556,"x_min":69,"x_max":486,"o":"m 278 986 q 360 970 322 986 q 426 926 399 954 q 470 860 454 899 q 486 778 486 822 q 470 695 486 733 q 426 629 454 657 q 360 585 399 601 q 278 569 322 569 q 195 585 233 569 q 129 629 157 601 q 85 695 101 657 q 69 778 69 733 q 85 860 69 822 q 129 926 101 899 q 195 970 157 954 q 278 986 233 986 m 278 696 q 337 719 314 696 q 360 778 360 742 q 337 837 360 814 q 278 860 314 860 q 219 837 242 860 q 196 778 196 814 q 219 719 196 742 q 278 696 242 696 z "},"©":{"ha":1056,"x_min":21,"x_max":1035,"o":"m 21 486 q 60 688 21 594 q 166 848 99 781 q 326 954 233 915 q 528 993 419 993 q 729 954 636 993 q 890 848 822 915 q 996 688 957 781 q 1035 486 1035 594 q 996 285 1035 378 q 890 124 957 192 q 729 18 822 57 q 528 -21 636 -21 q 326 18 419 -21 q 166 124 233 57 q 60 285 99 192 q 21 486 21 378 m 528 118 q 674 146 607 118 q 791 223 742 174 q 868 340 840 272 q 896 486 896 407 q 868 633 896 565 q 791 749 840 700 q 674 826 742 799 q 528 854 607 854 q 381 826 449 854 q 265 749 314 799 q 188 633 215 700 q 160 486 160 565 q 188 340 160 407 q 265 223 215 272 q 381 146 314 174 q 528 118 449 118 m 528 739 q 643 713 586 739 l 643 260 q 528 233 586 233 q 427 253 474 233 q 347 306 381 272 q 294 385 314 339 q 275 486 275 432 q 294 587 275 540 q 347 667 314 633 q 427 719 381 700 q 528 739 474 739 m 528 371 q 609 404 576 371 q 642 486 642 438 q 609 568 642 535 q 528 601 576 601 q 446 568 479 601 q 413 486 413 535 q 446 404 413 438 q 528 371 479 371 z "},"®":{"ha":1056,"x_min":21,"x_max":1035,"o":"m 21 486 q 60 688 21 594 q 166 848 99 781 q 326 954 233 915 q 528 993 419 993 q 729 954 636 993 q 890 848 822 915 q 996 688 957 781 q 1035 486 1035 594 q 996 285 1035 378 q 890 124 957 192 q 729 18 822 57 q 528 -21 636 -21 q 326 18 419 -21 q 166 124 233 57 q 60 285 99 192 q 21 486 21 378 m 528 118 q 674 146 607 118 q 791 223 742 174 q 868 340 840 272 q 896 486 896 407 q 868 633 896 565 q 791 749 840 700 q 674 826 742 799 q 528 854 607 854 q 381 826 449 854 q 265 749 314 799 q 188 633 215 700 q 160 486 160 565 q 188 340 160 407 q 265 223 215 272 q 381 146 314 174 q 528 118 449 118 m 336 243 l 336 729 l 578 729 q 645 715 614 729 q 699 678 676 701 q 735 622 722 654 q 749 554 749 590 q 719 458 749 499 q 632 417 689 417 q 611 418 618 417 l 611 417 q 665 392 643 411 q 705 349 688 374 q 736 295 722 324 q 764 243 750 267 l 604 243 l 524 382 l 475 382 l 475 243 l 336 243 m 578 515 q 608 528 596 515 q 619 558 619 540 q 608 589 619 576 q 578 601 596 601 l 460 601 l 460 515 l 578 515 z "},"*":{"ha":713,"x_min":69,"x_max":643,"o":"m 113 849 l 293 783 l 288 972 l 426 972 l 421 785 l 600 850 l 643 717 l 460 664 l 581 507 l 468 426 l 357 589 l 246 426 l 133 507 l 253 663 l 69 717 l 113 849 z "},"$":{"ha":618,"x_min":49,"x_max":576,"o":"m 49 378 q 76 298 54 335 q 130 235 97 261 q 203 194 163 208 q 286 179 243 179 q 338 186 311 179 q 386 206 364 193 q 423 240 408 219 q 438 290 438 261 q 409 355 438 329 q 337 402 381 381 q 243 446 293 424 q 149 499 193 468 q 77 573 106 529 q 49 681 49 617 q 103 833 49 769 q 240 919 157 896 l 240 1011 l 379 1011 l 379 929 q 543 861 471 917 l 543 606 q 477 741 533 689 q 338 793 421 793 q 288 787 314 793 q 239 767 261 781 q 202 733 217 753 q 188 683 188 713 q 216 617 188 644 q 288 567 244 590 q 382 519 332 543 q 476 465 432 496 q 548 390 519 433 q 576 286 576 347 q 519 136 576 197 q 379 53 463 75 l 379 -44 l 240 -44 l 240 43 q 139 71 188 50 q 49 124 90 92 l 49 378 z "},"º":{"ha":556,"x_min":69,"x_max":486,"o":"m 278 986 q 360 970 322 986 q 426 926 399 954 q 470 860 454 899 q 486 778 486 822 q 470 695 486 733 q 426 629 454 657 q 360 585 399 601 q 278 569 322 569 q 195 585 233 569 q 129 629 157 601 q 85 695 101 657 q 69 778 69 733 q 85 860 69 822 q 129 926 101 899 q 195 970 157 954 q 278 986 233 986 m 278 696 q 337 719 314 696 q 360 778 360 742 q 337 837 360 814 q 278 860 314 860 q 219 837 242 860 q 196 778 196 814 q 219 719 196 742 q 278 696 242 696 z "},"ª":{"ha":583,"x_min":69,"x_max":514,"o":"m 69 778 q 117 926 69 867 q 238 986 165 986 q 317 962 282 986 q 375 896 353 938 l 375 972 l 514 972 l 514 583 l 375 583 l 375 660 q 317 594 353 618 q 238 569 282 569 q 117 629 165 569 q 69 778 69 689 m 208 778 q 230 728 208 747 q 285 708 251 708 q 340 728 318 708 q 361 778 361 747 q 340 828 361 808 q 285 847 318 847 q 230 828 251 847 q 208 778 208 808 z "},"¹":{"ha":471,"x_min":69,"x_max":417,"o":"m 69 625 l 174 625 l 174 646 q 178 710 174 675 q 191 781 183 746 q 209 851 199 817 q 232 911 219 885 l 228 913 q 198 856 215 886 q 160 795 181 825 q 116 738 139 765 q 71 690 93 711 l 69 689 l 69 878 l 174 972 l 313 972 l 313 625 l 417 625 l 417 486 l 69 486 l 69 625 z "},"²":{"ha":496,"x_min":69,"x_max":426,"o":"m 417 486 l 69 486 l 69 760 q 115 765 81 761 q 189 777 150 769 q 258 797 228 785 q 288 826 288 810 q 267 844 288 840 q 238 849 246 849 q 149 830 197 849 q 69 788 101 811 l 69 957 q 142 980 104 972 q 217 988 179 988 q 290 979 253 988 q 358 952 328 971 q 408 904 389 933 q 426 832 426 875 q 387 734 426 772 q 292 673 347 696 q 175 640 236 650 q 69 625 114 629 l 417 625 l 417 486 z "},"³":{"ha":499,"x_min":69,"x_max":429,"o":"m 69 847 l 69 972 l 417 972 l 417 735 q 344 724 381 728 q 272 721 308 721 q 249 721 261 721 q 225 722 236 721 l 224 718 q 288 712 253 715 q 355 697 324 708 q 408 664 386 686 q 429 601 429 642 q 385 516 429 546 q 292 486 342 486 l 69 486 l 69 611 l 290 611 q 309 619 301 611 q 317 638 317 626 q 309 656 317 649 q 290 663 301 663 l 69 663 l 69 794 l 417 847 l 69 847 z "},"|":{"ha":278,"x_min":69,"x_max":208,"o":"m 69 1111 l 208 1111 l 208 -139 l 69 -139 l 69 1111 z "},"#":{"ha":944,"x_min":56,"x_max":889,"o":"m 56 590 l 56 729 l 229 729 l 229 972 l 368 972 l 368 729 l 576 729 l 576 972 l 715 972 l 715 729 l 889 729 l 889 590 l 715 590 l 715 382 l 889 382 l 889 243 l 715 243 l 715 0 l 576 0 l 576 243 l 368 243 l 368 0 l 229 0 l 229 243 l 56 243 l 56 382 l 229 382 l 229 590 l 56 590 m 368 590 l 368 382 l 576 382 l 576 590 l 368 590 z "},"%":{"ha":976,"x_min":56,"x_max":921,"o":"m 750 972 l 921 972 l 226 0 l 56 0 l 750 972 m 485 193 q 501 276 485 238 q 544 342 517 314 q 610 385 572 369 q 693 401 649 401 q 776 385 738 401 q 842 342 814 369 q 885 276 869 314 q 901 193 901 238 q 885 110 901 149 q 842 44 869 72 q 776 1 814 17 q 693 -15 738 -15 q 610 1 649 -15 q 544 44 572 17 q 501 110 517 72 q 485 193 485 149 m 288 986 q 370 970 332 986 q 436 926 408 954 q 480 860 464 899 q 496 778 496 822 q 480 695 496 733 q 436 629 464 657 q 370 585 408 601 q 288 569 332 569 q 205 585 243 569 q 139 629 167 601 q 95 695 111 657 q 79 778 79 733 q 95 860 79 822 q 139 926 111 899 q 205 970 167 954 q 288 986 243 986 m 611 193 q 634 134 611 157 q 693 111 657 111 q 752 134 729 111 q 775 193 775 157 q 752 252 775 229 q 693 275 729 275 q 634 252 657 275 q 611 193 611 229 m 206 778 q 228 719 206 742 q 288 696 251 696 q 347 719 324 696 q 369 778 369 742 q 347 837 369 814 q 288 860 324 860 q 228 837 251 860 q 206 778 206 814 z "},"€":{"ha":938,"x_min":21,"x_max":882,"o":"m 21 486 q 60 688 21 594 q 166 848 99 781 q 326 954 233 915 q 528 993 419 993 q 718 959 626 993 q 882 856 810 925 l 882 590 q 831 700 865 651 q 751 783 797 749 q 647 835 704 817 q 528 854 590 854 q 336 804 424 854 q 201 661 249 754 l 639 661 l 639 522 l 161 522 q 160 504 160 513 q 160 486 160 496 q 160 469 160 478 q 161 453 160 461 l 639 453 l 639 314 l 200 314 q 335 169 247 219 q 528 118 424 118 q 647 137 590 118 q 751 190 704 156 q 831 273 797 224 q 882 382 865 322 l 882 117 q 718 13 810 47 q 528 -21 626 -21 q 326 18 419 -21 q 166 124 233 57 q 60 285 99 192 q 21 486 21 378 z "},"¥":{"ha":556,"x_min":0,"x_max":556,"o":"m 143 972 q 194 793 169 879 q 236 623 218 707 q 265 451 254 539 q 276 267 276 364 l 281 267 q 291 451 281 364 q 319 624 301 539 q 362 794 338 708 q 413 972 386 879 l 556 972 l 410 486 l 529 486 l 529 347 l 368 347 l 347 278 l 529 278 l 529 139 l 347 139 l 347 0 l 208 0 l 208 139 l 26 139 l 26 278 l 208 278 l 188 347 l 26 347 l 26 486 l 146 486 l 0 972 l 143 972 z "},"£":{"ha":610,"x_min":14,"x_max":540,"o":"m 14 556 l 124 556 l 124 710 q 144 819 124 768 q 202 910 165 871 q 290 971 239 949 q 400 993 340 993 q 472 984 436 993 q 540 956 508 975 l 540 711 q 501 813 540 771 q 401 854 463 854 q 301 813 340 854 q 263 711 263 771 l 263 556 l 540 556 l 540 417 l 263 417 l 263 139 l 540 139 l 540 0 l 124 0 l 124 417 l 14 417 l 14 556 z "},"¢":{"ha":821,"x_min":21,"x_max":765,"o":"m 21 418 q 47 573 21 500 q 121 703 74 646 q 235 799 168 760 q 383 850 303 838 l 383 972 l 522 972 l 522 851 q 653 813 590 842 q 765 738 715 785 l 765 421 q 742 539 765 485 q 677 633 718 593 q 581 697 636 674 q 463 719 526 719 q 343 697 399 719 q 247 633 288 674 q 182 538 206 593 q 158 418 158 483 q 182 298 158 353 q 246 203 206 243 q 342 140 286 163 q 463 117 399 117 q 581 140 525 117 q 676 202 636 163 q 741 296 717 242 q 765 414 765 350 l 765 99 q 653 22 715 50 q 522 -17 590 -7 l 522 -139 l 383 -139 l 383 -15 q 235 38 303 -1 q 121 133 168 76 q 47 263 74 190 q 21 418 21 336 z "},"@":{"ha":1042,"x_min":21,"x_max":1021,"o":"m 21 489 q 60 689 21 597 q 169 847 100 781 q 331 951 238 914 q 533 989 425 989 q 728 953 639 989 q 883 855 818 918 q 984 705 947 792 q 1021 515 1021 618 q 1006 395 1021 453 q 964 290 992 338 l 783 292 q 856 383 831 326 q 882 515 882 440 q 856 651 882 589 q 785 757 831 713 q 675 826 739 801 q 533 850 611 850 q 385 824 454 850 q 267 749 317 797 q 188 635 217 701 q 160 490 160 569 q 188 346 160 413 q 263 231 215 279 q 376 154 311 182 q 518 126 442 126 q 557 128 539 126 q 594 132 575 129 l 594 -7 q 557 -11 575 -10 q 522 -12 539 -12 q 324 26 415 -12 q 165 131 232 64 q 59 290 97 199 q 21 489 21 382 m 290 485 q 301 559 290 522 q 333 626 311 596 q 385 674 354 656 q 458 693 417 693 q 540 657 504 693 q 596 554 575 621 l 596 679 l 735 679 l 735 292 l 603 292 l 603 417 q 546 315 583 353 q 458 276 508 276 q 385 295 417 276 q 333 344 354 314 q 301 410 311 374 q 290 485 290 447 m 415 485 q 442 424 415 446 q 504 403 468 403 q 566 424 539 403 q 593 485 593 446 q 566 545 593 524 q 504 567 539 567 q 442 545 468 567 q 415 485 415 524 z "},"<":{"ha":481,"x_min":14,"x_max":411,"o":"m 14 486 l 314 794 l 411 697 l 206 486 l 411 275 l 314 178 l 14 486 z "},">":{"ha":457,"x_min":46,"x_max":443,"o":"m 46 697 l 143 794 l 443 486 l 143 178 l 46 275 l 251 486 l 46 697 z "},"\"":{"ha":500,"x_min":69,"x_max":431,"o":"m 292 972 l 431 972 l 431 639 l 292 639 l 292 972 m 69 972 l 208 972 l 208 639 l 69 639 l 69 972 z "},"'":{"ha":278,"x_min":69,"x_max":208,"o":"m 208 972 l 208 639 l 69 639 l 69 972 l 208 972 z "},"/":{"ha":604,"x_min":-56,"x_max":660,"o":"m 500 972 l 660 972 l 104 0 l -56 0 l 500 972 z "},"\\":{"ha":604,"x_min":-56,"x_max":660,"o":"m 660 0 l 500 0 l -56 972 l 104 972 l 660 0 z "},"^":{"ha":517,"x_min":14,"x_max":503,"o":"m 258 1001 l 503 647 l 336 647 l 258 768 l 181 647 l 14 647 l 258 1001 z "},"´":{"ha":483,"x_min":69,"x_max":414,"o":"m 414 1092 l 158 875 l 69 964 l 306 1200 l 414 1092 z "},"¯":{"ha":556,"x_min":69,"x_max":486,"o":"m 69 1153 l 486 1153 l 486 1014 l 69 1014 l 69 1153 z "},"`":{"ha":456,"x_min":56,"x_max":400,"o":"m 56 1231 l 164 1339 l 400 1103 l 311 1014 l 56 1231 z "},"¨":{"ha":597,"x_min":56,"x_max":542,"o":"m 403 1153 l 542 1153 l 542 1014 l 403 1014 l 403 1153 m 56 1153 l 194 1153 l 194 1014 l 56 1014 l 56 1153 z "},"ˆ":{"ha":656,"x_min":56,"x_max":600,"o":"m 56 1014 l 158 1153 l 497 1153 l 600 1014 l 419 1014 l 328 1153 l 236 1014 l 56 1014 z "},"ˇ":{"ha":656,"x_min":56,"x_max":600,"o":"m 158 1014 l 56 1153 l 236 1153 l 328 1014 l 419 1153 l 600 1153 l 497 1014 l 158 1014 z "},"˝":{"ha":733,"x_min":56,"x_max":678,"o":"m 678 1231 l 422 1014 l 333 1103 l 569 1339 l 678 1231 m 400 1231 l 144 1014 l 56 1103 l 292 1339 l 400 1231 z "},"˚":{"ha":528,"x_min":56,"x_max":472,"o":"m 264 1429 q 347 1413 308 1429 q 413 1369 385 1397 q 456 1303 440 1342 q 472 1221 472 1265 q 456 1138 472 1176 q 413 1072 440 1100 q 347 1028 385 1044 q 264 1013 308 1013 q 181 1028 219 1013 q 115 1072 143 1044 q 72 1138 88 1100 q 56 1221 56 1176 q 72 1303 56 1265 q 115 1369 88 1342 q 181 1413 143 1397 q 264 1429 219 1429 m 264 1139 q 323 1162 300 1139 q 346 1221 346 1185 q 323 1280 346 1257 q 264 1303 300 1303 q 205 1280 228 1303 q 182 1221 182 1257 q 205 1162 182 1185 q 264 1139 228 1139 z "},"˙":{"ha":278,"x_min":56,"x_max":222,"o":"m 56 1153 l 222 1153 l 222 1014 l 56 1014 l 56 1153 z "},"˛":{"ha":399,"x_min":56,"x_max":343,"o":"m 343 -347 l 56 -347 l 56 -37 l 203 99 l 301 0 l 56 -226 l 343 -226 l 343 -347 z "},"¸":{"ha":426,"x_min":69,"x_max":357,"o":"m 69 -240 l 357 -240 l 150 -168 l 150 0 l 278 0 l 278 -85 l 357 -111 l 357 -361 l 69 -361 l 69 -240 z "},"Ç":{"ha":938,"x_min":21,"x_max":882,"o":"m 443 -14 q 271 45 349 1 q 138 156 193 89 q 51 307 82 222 q 21 486 21 392 q 60 688 21 594 q 166 848 99 781 q 326 954 233 915 q 528 993 419 993 q 718 959 626 993 q 882 856 810 925 l 882 590 q 831 700 865 651 q 751 783 797 749 q 647 835 704 817 q 528 854 590 854 q 381 826 449 854 q 265 749 314 799 q 188 633 215 700 q 160 486 160 565 q 188 340 160 407 q 265 223 215 272 q 381 146 314 174 q 528 118 449 118 q 647 137 590 118 q 751 190 704 156 q 831 273 797 224 q 882 382 865 322 l 882 117 q 739 22 819 56 q 571 -19 658 -12 l 571 -85 l 650 -111 l 650 -361 l 363 -361 l 363 -240 l 650 -240 l 443 -168 l 443 -14 z "},"·":{"ha":306,"x_min":69,"x_max":236,"o":"m 69 556 l 236 556 l 236 417 l 69 417 l 69 556 z "},"˘":{"ha":528,"x_min":56,"x_max":472,"o":"m 56 1222 l 181 1222 q 204 1163 181 1186 q 264 1139 228 1139 q 324 1163 300 1139 q 347 1222 347 1186 l 472 1222 q 456 1140 472 1178 q 413 1074 440 1101 q 347 1030 385 1046 q 264 1014 308 1014 q 181 1030 219 1014 q 115 1074 143 1046 q 72 1140 88 1101 q 56 1222 56 1178 z "},"˜":{"ha":528,"x_min":56,"x_max":472,"o":"m 56 1014 l 56 1167 q 109 1193 83 1186 q 160 1200 135 1200 q 211 1194 186 1200 q 261 1181 236 1189 q 310 1168 286 1174 q 360 1163 335 1163 q 415 1172 388 1163 q 472 1208 443 1182 l 472 1056 q 419 1031 444 1038 q 369 1024 394 1024 q 269 1042 318 1024 q 169 1061 219 1061 q 114 1051 142 1061 q 56 1014 86 1042 z "},"Æ":{"ha":976,"x_min":0,"x_max":921,"o":"m 0 0 l 278 972 l 921 972 l 921 833 l 561 833 l 561 556 l 921 556 l 921 417 l 561 417 l 561 139 l 921 139 l 921 0 l 422 0 l 422 972 l 144 0 l 0 0 z "},"Ð":{"ha":1007,"x_min":0,"x_max":986,"o":"m 97 556 l 97 972 l 508 972 q 697 934 610 972 q 848 830 783 896 q 949 675 913 764 q 986 483 986 586 q 949 292 986 381 q 848 139 913 204 q 697 37 783 74 q 508 0 610 0 l 97 0 l 97 417 l 0 417 l 0 556 l 97 556 m 236 139 l 510 139 q 644 165 582 139 q 751 236 706 190 q 822 345 796 282 q 847 483 847 408 q 822 621 847 557 q 751 732 796 685 q 644 806 706 779 q 510 833 582 833 l 236 833 l 236 556 l 417 556 l 417 417 l 236 417 l 236 139 z "},"Đ":{"ha":1007,"x_min":0,"x_max":986,"o":"m 97 556 l 97 972 l 508 972 q 697 934 610 972 q 848 830 783 896 q 949 675 913 764 q 986 483 986 586 q 949 292 986 381 q 848 139 913 204 q 697 37 783 74 q 508 0 610 0 l 97 0 l 97 417 l 0 417 l 0 556 l 97 556 m 236 139 l 510 139 q 644 165 582 139 q 751 236 706 190 q 822 345 796 282 q 847 483 847 408 q 822 621 847 557 q 751 732 796 685 q 644 806 706 779 q 510 833 582 833 l 236 833 l 236 556 l 417 556 l 417 417 l 236 417 l 236 139 z "},"Ł":{"ha":610,"x_min":0,"x_max":610,"o":"m 0 276 l 0 443 l 111 515 l 111 972 l 250 972 l 250 608 l 417 721 l 417 554 l 250 442 l 250 139 l 610 139 l 610 0 l 111 0 l 111 349 l 0 276 z "},"Ø":{"ha":1056,"x_min":21,"x_max":1038,"o":"m 21 0 l 146 146 q 52 304 83 217 q 21 486 21 392 q 60 688 21 594 q 166 848 99 781 q 326 954 233 915 q 528 993 419 993 q 672 974 601 993 q 806 915 743 956 l 854 972 l 1038 972 l 911 825 q 1004 667 974 754 q 1035 486 1035 579 q 996 285 1035 378 q 890 124 957 192 q 729 18 822 57 q 528 -21 636 -21 q 384 -2 454 -21 q 251 56 314 17 l 204 0 l 21 0 m 160 486 q 179 363 160 424 q 239 254 199 303 l 713 807 q 624 842 671 831 q 528 854 576 854 q 381 826 449 854 q 265 749 314 799 q 188 633 215 700 q 160 486 160 565 m 344 164 q 528 118 431 118 q 674 146 607 118 q 791 223 742 174 q 868 340 840 272 q 896 486 896 407 q 877 608 896 549 q 818 717 858 668 l 344 164 z "},"Œ":{"ha":1199,"x_min":21,"x_max":1143,"o":"m 507 972 l 1143 972 l 1143 833 l 783 833 l 783 556 l 1143 556 l 1143 417 l 783 417 l 783 139 l 1143 139 l 1143 0 l 507 0 q 314 37 403 0 q 160 139 225 74 q 58 293 94 204 q 21 486 21 382 q 58 679 21 590 q 160 833 94 768 q 314 935 225 899 q 507 972 403 972 m 507 138 l 507 139 l 644 139 l 644 833 l 507 833 q 369 807 432 833 q 259 734 306 781 q 186 624 213 688 q 160 486 160 560 q 186 348 160 411 q 259 238 213 285 q 369 164 306 190 q 507 138 432 138 z "},"−":{"ha":694,"x_min":69,"x_max":625,"o":"m 69 554 l 625 554 l 625 415 l 69 415 l 69 554 z "},"¬":{"ha":694,"x_min":69,"x_max":625,"o":"m 69 554 l 625 554 l 625 232 l 486 232 l 486 415 l 69 415 l 69 554 z "},"™":{"ha":1442,"x_min":42,"x_max":1372,"o":"m 528 972 l 811 972 l 950 486 l 1089 972 l 1372 972 l 1372 486 l 1233 486 l 1233 972 l 1094 486 l 806 486 l 667 972 l 667 486 l 528 486 l 528 972 m 42 833 l 42 972 l 458 972 l 458 833 l 408 833 q 327 851 368 833 q 258 897 286 869 l 256 894 q 301 826 283 867 q 319 744 319 785 l 319 486 l 181 486 l 181 744 q 199 826 181 785 q 244 894 217 867 l 242 897 q 173 851 214 869 q 92 833 132 833 l 42 833 z "},"¤":{"ha":638,"x_min":42,"x_max":596,"o":"m 131 396 q 115 440 119 417 q 111 486 111 463 q 131 575 111 532 l 46 660 l 144 758 l 228 675 q 319 694 274 694 q 366 690 343 694 q 410 675 389 686 l 497 763 l 596 664 l 508 576 q 524 533 519 556 q 528 486 528 510 q 508 394 528 440 l 592 311 l 493 213 l 408 297 q 319 278 365 278 q 273 282 296 278 q 229 297 250 286 l 140 208 l 42 307 l 131 396 m 315 390 q 386 417 357 390 q 415 486 415 443 q 388 554 415 526 q 319 582 360 582 q 252 556 281 582 q 224 489 224 529 q 249 420 224 450 q 315 390 275 390 z "},"ƒ":{"ha":611,"x_min":-153,"x_max":542,"o":"m -14 -144 q 86 -103 47 -144 q 125 -1 125 -61 l 125 417 l 15 417 l 15 556 l 125 556 l 125 710 q 146 819 125 768 q 203 910 167 871 q 291 971 240 949 q 401 993 342 993 q 474 984 438 993 q 542 956 510 975 l 542 711 q 503 813 542 771 q 403 854 464 854 q 303 813 342 854 q 264 711 264 771 l 264 556 l 542 556 l 542 417 l 264 417 l 264 0 q 243 -110 264 -58 q 185 -200 222 -161 q 98 -261 149 -239 q -12 -283 47 -283 q -85 -274 -49 -283 q -153 -246 -121 -265 l -153 -1 q -114 -103 -153 -61 q -14 -144 -75 -144 z "},"±":{"ha":694,"x_min":69,"x_max":625,"o":"m 278 694 l 278 904 l 417 904 l 417 694 l 625 694 l 625 556 l 417 556 l 417 349 l 278 349 l 278 556 l 69 556 l 69 694 l 278 694 m 69 306 l 625 306 l 625 167 l 69 167 l 69 306 z "},"÷":{"ha":694,"x_min":69,"x_max":625,"o":"m 625 556 l 625 417 l 69 417 l 69 556 l 625 556 m 264 778 l 431 778 l 431 639 l 264 639 l 264 778 m 264 333 l 431 333 l 431 194 l 264 194 l 264 333 z "},"¦":{"ha":278,"x_min":69,"x_max":208,"o":"m 69 347 l 208 347 l 208 -139 l 69 -139 l 69 347 m 69 625 l 69 1111 l 208 1111 l 208 625 l 69 625 z "},"µ":{"ha":667,"x_min":56,"x_max":611,"o":"m 194 833 l 194 261 q 234 158 194 199 q 333 118 274 118 q 433 158 393 118 q 472 261 472 199 l 472 833 l 611 833 l 611 0 l 472 0 l 472 207 q 434 35 472 92 q 333 -21 396 -21 q 233 35 271 -21 q 194 207 194 92 l 194 -347 l 56 -347 l 56 833 l 194 833 z "},"μ":{"ha":667,"x_min":56,"x_max":611,"o":"m 194 833 l 194 261 q 234 158 194 199 q 333 118 274 118 q 433 158 393 118 q 472 261 472 199 l 472 833 l 611 833 l 611 0 l 472 0 l 472 207 q 434 35 472 92 q 333 -21 396 -21 q 233 35 271 -21 q 194 207 194 92 l 194 -347 l 56 -347 l 56 833 l 194 833 z "},"†":{"ha":514,"x_min":1,"x_max":514,"o":"m 188 694 l 188 972 l 326 972 l 326 694 l 514 694 l 514 556 l 326 556 l 326 -278 l 188 -278 l 188 556 l 1 556 l 1 694 l 188 694 z "},"‡":{"ha":514,"x_min":1,"x_max":514,"o":"m 1 139 l 188 139 l 188 556 l 1 556 l 1 694 l 188 694 l 188 972 l 326 972 l 326 694 l 514 694 l 514 556 l 326 556 l 326 139 l 514 139 l 514 0 l 326 0 l 326 -278 l 188 -278 l 188 0 l 1 0 l 1 139 z "},"~":{"ha":667,"x_min":56,"x_max":611,"o":"m 56 388 l 56 551 q 113 579 82 571 q 176 588 144 588 q 250 577 214 588 q 322 555 286 567 q 393 533 357 543 q 467 522 429 522 q 544 538 508 522 q 611 582 581 554 l 611 429 q 545 396 579 408 q 474 383 511 383 q 401 394 436 383 q 330 416 365 404 q 259 438 294 428 q 186 449 224 449 q 56 388 106 449 z "},"¶":{"ha":708,"x_min":14,"x_max":639,"o":"m 222 972 l 639 972 l 639 -347 l 500 -347 l 500 833 l 361 833 l 361 -347 l 222 -347 l 222 556 q 73 615 132 556 q 14 764 14 674 q 73 913 14 854 q 222 972 132 972 z "},"⁰":{"ha":528,"x_min":56,"x_max":472,"o":"m 264 986 q 347 970 308 986 q 413 926 385 954 q 456 860 440 899 q 472 778 472 822 l 472 681 q 456 598 472 636 q 413 532 440 560 q 347 488 385 504 q 264 472 308 472 q 181 488 219 472 q 115 532 143 504 q 72 598 88 560 q 56 681 56 636 l 56 778 q 72 860 56 822 q 115 926 88 899 q 181 970 143 954 q 264 986 219 986 m 264 597 q 324 619 300 597 q 347 675 347 642 l 347 783 q 324 839 347 817 q 264 861 300 861 q 204 839 228 861 q 181 783 181 817 l 181 675 q 204 619 181 642 q 264 597 228 597 z "},"⁴":{"ha":517,"x_min":42,"x_max":447,"o":"m 42 894 l 115 972 l 447 972 l 447 486 l 308 486 l 308 556 l 42 556 l 42 894 m 308 694 l 308 972 l 42 694 l 308 694 z "},"¼":{"ha":1113,"x_min":69,"x_max":1051,"o":"m 913 69 l 646 69 l 646 408 l 719 486 l 1051 486 l 1051 0 l 913 0 l 913 69 m 183 0 l 739 972 l 899 972 l 343 0 l 183 0 m 69 625 l 174 625 q 188 772 174 699 q 232 911 203 844 l 228 913 q 159 794 200 849 q 69 689 118 739 l 69 878 l 174 972 l 313 972 l 313 625 l 417 625 l 417 486 l 69 486 l 69 625 m 646 208 l 913 208 l 913 486 l 646 208 z "},"¾":{"ha":1121,"x_min":69,"x_max":1051,"o":"m 913 69 l 646 69 l 646 408 l 719 486 l 1051 486 l 1051 0 l 913 0 l 913 69 m 183 0 l 739 972 l 899 972 l 343 0 l 183 0 m 292 486 l 69 486 l 69 611 l 290 611 q 309 619 301 611 q 317 638 317 626 q 309 656 317 649 q 290 663 301 663 l 69 663 l 69 794 l 417 847 l 69 847 l 69 972 l 417 972 l 417 735 q 344 724 381 728 q 272 721 308 721 q 249 721 261 721 q 225 722 236 721 l 224 718 q 288 712 253 715 q 355 697 324 708 q 408 664 386 686 q 429 601 429 642 q 385 516 429 546 q 292 486 342 486 m 913 208 l 913 486 l 646 208 l 913 208 z "},"½":{"ha":1100,"x_min":69,"x_max":1031,"o":"m 739 972 l 899 972 l 343 0 l 183 0 l 739 972 m 674 274 q 719 279 685 275 q 793 291 754 283 q 862 311 832 299 q 892 340 892 324 q 871 358 892 354 q 842 363 850 363 q 753 344 801 363 q 674 301 706 325 l 674 471 q 746 494 708 486 q 821 501 783 501 q 894 493 857 501 q 963 466 932 485 q 1012 418 993 447 q 1031 346 1031 389 q 991 248 1031 286 q 896 187 951 210 q 779 153 840 164 q 674 139 718 143 l 1021 139 l 1021 0 l 674 0 l 674 274 m 69 689 l 69 878 l 174 972 l 313 972 l 313 625 l 417 625 l 417 486 l 69 486 l 69 625 l 174 625 q 188 772 174 699 q 232 911 203 844 l 228 913 q 159 794 200 849 q 69 689 118 739 z "},"‰":{"ha":1389,"x_min":56,"x_max":1361,"o":"m 56 0 l 750 972 l 921 972 l 226 0 l 56 0 m 693 401 q 776 385 738 401 q 842 342 814 369 q 885 276 869 314 q 901 193 901 238 q 885 110 901 149 q 842 44 869 72 q 776 1 814 17 q 693 -15 738 -15 q 610 1 649 -15 q 544 44 572 17 q 501 110 517 72 q 485 193 485 149 q 501 276 485 238 q 544 342 517 314 q 610 385 572 369 q 693 401 649 401 m 944 193 q 960 276 944 238 q 1004 342 976 314 q 1070 385 1032 369 q 1153 401 1108 401 q 1235 385 1197 401 q 1301 342 1274 369 q 1345 276 1329 314 q 1361 193 1361 238 q 1345 110 1361 149 q 1301 44 1329 72 q 1235 1 1274 17 q 1153 -15 1197 -15 q 1070 1 1108 -15 q 1004 44 1032 17 q 960 110 976 72 q 944 193 944 149 m 79 778 q 95 860 79 822 q 139 926 111 899 q 205 970 167 954 q 288 986 243 986 q 370 970 332 986 q 436 926 408 954 q 480 860 464 899 q 496 778 496 822 q 480 695 496 733 q 436 629 464 657 q 370 585 408 601 q 288 569 332 569 q 205 585 243 569 q 139 629 167 601 q 95 695 111 657 q 79 778 79 733 m 206 778 q 228 719 206 742 q 288 696 251 696 q 347 719 324 696 q 369 778 369 742 q 347 837 369 814 q 288 860 324 860 q 228 837 251 860 q 206 778 206 814 m 693 111 q 752 134 729 111 q 775 193 775 157 q 752 252 775 229 q 693 275 729 275 q 634 252 657 275 q 611 193 611 229 q 634 134 611 157 q 693 111 657 111 m 1071 193 q 1094 134 1071 157 q 1153 111 1117 111 q 1212 134 1189 111 q 1235 193 1235 157 q 1212 252 1235 229 q 1153 275 1189 275 q 1094 252 1117 275 q 1071 193 1071 229 z "},"Þ":{"ha":875,"x_min":69,"x_max":861,"o":"m 208 972 l 208 778 l 578 778 q 690 756 638 778 q 780 698 742 735 q 840 610 818 661 q 861 501 861 560 q 840 392 861 443 q 780 303 818 340 q 690 244 742 265 q 578 222 638 222 l 208 222 l 208 0 l 69 0 l 69 972 l 208 972 m 579 361 q 682 401 642 361 q 722 500 722 440 q 682 599 722 560 q 579 639 642 639 l 208 639 l 208 361 l 579 361 z "},"þ":{"ha":875,"x_min":69,"x_max":861,"o":"m 208 972 l 208 778 l 578 778 q 688 757 636 778 q 778 699 739 736 q 839 612 817 663 q 861 501 861 561 q 839 391 861 442 q 778 303 817 340 q 688 244 740 265 q 578 222 636 222 l 208 222 l 208 0 l 69 0 l 69 972 l 208 972 m 579 361 q 681 400 639 361 q 722 500 722 439 q 681 600 722 561 q 579 639 639 639 l 208 639 l 208 361 l 579 361 z "},"ß":{"ha":699,"x_min":69,"x_max":650,"o":"m 69 0 l 69 704 q 91 817 69 764 q 151 908 113 869 q 241 969 189 947 q 353 992 293 992 q 454 974 406 992 q 540 923 503 956 q 599 844 576 890 q 621 744 621 799 q 553 582 621 640 q 385 524 486 524 q 354 525 369 524 q 324 529 339 526 q 440 494 382 517 q 545 437 499 472 q 621 352 592 401 q 650 233 650 303 q 628 135 650 179 q 569 60 606 90 q 484 13 532 29 q 385 -4 436 -4 l 300 -4 l 300 135 l 342 135 q 399 138 369 135 q 454 150 429 140 q 496 179 479 160 q 513 233 513 199 q 493 293 513 267 q 445 338 474 319 q 384 369 417 357 q 324 386 351 381 l 324 668 q 381 654 350 654 q 451 678 419 654 q 482 744 482 703 q 442 824 482 796 q 356 853 401 853 q 250 810 292 853 q 208 704 208 768 l 208 0 l 69 0 z "},"œ":{"ha":1271,"x_min":21,"x_max":1319,"o":"m 21 486 q 58 679 21 590 q 160 833 94 768 q 314 935 225 899 q 507 972 403 972 l 1319 972 q 1190 923 1261 958 q 1055 838 1118 888 q 949 727 992 789 q 907 597 907 665 q 913 551 907 575 q 934 509 919 528 q 971 478 949 490 q 1026 467 993 467 q 1110 492 1075 467 q 1168 553 1146 517 q 1201 633 1190 590 q 1211 708 1211 675 l 1211 386 q 1049 329 1139 329 q 899 393 949 329 q 849 553 849 457 q 885 708 849 639 q 988 833 922 776 l 783 833 l 783 139 l 1213 139 l 1213 0 l 507 0 q 314 37 403 0 q 160 139 225 74 q 58 293 94 204 q 21 486 21 382 m 160 486 q 186 348 160 411 q 259 238 213 285 q 369 164 306 190 q 507 138 432 138 l 507 139 l 644 139 l 644 833 l 507 833 q 369 807 432 833 q 259 734 306 781 q 186 624 213 688 q 160 486 160 560 z "},"æ":{"ha":976,"x_min":0,"x_max":921,"o":"m 0 0 l 278 972 l 921 972 l 921 833 l 561 833 l 561 556 l 921 556 l 921 417 l 561 417 l 561 139 l 921 139 l 921 0 l 422 0 l 422 972 l 144 0 l 0 0 z "},"ç":{"ha":982,"x_min":21,"x_max":926,"o":"m 438 -14 q 269 45 346 1 q 138 154 193 89 q 52 304 83 219 q 21 486 21 389 q 60 688 21 594 q 166 848 99 781 q 326 954 233 915 q 528 993 419 993 q 755 944 653 993 q 926 807 857 894 l 926 165 q 770 36 863 85 q 565 -19 678 -12 l 565 -85 l 644 -111 l 644 -361 l 357 -361 l 357 -240 l 644 -240 l 438 -168 l 438 -14 m 160 486 q 188 340 160 407 q 265 223 215 272 q 381 146 314 174 q 528 118 449 118 q 674 146 607 118 q 791 223 742 174 q 868 340 840 272 q 896 486 896 407 q 868 633 896 565 q 791 749 840 700 q 674 826 742 799 q 528 854 607 854 q 381 826 449 854 q 265 749 314 799 q 188 633 215 700 q 160 486 160 565 z "},"đ":{"ha":1076,"x_min":-64,"x_max":1056,"o":"m -64 410 l 56 410 l 56 704 q 77 815 56 765 q 137 902 99 865 q 227 959 175 939 q 339 979 279 979 l 578 979 q 766 941 679 979 q 917 836 853 903 q 1019 680 982 769 q 1056 488 1056 590 q 1019 294 1056 383 q 917 140 982 206 q 766 38 853 75 q 578 0 679 0 l 56 0 l 56 368 l -64 368 l -64 410 m 579 139 q 713 165 651 139 q 820 238 775 192 q 891 347 865 283 q 917 486 917 411 q 863 683 917 597 q 719 810 808 769 l 219 139 l 579 139 m 194 700 q 234 601 194 640 q 336 563 274 563 q 480 609 404 563 q 617 736 556 656 l 682 825 q 579 840 632 840 l 338 840 q 235 801 275 840 q 194 700 194 761 m 97 368 l 97 39 l 343 368 l 97 368 m 374 410 l 550 647 q 463 554 501 592 q 392 494 425 517 q 331 461 360 471 q 272 451 301 451 q 172 479 218 451 q 97 554 126 507 l 97 410 l 374 410 z "},"ð":{"ha":1076,"x_min":-64,"x_max":1056,"o":"m -64 410 l 56 410 l 56 704 q 78 815 56 765 q 138 902 100 865 q 228 959 176 939 q 339 979 279 979 l 578 979 q 768 940 681 979 q 919 835 856 901 q 1019 678 983 768 q 1056 488 1056 589 q 1019 297 1056 386 q 919 142 983 208 q 768 38 856 76 q 578 0 681 0 l 56 0 l 56 368 l -64 368 l -64 410 m 219 139 l 579 139 q 715 166 653 139 q 822 240 778 193 q 892 350 867 286 q 917 486 917 414 q 866 677 917 589 q 719 810 815 765 l 219 139 m 336 563 q 444 588 394 563 q 537 652 494 614 q 615 737 579 690 q 682 825 651 783 q 579 840 629 840 l 338 840 q 235 801 276 840 q 194 700 194 763 q 235 600 194 638 q 336 563 275 563 m 97 368 l 97 39 l 343 368 l 97 368 m 97 410 l 374 410 l 550 647 q 494 584 525 618 q 428 521 464 550 q 353 472 393 492 q 272 451 314 451 q 171 480 217 451 q 97 554 125 508 l 97 410 z "},"ł":{"ha":624,"x_min":0,"x_max":568,"o":"m 110 371 l 110 704 q 131 814 110 763 q 188 904 151 865 q 276 965 225 943 q 386 988 326 988 q 568 921 490 988 l 568 0 l 110 0 l 110 321 l 0 247 l 0 297 l 110 371 m 249 414 l 249 139 l 526 139 l 526 532 q 526 566 526 549 q 524 600 525 583 l 249 414 m 249 464 l 519 647 q 492 758 511 708 q 442 844 474 808 q 362 901 410 881 q 249 921 314 921 l 249 464 z "},"ø":{"ha":678,"x_min":56,"x_max":622,"o":"m 56 0 l 56 715 q 78 826 56 775 q 139 913 100 876 q 229 971 178 950 q 339 992 281 992 q 449 971 397 992 q 539 913 500 950 q 600 826 578 876 q 622 715 622 775 l 622 0 l 56 0 m 581 139 l 581 567 q 477 470 542 504 q 339 436 413 436 q 201 470 265 436 q 97 567 136 504 l 97 139 l 581 139 m 194 714 q 221 631 194 671 l 428 825 q 385 847 408 840 q 338 853 361 853 q 236 814 278 853 q 194 714 194 775 m 340 575 q 442 614 400 575 q 483 714 483 653 q 458 794 483 760 l 253 601 q 294 581 272 586 q 340 575 317 575 z "},"Ą":{"ha":600,"x_min":0,"x_max":600,"o":"m 140 0 l 0 0 l 139 972 l 419 972 l 558 0 l 313 -226 l 600 -226 l 600 -347 l 313 -347 l 313 -37 l 411 53 l 279 972 l 140 0 z "},"ą":{"ha":800,"x_min":21,"x_max":819,"o":"m 63 0 q 31 66 40 31 q 21 138 21 101 q 42 244 21 197 q 94 332 63 290 q 162 414 125 374 q 230 501 199 454 q 282 602 261 547 q 303 729 303 657 q 299 785 303 751 q 288 855 294 819 q 271 922 281 890 q 250 972 261 954 l 399 972 l 778 0 l 532 -226 l 819 -226 l 819 -347 l 532 -347 l 532 -37 l 614 39 l 486 365 q 485 249 490 313 q 457 130 479 185 q 392 38 435 75 q 281 0 350 0 l 63 0 m 281 42 q 366 69 333 42 q 418 137 399 96 q 444 225 438 178 q 451 313 451 272 q 442 431 451 375 q 415 541 432 488 q 377 648 399 594 q 333 758 356 701 q 314 576 340 657 q 253 426 288 494 q 190 295 219 357 q 160 169 160 233 q 191 77 160 113 q 281 42 222 42 z "},"Ę":{"ha":624,"x_min":69,"x_max":610,"o":"m 363 0 l 69 0 l 69 972 l 568 972 l 568 833 l 208 833 l 208 556 l 568 556 l 568 417 l 208 417 l 208 139 l 568 139 l 568 0 l 322 -226 l 610 -226 l 610 -347 l 322 -347 l 322 -37 l 363 0 z "},"ę":{"ha":722,"x_min":69,"x_max":744,"o":"m 69 0 l 69 972 l 744 972 q 615 923 686 958 q 480 838 543 888 q 374 727 417 789 q 332 597 332 665 q 338 551 332 575 q 359 509 344 528 q 396 478 374 490 q 451 467 418 467 q 535 492 500 467 q 593 553 571 517 q 626 633 615 590 q 636 708 636 675 l 636 386 q 474 329 564 329 q 324 393 374 329 q 274 553 274 457 q 310 708 274 639 q 413 833 347 776 l 208 833 l 208 139 l 638 139 l 638 0 l 392 -226 l 679 -226 l 679 -347 l 392 -347 l 392 -37 l 432 0 l 69 0 z "}," ":{"ha":361,"x_min":0,"x_max":0,"o":""},"­":{"ha":556,"x_min":69,"x_max":486,"o":"m 69 556 l 486 556 l 486 417 l 69 417 l 69 556 z "},"№":{"ha":1349,"x_min":69,"x_max":1293,"o":"m 69 972 l 353 972 l 631 0 l 631 972 l 769 972 l 769 0 l 486 0 l 208 972 l 208 0 l 69 0 l 69 972 m 876 611 q 892 694 876 656 q 936 760 908 732 q 1002 803 964 788 q 1085 819 1040 819 q 1167 803 1129 819 q 1233 760 1206 788 q 1277 694 1261 732 q 1293 611 1293 656 q 1277 528 1293 567 q 1233 463 1261 490 q 1167 419 1206 435 q 1085 403 1129 403 q 1002 419 1040 403 q 936 463 964 435 q 892 528 908 490 q 876 611 876 567 m 875 178 l 875 317 l 1292 317 l 1292 178 l 875 178 m 1015 611 q 1035 561 1015 581 q 1085 542 1054 542 q 1135 561 1115 542 q 1154 611 1154 581 q 1135 661 1154 642 q 1085 681 1115 681 q 1035 661 1054 681 q 1015 611 1015 642 z "},"Ģ":{"ha":938,"x_min":21,"x_max":882,"o":"m 528 993 q 724 957 633 993 q 882 856 814 921 l 882 590 q 833 697 865 649 q 754 781 800 746 q 651 835 708 815 q 528 854 593 854 q 381 826 449 854 q 265 749 314 799 q 188 633 215 700 q 160 486 160 565 q 188 340 160 407 q 265 223 215 272 q 381 146 314 174 q 528 118 449 118 q 739 181 649 118 q 869 346 829 243 l 389 346 l 389 485 l 882 485 l 882 117 q 724 15 814 51 q 528 -21 633 -21 q 326 18 419 -21 q 166 124 233 57 q 60 285 99 192 q 21 486 21 378 q 60 688 21 594 q 166 848 99 781 q 326 954 233 915 q 528 993 419 993 m 592 -74 l 564 -347 l 439 -347 l 439 -74 l 592 -74 z "},"ģ":{"ha":989,"x_min":21,"x_max":926,"o":"m 21 469 q 58 675 21 579 q 161 842 94 771 q 321 953 228 913 q 526 993 414 993 q 749 944 644 993 q 926 801 853 896 l 926 0 l 788 0 l 788 465 l 315 465 q 440 454 375 465 q 558 415 504 443 q 646 338 611 386 q 681 217 681 290 q 660 118 681 161 q 605 46 640 75 q 524 2 569 17 q 425 -12 478 -12 q 252 30 328 -12 q 125 140 176 72 q 47 295 74 208 q 21 469 21 382 m 892 507 q 858 647 888 583 q 778 757 828 711 q 663 828 729 803 q 521 854 597 854 q 381 828 444 854 q 269 756 317 803 q 194 646 222 710 q 161 507 167 582 l 892 507 m 161 465 q 176 351 161 411 q 222 242 192 292 q 299 159 253 192 q 410 126 346 126 q 511 160 467 126 q 556 254 556 193 q 525 348 556 308 q 449 413 494 388 q 352 452 404 439 q 256 465 300 465 l 161 465 m 411 -347 l 411 -74 l 564 -74 l 536 -347 l 411 -347 z "},"Į":{"ha":319,"x_min":0,"x_max":288,"o":"m 0 -37 l 107 61 l 107 972 l 246 972 l 246 0 l 0 -226 l 288 -226 l 288 -347 l 0 -347 l 0 -37 z "},"į":{"ha":739,"x_min":56,"x_max":739,"o":"m 56 925 q 133 974 92 957 q 224 992 175 992 q 322 970 276 992 q 400 910 367 949 q 453 820 433 872 q 472 708 472 768 l 472 139 l 739 139 l 739 0 l 404 0 l 263 -131 l 550 -131 l 550 -251 l 263 -251 l 263 0 l 56 0 l 56 925 m 333 139 l 333 933 q 156 836 214 933 q 97 536 97 739 l 97 139 l 333 139 z "},"İ":{"ha":278,"x_min":56,"x_max":222,"o":"m 69 972 l 208 972 l 208 0 l 69 0 l 69 972 m 56 1153 l 222 1153 l 222 1014 l 56 1014 l 56 1153 z "},"Ħ":{"ha":1040,"x_min":0,"x_max":1040,"o":"m 75 829 l 75 972 l 214 972 l 214 829 l 825 829 l 825 972 l 964 972 l 964 829 l 1040 829 l 1040 690 l 964 690 l 964 0 l 825 0 l 825 417 l 214 417 l 214 0 l 75 0 l 75 690 l 0 690 l 0 829 l 75 829 m 214 690 l 214 556 l 825 556 l 825 690 l 214 690 z "},"Ľ":{"ha":568,"x_min":69,"x_max":568,"o":"m 208 972 l 208 139 l 568 139 l 568 0 l 69 0 l 69 972 l 208 972 m 485 972 l 457 639 l 332 639 l 332 972 l 485 972 z "},"ľ":{"ha":743,"x_min":69,"x_max":743,"o":"m 69 0 l 69 704 q 91 816 69 764 q 149 906 113 868 q 237 966 186 944 q 346 988 288 988 q 445 970 399 988 q 528 921 492 953 l 528 0 l 69 0 m 208 139 l 486 139 l 486 532 q 417 828 486 735 q 208 921 349 921 l 208 139 m 590 639 l 590 972 l 743 972 l 715 639 l 590 639 z "},"Ŀ":{"ha":568,"x_min":69,"x_max":568,"o":"m 69 0 l 69 972 l 208 972 l 208 139 l 568 139 l 568 0 l 69 0 m 333 625 l 500 625 l 500 486 l 333 486 l 333 625 z "},"ŀ":{"ha":708,"x_min":69,"x_max":736,"o":"m 69 0 l 69 704 q 91 816 69 764 q 149 906 113 868 q 237 966 186 944 q 346 988 288 988 q 445 970 399 988 q 528 921 492 953 l 528 0 l 69 0 m 208 139 l 486 139 l 486 532 q 417 828 486 735 q 208 921 349 921 l 208 139 m 569 486 l 569 625 l 736 625 l 736 486 l 569 486 z "},"Ş":{"ha":646,"x_min":49,"x_max":604,"o":"m 49 707 q 72 824 49 772 q 137 912 96 875 q 233 968 178 949 q 354 988 289 988 q 472 969 417 988 q 571 917 526 950 l 571 661 q 547 740 567 706 q 499 799 528 775 q 433 836 469 824 q 356 849 396 849 q 235 813 282 849 q 188 715 188 778 q 218 631 188 664 q 295 571 249 597 q 396 520 342 544 q 497 462 450 496 q 574 379 543 428 q 604 257 604 331 q 545 88 604 157 q 390 -4 486 19 l 390 -85 l 469 -111 l 469 -361 l 182 -361 l 182 -240 l 469 -240 l 263 -168 l 263 -14 q 147 13 201 -8 q 49 68 93 33 l 49 322 q 78 240 54 276 q 137 177 101 203 q 214 138 172 151 q 297 124 256 124 q 415 160 365 124 q 465 261 465 196 q 435 342 465 311 q 358 397 404 372 q 257 444 311 421 q 156 499 203 467 q 79 581 110 532 q 49 707 49 631 z "},"ş":{"ha":667,"x_min":56,"x_max":611,"o":"m 56 715 q 81 831 56 781 q 147 916 106 881 q 244 969 189 951 q 358 988 299 988 q 496 960 429 988 q 611 879 563 932 l 611 260 q 595 170 611 214 q 551 90 579 126 q 483 29 522 54 q 397 -3 444 4 l 397 -85 l 476 -111 l 476 -361 l 189 -361 l 189 -240 l 476 -240 l 269 -168 l 269 -14 q 156 9 211 -11 q 56 64 100 29 l 56 715 m 194 718 q 216 649 194 679 q 272 594 238 619 q 347 548 306 569 q 431 503 389 526 q 509 455 472 481 q 569 397 546 429 l 569 582 q 558 681 569 633 q 522 767 547 729 q 456 826 497 804 q 357 849 415 849 q 297 841 326 849 q 245 817 268 833 q 208 777 222 801 q 194 718 194 753 m 97 568 l 97 379 q 108 283 97 329 q 144 201 119 236 q 209 144 169 165 q 306 124 249 124 q 366 131 336 124 q 419 155 396 139 q 458 196 443 171 q 472 256 472 221 q 428 351 472 315 q 323 417 383 388 q 199 481 263 447 q 97 568 135 514 z "},"Ţ":{"ha":500,"x_min":0,"x_max":500,"o":"m 181 833 l 0 833 l 0 972 l 500 972 l 500 833 l 319 833 l 319 10 l 388 -14 l 388 -264 l 100 -264 l 100 -143 l 388 -143 l 181 -71 l 181 833 z "},"ţ":{"ha":647,"x_min":14,"x_max":592,"o":"m 14 833 l 14 972 l 592 972 l 592 51 q 501 0 550 15 q 399 -15 453 -15 l 399 -53 l 478 -79 l 478 -329 l 190 -329 l 190 -208 l 478 -208 l 271 -136 l 271 14 q 156 122 192 51 q 119 276 119 192 q 138 417 119 349 q 177 555 156 486 q 217 692 199 624 q 235 833 235 761 l 14 833 m 272 51 q 414 85 360 51 q 498 173 468 118 q 539 298 528 228 q 550 440 550 368 l 550 833 l 272 833 l 272 51 z "},"ť":{"ha":626,"x_min":-7,"x_max":600,"o":"m -7 833 l -7 972 l 571 972 l 571 51 q 390 -15 493 -15 q 177 63 256 -15 q 99 276 99 142 q 117 417 99 349 q 156 555 135 486 q 196 692 178 624 q 214 833 214 761 l -7 833 m 529 440 l 529 833 l 251 833 l 251 51 q 393 85 339 51 q 477 173 447 118 q 518 298 507 228 q 529 440 529 368 m 56 1153 l 236 1153 l 328 1014 l 419 1153 l 600 1153 l 497 1014 l 158 1014 l 56 1153 z "},"Ŧ":{"ha":500,"x_min":0,"x_max":500,"o":"m 500 972 l 500 833 l 319 833 l 319 553 l 458 553 l 458 414 l 319 414 l 319 0 l 181 0 l 181 414 l 42 414 l 42 553 l 181 553 l 181 833 l 0 833 l 0 972 l 500 972 z "},"ŧ":{"ha":647,"x_min":14,"x_max":592,"o":"m 592 972 l 592 51 q 411 -15 514 -15 q 198 63 276 -15 q 119 276 119 142 q 126 359 119 318 q 143 440 132 400 l 14 440 l 14 579 l 183 579 q 219 705 203 642 q 235 833 235 768 l 14 833 l 14 972 l 592 972 m 272 833 l 272 579 l 431 579 l 431 440 l 272 440 l 272 51 q 414 85 360 51 q 498 173 468 118 q 539 298 528 228 q 550 440 550 368 l 550 833 l 272 833 z "},"ų":{"ha":714,"x_min":42,"x_max":658,"o":"m 42 325 l 42 593 q 45 703 42 638 q 66 828 49 768 q 119 930 83 888 q 218 972 154 972 l 407 972 q 446 901 433 940 q 458 821 458 861 q 438 717 458 764 q 386 627 417 669 q 319 546 356 585 q 253 467 283 507 q 201 383 222 426 q 181 289 181 340 q 226 166 181 214 q 347 118 272 118 q 428 138 396 118 q 481 190 461 157 q 510 263 501 222 q 519 344 519 303 l 519 972 l 658 972 l 658 343 q 608 135 658 225 q 467 -26 558 44 l 211 -226 l 499 -226 l 499 -347 l 211 -347 l 211 -62 l 279 -14 q 172 31 217 -1 q 99 110 128 64 q 56 211 69 156 q 42 325 42 267 m 319 821 q 292 898 319 865 q 217 931 264 931 q 138 891 165 931 q 96 797 110 851 q 79 685 82 742 q 76 593 76 628 l 74 353 q 114 487 75 426 q 199 602 153 547 q 282 710 244 657 q 319 821 319 763 z "},"Ų":{"ha":667,"x_min":56,"x_max":611,"o":"m 56 972 l 194 972 l 194 261 q 234 158 194 199 q 333 118 274 118 q 433 158 393 118 q 472 261 472 199 l 472 972 l 611 972 l 611 263 q 565 103 611 171 q 454 -17 518 35 l 196 -226 l 483 -226 l 483 -347 l 196 -347 l 196 -64 l 269 -14 q 115 83 175 8 q 56 263 56 158 l 56 972 z "},"ſ":{"ha":486,"x_min":56,"x_max":472,"o":"m 56 0 l 56 710 q 77 822 56 769 q 135 912 99 874 q 223 972 172 950 q 332 993 274 993 q 472 956 408 993 l 472 711 q 433 814 472 774 q 333 854 393 854 q 234 814 274 854 q 194 711 194 774 l 194 0 l 56 0 z "},"₤":{"ha":610,"x_min":14,"x_max":540,"o":"m 14 486 l 14 625 l 124 625 l 124 710 q 145 822 124 769 q 203 912 167 874 q 291 972 240 950 q 400 993 342 993 q 540 956 476 993 l 540 711 q 501 814 540 774 q 401 854 461 854 q 302 814 342 854 q 263 711 263 774 l 263 625 l 540 625 l 540 486 l 263 486 l 263 389 l 540 389 l 540 250 l 263 250 l 263 139 l 540 139 l 540 0 l 124 0 l 124 250 l 14 250 l 14 389 l 124 389 l 124 486 l 14 486 z "},"₣":{"ha":625,"x_min":-6,"x_max":590,"o":"m 92 313 l 92 972 l 590 972 l 590 833 l 231 833 l 231 556 l 590 556 l 590 417 l 231 417 l 231 313 l 411 313 l 411 174 l 231 174 l 231 0 l 92 0 l 92 174 l -6 174 l -6 313 l 92 313 z "},"̀":{"ha":456,"x_min":56,"x_max":400,"o":"m 56 1092 l 164 1200 l 400 964 l 311 875 l 56 1092 z "},"Å":{"ha":558,"x_min":0,"x_max":558,"o":"m 0 0 l 139 971 q 88 1041 106 1000 q 71 1126 71 1082 q 87 1209 71 1171 q 131 1275 103 1247 q 197 1319 158 1303 q 279 1335 235 1335 q 362 1319 324 1335 q 428 1275 400 1303 q 472 1209 456 1247 q 488 1126 488 1171 q 470 1041 488 1082 q 419 971 453 1000 l 558 0 l 418 0 l 288 921 q 283 978 283 949 q 282 1038 282 1008 l 278 1038 q 276 978 278 1008 q 271 921 275 949 l 140 0 l 0 0 m 197 1126 q 220 1067 197 1090 q 279 1044 243 1044 q 338 1067 315 1044 q 361 1126 361 1090 q 338 1185 361 1163 q 279 1208 315 1208 q 220 1185 243 1208 q 197 1126 197 1163 z "},"ħ":{"ha":1040,"x_min":0,"x_max":1040,"o":"m 75 829 l 75 972 l 214 972 l 214 829 l 825 829 l 825 972 l 964 972 l 964 829 l 1040 829 l 1040 690 l 964 690 l 964 0 l 825 0 l 825 417 l 214 417 l 214 0 l 75 0 l 75 690 l 0 690 l 0 829 l 75 829 m 214 690 l 214 556 l 825 556 l 825 690 l 214 690 z "},"À":{"ha":558,"x_min":0,"x_max":558,"o":"m 0 0 l 139 972 l 419 972 l 558 0 l 418 0 l 279 972 l 140 0 l 0 0 m 132 1339 l 368 1103 l 279 1014 l 24 1231 l 132 1339 z "},"Á":{"ha":558,"x_min":0,"x_max":558,"o":"m 0 0 l 139 972 l 419 972 l 558 0 l 418 0 l 279 972 l 140 0 l 0 0 m 190 1103 l 426 1339 l 535 1231 l 279 1014 l 190 1103 z "},"Â":{"ha":558,"x_min":0,"x_max":558,"o":"m 0 0 l 139 972 l 419 972 l 558 0 l 418 0 l 279 972 l 140 0 l 0 0 m 188 1014 l 7 1014 l 110 1153 l 449 1153 l 551 1014 l 371 1014 l 279 1153 l 188 1014 z "},"Ã":{"ha":558,"x_min":0,"x_max":558,"o":"m 0 0 l 139 972 l 419 972 l 558 0 l 418 0 l 279 972 l 140 0 l 0 0 m 71 1167 q 124 1193 99 1186 q 175 1200 150 1200 q 226 1194 201 1200 q 276 1181 251 1189 q 326 1168 301 1174 q 375 1163 350 1163 q 431 1172 403 1163 q 488 1208 458 1182 l 488 1056 q 435 1031 460 1038 q 385 1024 410 1024 q 284 1042 333 1024 q 185 1061 235 1061 q 129 1051 157 1061 q 71 1014 101 1042 l 71 1167 z "},"Ä":{"ha":558,"x_min":0,"x_max":558,"o":"m 0 0 l 139 972 l 419 972 l 558 0 l 418 0 l 279 972 l 140 0 l 0 0 m 383 1153 l 522 1153 l 522 1014 l 383 1014 l 383 1153 m 175 1153 l 175 1014 l 36 1014 l 36 1153 l 175 1153 z "},"È":{"ha":624,"x_min":64,"x_max":568,"o":"m 69 0 l 69 972 l 568 972 l 568 833 l 208 833 l 208 556 l 568 556 l 568 417 l 208 417 l 208 139 l 568 139 l 568 0 l 69 0 m 64 1231 l 172 1339 l 408 1103 l 319 1014 l 64 1231 z "},"É":{"ha":624,"x_min":69,"x_max":575,"o":"m 69 972 l 568 972 l 568 833 l 208 833 l 208 556 l 568 556 l 568 417 l 208 417 l 208 139 l 568 139 l 568 0 l 69 0 l 69 972 m 231 1103 l 467 1339 l 575 1231 l 319 1014 l 231 1103 z "},"Ê":{"ha":624,"x_min":47,"x_max":592,"o":"m 69 0 l 69 972 l 568 972 l 568 833 l 208 833 l 208 556 l 568 556 l 568 417 l 208 417 l 208 139 l 568 139 l 568 0 l 69 0 m 47 1014 l 150 1153 l 489 1153 l 592 1014 l 411 1014 l 319 1153 l 228 1014 l 47 1014 z "},"Ë":{"ha":624,"x_min":69,"x_max":568,"o":"m 568 972 l 568 833 l 208 833 l 208 556 l 568 556 l 568 417 l 208 417 l 208 139 l 568 139 l 568 0 l 69 0 l 69 972 l 568 972 m 424 1153 l 563 1153 l 563 1014 l 424 1014 l 424 1153 m 215 1153 l 215 1014 l 76 1014 l 76 1153 l 215 1153 z "},"Ì":{"ha":278,"x_min":-117,"x_max":228,"o":"m 69 972 l 208 972 l 208 0 l 69 0 l 69 972 m -117 1231 l -8 1339 l 228 1103 l 139 1014 l -117 1231 z "},"Í":{"ha":278,"x_min":50,"x_max":394,"o":"m 69 972 l 208 972 l 208 0 l 69 0 l 69 972 m 394 1231 l 139 1014 l 50 1103 l 286 1339 l 394 1231 z "},"Î":{"ha":278,"x_min":-133,"x_max":411,"o":"m 69 0 l 69 972 l 208 972 l 208 0 l 69 0 m -133 1014 l -31 1153 l 308 1153 l 411 1014 l 231 1014 l 139 1153 l 47 1014 l -133 1014 z "},"Ï":{"ha":278,"x_min":-104,"x_max":382,"o":"m 208 972 l 208 0 l 69 0 l 69 972 l 208 972 m 243 1153 l 382 1153 l 382 1014 l 243 1014 l 243 1153 m 35 1153 l 35 1014 l -104 1014 l -104 1153 l 35 1153 z "},"Ñ":{"ha":839,"x_min":69,"x_max":769,"o":"m 69 0 l 69 972 l 353 972 l 631 0 l 631 972 l 769 972 l 769 0 l 486 0 l 208 972 l 208 0 l 69 0 m 211 1167 q 265 1193 239 1186 q 315 1200 290 1200 q 367 1194 342 1200 q 417 1181 392 1189 q 466 1168 442 1174 q 515 1163 490 1163 q 571 1172 543 1163 q 628 1208 599 1182 l 628 1056 q 575 1031 600 1038 q 525 1024 550 1024 q 424 1042 474 1024 q 325 1061 375 1061 q 269 1051 297 1061 q 211 1014 242 1042 l 211 1167 z "},"Ò":{"ha":1056,"x_min":21,"x_max":1035,"o":"m 528 993 q 729 954 636 993 q 890 848 822 915 q 996 688 957 781 q 1035 486 1035 594 q 996 285 1035 378 q 890 124 957 192 q 729 18 822 57 q 528 -21 636 -21 q 326 18 419 -21 q 166 124 233 57 q 60 285 99 192 q 21 486 21 378 q 60 688 21 594 q 166 848 99 781 q 326 954 233 915 q 528 993 419 993 m 160 486 q 188 340 160 407 q 265 223 215 272 q 381 146 314 174 q 528 118 449 118 q 674 146 607 118 q 791 223 742 174 q 868 340 840 272 q 896 486 896 407 q 868 633 896 565 q 791 749 840 700 q 674 826 742 799 q 528 854 607 854 q 381 826 449 854 q 265 749 314 799 q 188 633 215 700 q 160 486 160 565 m 272 1231 l 381 1339 l 617 1103 l 528 1014 l 272 1231 z "},"Ó":{"ha":1056,"x_min":21,"x_max":1035,"o":"m 21 486 q 60 688 21 594 q 166 848 99 781 q 326 954 233 915 q 528 993 419 993 q 729 954 636 993 q 890 848 822 915 q 996 688 957 781 q 1035 486 1035 594 q 996 285 1035 378 q 890 124 957 192 q 729 18 822 57 q 528 -21 636 -21 q 326 18 419 -21 q 166 124 233 57 q 60 285 99 192 q 21 486 21 378 m 160 486 q 188 340 160 407 q 265 223 215 272 q 381 146 314 174 q 528 118 449 118 q 674 146 607 118 q 791 223 742 174 q 868 340 840 272 q 896 486 896 407 q 868 633 896 565 q 791 749 840 700 q 674 826 742 799 q 528 854 607 854 q 381 826 449 854 q 265 749 314 799 q 188 633 215 700 q 160 486 160 565 m 439 1103 l 675 1339 l 783 1231 l 528 1014 l 439 1103 z "},"Ô":{"ha":1056,"x_min":21,"x_max":1035,"o":"m 528 993 q 729 954 636 993 q 890 848 822 915 q 996 688 957 781 q 1035 486 1035 594 q 996 285 1035 378 q 890 124 957 192 q 729 18 822 57 q 528 -21 636 -21 q 326 18 419 -21 q 166 124 233 57 q 60 285 99 192 q 21 486 21 378 q 60 688 21 594 q 166 848 99 781 q 326 954 233 915 q 528 993 419 993 m 528 118 q 674 146 607 118 q 791 223 742 174 q 868 340 840 272 q 896 486 896 407 q 868 633 896 565 q 791 749 840 700 q 674 826 742 799 q 528 854 607 854 q 381 826 449 854 q 265 749 314 799 q 188 633 215 700 q 160 486 160 565 q 188 340 160 407 q 265 223 215 272 q 381 146 314 174 q 528 118 449 118 m 436 1014 l 256 1014 l 358 1153 l 697 1153 l 800 1014 l 619 1014 l 528 1153 l 436 1014 z "},"Õ":{"ha":1056,"x_min":21,"x_max":1035,"o":"m 528 993 q 729 954 636 993 q 890 848 822 915 q 996 688 957 781 q 1035 486 1035 594 q 996 285 1035 378 q 890 124 957 192 q 729 18 822 57 q 528 -21 636 -21 q 326 18 419 -21 q 166 124 233 57 q 60 285 99 192 q 21 486 21 378 q 60 688 21 594 q 166 848 99 781 q 326 954 233 915 q 528 993 419 993 m 528 118 q 674 146 607 118 q 791 223 742 174 q 868 340 840 272 q 896 486 896 407 q 868 633 896 565 q 791 749 840 700 q 674 826 742 799 q 528 854 607 854 q 381 826 449 854 q 265 749 314 799 q 188 633 215 700 q 160 486 160 565 q 188 340 160 407 q 265 223 215 272 q 381 146 314 174 q 528 118 449 118 m 319 1014 l 319 1167 q 373 1193 347 1186 q 424 1200 399 1200 q 475 1194 450 1200 q 525 1181 500 1189 q 574 1168 550 1174 q 624 1163 599 1163 q 679 1172 651 1163 q 736 1208 707 1182 l 736 1056 q 683 1031 708 1038 q 633 1024 658 1024 q 533 1042 582 1024 q 433 1061 483 1061 q 378 1051 406 1061 q 319 1014 350 1042 z "},"Ö":{"ha":1056,"x_min":21,"x_max":1035,"o":"m 21 486 q 60 688 21 594 q 166 848 99 781 q 326 954 233 915 q 528 993 419 993 q 729 954 636 993 q 890 848 822 915 q 996 688 957 781 q 1035 486 1035 594 q 996 285 1035 378 q 890 124 957 192 q 729 18 822 57 q 528 -21 636 -21 q 326 18 419 -21 q 166 124 233 57 q 60 285 99 192 q 21 486 21 378 m 528 118 q 674 146 607 118 q 791 223 742 174 q 868 340 840 272 q 896 486 896 407 q 868 633 896 565 q 791 749 840 700 q 674 826 742 799 q 528 854 607 854 q 381 826 449 854 q 265 749 314 799 q 188 633 215 700 q 160 486 160 565 q 188 340 160 407 q 265 223 215 272 q 381 146 314 174 q 528 118 449 118 m 632 1153 l 771 1153 l 771 1014 l 632 1014 l 632 1153 m 285 1014 l 285 1153 l 424 1153 l 424 1014 l 285 1014 z "},"Ù":{"ha":667,"x_min":56,"x_max":611,"o":"m 56 263 l 56 972 l 194 972 l 194 261 q 234 158 194 199 q 333 118 274 118 q 433 158 393 118 q 472 261 472 199 l 472 972 l 611 972 l 611 263 q 590 151 611 203 q 531 60 568 99 q 444 1 494 22 q 335 -21 393 -21 q 225 1 276 -21 q 136 60 174 22 q 77 151 99 99 q 56 263 56 203 m 78 1231 l 186 1339 l 422 1103 l 333 1014 l 78 1231 z "},"Ú":{"ha":667,"x_min":56,"x_max":611,"o":"m 56 972 l 194 972 l 194 261 q 234 158 194 199 q 333 118 274 118 q 433 158 393 118 q 472 261 472 199 l 472 972 l 611 972 l 611 263 q 590 151 611 203 q 531 60 568 99 q 444 1 494 22 q 335 -21 393 -21 q 225 1 276 -21 q 136 60 174 22 q 77 151 99 99 q 56 263 56 203 l 56 972 m 244 1103 l 481 1339 l 589 1231 l 333 1014 l 244 1103 z "},"Û":{"ha":667,"x_min":56,"x_max":611,"o":"m 194 972 l 194 261 q 234 158 194 199 q 333 118 274 118 q 433 158 393 118 q 472 261 472 199 l 472 972 l 611 972 l 611 263 q 590 151 611 203 q 531 60 568 99 q 444 1 494 22 q 335 -21 393 -21 q 225 1 276 -21 q 136 60 174 22 q 77 151 99 99 q 56 263 56 203 l 56 972 l 194 972 m 242 1014 l 61 1014 l 164 1153 l 503 1153 l 606 1014 l 425 1014 l 333 1153 l 242 1014 z "},"Ü":{"ha":667,"x_min":56,"x_max":611,"o":"m 56 263 l 56 972 l 194 972 l 194 261 q 234 158 194 199 q 333 118 274 118 q 433 158 393 118 q 472 261 472 199 l 472 972 l 611 972 l 611 263 q 590 151 611 203 q 531 60 568 99 q 444 1 494 22 q 335 -21 393 -21 q 225 1 276 -21 q 136 60 174 22 q 77 151 99 99 q 56 263 56 203 m 438 1153 l 576 1153 l 576 1014 l 438 1014 l 438 1153 m 90 1153 l 229 1153 l 229 1014 l 90 1014 l 90 1153 z "},"Ý":{"ha":514,"x_min":-21,"x_max":535,"o":"m -21 972 l 122 972 l 203 685 q 224 594 214 644 q 240 492 233 544 q 251 389 247 440 q 256 296 256 338 l 260 296 q 263 389 260 338 q 274 492 267 440 q 290 594 281 544 q 311 685 300 644 l 392 972 l 535 972 l 326 281 l 326 0 l 188 0 l 188 281 l -21 972 m 168 1103 l 404 1339 l 513 1231 l 257 1014 l 168 1103 z "},"à":{"ha":764,"x_min":21,"x_max":778,"o":"m 21 138 q 42 243 21 196 q 94 332 63 290 q 162 414 125 374 q 230 501 199 454 q 282 603 261 547 q 303 729 303 658 q 299 785 303 751 q 288 853 294 818 q 271 921 281 889 q 250 972 261 953 l 399 972 l 778 0 l 629 0 l 486 365 q 485 249 490 313 q 457 130 479 185 q 392 38 435 75 q 281 0 350 0 l 63 0 q 31 66 40 31 q 21 138 21 101 m 160 169 q 191 77 160 113 q 281 42 222 42 q 366 69 333 42 q 418 137 399 96 q 444 225 438 178 q 451 313 451 272 q 441 431 451 375 q 414 542 431 488 q 376 649 397 596 q 333 758 356 703 q 314 577 340 657 q 253 428 288 497 q 190 297 219 360 q 160 169 160 235 m 211 1339 l 447 1103 l 358 1014 l 103 1231 l 211 1339 z "},"á":{"ha":764,"x_min":21,"x_max":778,"o":"m 21 138 q 42 243 21 196 q 94 332 63 290 q 162 414 125 374 q 230 501 199 454 q 282 603 261 547 q 303 729 303 658 q 299 785 303 751 q 288 853 294 818 q 271 921 281 889 q 250 972 261 953 l 399 972 l 778 0 l 629 0 l 486 365 q 485 249 490 313 q 457 130 479 185 q 392 38 435 75 q 281 0 350 0 l 63 0 q 31 66 40 31 q 21 138 21 101 m 160 169 q 191 77 160 113 q 281 42 222 42 q 366 69 333 42 q 418 137 399 96 q 444 225 438 178 q 451 313 451 272 q 441 431 451 375 q 414 542 431 488 q 376 649 397 596 q 333 758 356 703 q 314 577 340 657 q 253 428 288 497 q 190 297 219 360 q 160 169 160 235 m 506 1339 l 614 1231 l 358 1014 l 269 1103 l 506 1339 z "},"â":{"ha":764,"x_min":21,"x_max":778,"o":"m 303 729 q 299 785 303 751 q 288 853 294 818 q 271 921 281 889 q 250 972 261 953 l 399 972 l 778 0 l 629 0 l 486 365 q 485 249 490 313 q 457 130 479 185 q 392 38 435 75 q 281 0 350 0 l 63 0 q 31 66 40 31 q 21 138 21 101 q 42 243 21 196 q 94 332 63 290 q 162 414 125 374 q 230 501 199 454 q 282 603 261 547 q 303 729 303 658 m 281 42 q 366 69 333 42 q 418 137 399 96 q 444 225 438 178 q 451 313 451 272 q 441 431 451 375 q 414 542 431 488 q 376 649 397 596 q 333 758 356 703 q 314 577 340 657 q 253 428 288 497 q 190 297 219 360 q 160 169 160 235 q 191 77 160 113 q 281 42 222 42 m 86 1014 l 189 1153 l 528 1153 l 631 1014 l 450 1014 l 358 1153 l 267 1014 l 86 1014 z "},"ã":{"ha":764,"x_min":21,"x_max":778,"o":"m 21 138 q 42 243 21 196 q 94 332 63 290 q 162 414 125 374 q 230 501 199 454 q 282 603 261 547 q 303 729 303 658 q 299 785 303 751 q 288 853 294 818 q 271 921 281 889 q 250 972 261 953 l 399 972 l 778 0 l 629 0 l 486 365 q 485 249 490 313 q 457 130 479 185 q 392 38 435 75 q 281 0 350 0 l 63 0 q 31 66 40 31 q 21 138 21 101 m 160 169 q 191 77 160 113 q 281 42 222 42 q 366 69 333 42 q 418 137 399 96 q 444 225 438 178 q 451 313 451 272 q 441 431 451 375 q 414 542 431 488 q 376 649 397 596 q 333 758 356 703 q 314 577 340 657 q 253 428 288 497 q 190 297 219 360 q 160 169 160 235 m 150 1014 l 150 1167 q 203 1193 178 1186 q 254 1200 229 1200 q 306 1194 281 1200 q 356 1181 331 1189 q 405 1168 381 1174 q 454 1163 429 1163 q 510 1172 482 1163 q 567 1208 538 1182 l 567 1056 q 514 1031 539 1038 q 464 1024 489 1024 q 363 1042 413 1024 q 264 1061 314 1061 q 208 1051 236 1061 q 150 1014 181 1042 z "},"ä":{"ha":764,"x_min":21,"x_max":778,"o":"m 21 138 q 42 243 21 196 q 94 332 63 290 q 162 414 125 374 q 230 501 199 454 q 282 603 261 547 q 303 729 303 658 q 299 785 303 751 q 288 853 294 818 q 271 921 281 889 q 250 972 261 953 l 399 972 l 778 0 l 629 0 l 486 365 q 485 249 490 313 q 457 130 479 185 q 392 38 435 75 q 281 0 350 0 l 63 0 q 31 66 40 31 q 21 138 21 101 m 160 169 q 191 77 160 113 q 281 42 222 42 q 366 69 333 42 q 418 137 399 96 q 444 225 438 178 q 451 313 451 272 q 441 431 451 375 q 414 542 431 488 q 376 649 397 596 q 333 758 356 703 q 314 577 340 657 q 253 428 288 497 q 190 297 219 360 q 160 169 160 235 m 463 1153 l 601 1153 l 601 1014 l 463 1014 l 463 1153 m 254 1153 l 254 1014 l 115 1014 l 115 1153 l 254 1153 z "},"å":{"ha":764,"x_min":21,"x_max":778,"o":"m 21 138 q 42 243 21 196 q 94 332 63 290 q 162 414 125 374 q 230 501 199 454 q 282 603 261 547 q 303 729 303 658 q 299 785 303 751 q 288 853 294 818 q 271 921 281 889 q 250 972 261 953 l 399 972 l 778 0 l 629 0 l 486 365 q 485 249 490 313 q 457 130 479 185 q 392 38 435 75 q 281 0 350 0 l 63 0 q 31 66 40 31 q 21 138 21 101 m 358 1429 q 441 1413 403 1429 q 507 1369 479 1397 q 551 1303 535 1342 q 567 1221 567 1265 q 551 1138 567 1176 q 507 1072 535 1100 q 441 1028 479 1044 q 358 1013 403 1013 q 276 1028 314 1013 q 210 1072 238 1044 q 166 1138 182 1100 q 150 1221 150 1176 q 166 1303 150 1265 q 210 1369 182 1342 q 276 1413 238 1397 q 358 1429 314 1429 m 160 169 q 191 77 160 113 q 281 42 222 42 q 366 69 333 42 q 418 137 399 96 q 444 225 438 178 q 451 313 451 272 q 441 431 451 375 q 414 542 431 488 q 376 649 397 596 q 333 758 356 703 q 314 577 340 657 q 253 428 288 497 q 190 297 219 360 q 160 169 160 235 m 276 1221 q 299 1162 276 1185 q 358 1139 322 1139 q 417 1162 394 1139 q 440 1221 440 1185 q 417 1280 440 1257 q 358 1303 394 1303 q 299 1280 322 1303 q 276 1221 276 1257 z "},"è":{"ha":696,"x_min":69,"x_max":744,"o":"m 69 972 l 744 972 q 615 923 686 958 q 480 838 543 888 q 374 727 417 789 q 332 597 332 665 q 363 504 332 542 q 451 467 393 467 q 531 490 497 467 q 589 548 565 513 q 624 626 613 583 q 636 708 636 669 l 636 386 q 474 329 564 329 q 386 347 424 329 q 324 394 349 364 q 286 465 299 425 q 274 553 274 506 q 311 708 274 639 q 413 833 349 778 l 208 833 l 208 139 l 638 139 l 638 0 l 69 0 l 69 972 m 106 1258 l 214 1367 l 450 1131 l 361 1042 l 106 1258 z "},"é":{"ha":696,"x_min":69,"x_max":744,"o":"m 744 972 q 615 923 686 958 q 480 838 543 888 q 374 727 417 789 q 332 597 332 665 q 363 504 332 542 q 451 467 393 467 q 531 490 497 467 q 589 548 565 513 q 624 626 613 583 q 636 708 636 669 l 636 386 q 474 329 564 329 q 386 347 424 329 q 324 394 349 364 q 286 465 299 425 q 274 553 274 506 q 311 708 274 639 q 413 833 349 778 l 208 833 l 208 139 l 638 139 l 638 0 l 69 0 l 69 972 l 744 972 m 508 1367 l 617 1258 l 361 1042 l 272 1131 l 508 1367 z "},"ê":{"ha":696,"x_min":69,"x_max":744,"o":"m 744 972 q 615 923 686 958 q 480 838 543 888 q 374 727 417 789 q 332 597 332 665 q 363 504 332 542 q 451 467 393 467 q 531 490 497 467 q 589 548 565 513 q 624 626 613 583 q 636 708 636 669 l 636 386 q 474 329 564 329 q 386 347 424 329 q 324 394 349 364 q 286 465 299 425 q 274 553 274 506 q 311 708 274 639 q 413 833 349 778 l 208 833 l 208 139 l 638 139 l 638 0 l 69 0 l 69 972 l 744 972 m 269 1042 l 89 1042 l 192 1181 l 531 1181 l 633 1042 l 453 1042 l 361 1181 l 269 1042 z "},"ë":{"ha":696,"x_min":69,"x_max":744,"o":"m 69 972 l 744 972 q 615 923 686 958 q 480 838 543 888 q 374 727 417 789 q 332 597 332 665 q 363 504 332 542 q 451 467 393 467 q 531 490 497 467 q 589 548 565 513 q 624 626 613 583 q 636 708 636 669 l 636 386 q 474 329 564 329 q 386 347 424 329 q 324 394 349 364 q 286 465 299 425 q 274 553 274 506 q 311 708 274 639 q 413 833 349 778 l 208 833 l 208 139 l 638 139 l 638 0 l 69 0 l 69 972 m 465 1181 l 604 1181 l 604 1042 l 465 1042 l 465 1181 m 118 1181 l 257 1181 l 257 1042 l 118 1042 l 118 1181 z "},"ı":{"ha":739,"x_min":56,"x_max":739,"o":"m 56 0 l 56 925 q 133 974 92 956 q 224 992 175 992 q 328 967 282 992 q 406 903 374 943 q 455 813 438 864 q 472 708 472 763 l 472 139 l 739 139 l 739 0 l 56 0 m 97 139 l 333 139 l 333 933 q 208 894 254 933 q 136 796 161 856 q 104 667 111 736 q 97 536 97 597 l 97 139 z "},"ì":{"ha":739,"x_min":56,"x_max":739,"o":"m 56 925 q 133 974 92 956 q 224 992 175 992 q 328 967 282 992 q 406 903 374 943 q 455 813 438 864 q 472 708 472 763 l 472 139 l 739 139 l 739 0 l 56 0 l 56 925 m 97 139 l 333 139 l 333 933 q 208 894 254 933 q 136 796 161 856 q 104 667 111 736 q 97 536 97 597 l 97 139 m 79 1231 l 188 1339 l 424 1103 l 335 1014 l 79 1231 z "},"í":{"ha":739,"x_min":56,"x_max":739,"o":"m 56 925 q 133 974 92 956 q 224 992 175 992 q 328 967 282 992 q 406 903 374 943 q 455 813 438 864 q 472 708 472 763 l 472 139 l 739 139 l 739 0 l 56 0 l 56 925 m 97 139 l 333 139 l 333 933 q 208 894 254 933 q 136 796 161 856 q 104 667 111 736 q 97 536 97 597 l 97 139 m 482 1339 l 590 1231 l 335 1014 l 246 1103 l 482 1339 z "},"î":{"ha":739,"x_min":56,"x_max":739,"o":"m 224 992 q 328 967 282 992 q 406 903 374 943 q 455 813 438 864 q 472 708 472 763 l 472 139 l 739 139 l 739 0 l 56 0 l 56 925 q 133 974 92 956 q 224 992 175 992 m 333 139 l 333 933 q 208 894 254 933 q 136 796 161 856 q 104 667 111 736 q 97 536 97 597 l 97 139 l 333 139 m 243 1014 l 63 1014 l 165 1153 l 504 1153 l 607 1014 l 426 1014 l 335 1153 l 243 1014 z "},"ï":{"ha":739,"x_min":56,"x_max":739,"o":"m 56 925 q 133 974 92 956 q 224 992 175 992 q 328 967 282 992 q 406 903 374 943 q 455 813 438 864 q 472 708 472 763 l 472 139 l 739 139 l 739 0 l 56 0 l 56 925 m 97 139 l 333 139 l 333 933 q 208 894 254 933 q 136 796 161 856 q 104 667 111 736 q 97 536 97 597 l 97 139 m 439 1014 l 439 1153 l 578 1153 l 578 1014 l 439 1014 m 92 1014 l 92 1153 l 231 1153 l 231 1014 l 92 1014 z "},"ñ":{"ha":943,"x_min":69,"x_max":888,"o":"m 69 972 l 365 972 q 485 744 428 856 q 581 504 543 632 l 585 506 q 547 640 567 567 q 528 776 528 714 q 574 934 528 871 q 721 997 621 997 q 810 981 768 997 q 888 931 853 964 l 888 0 l 69 0 l 69 972 m 208 972 l 208 42 l 706 42 l 208 972 m 846 78 l 846 658 q 838 727 846 692 q 811 792 829 763 q 765 841 793 822 q 697 860 736 860 q 605 816 633 860 q 576 714 576 772 q 606 565 576 650 q 679 390 636 479 q 768 217 722 300 q 846 78 814 135 m 271 1014 l 271 1167 q 324 1193 299 1186 q 375 1200 350 1200 q 426 1194 401 1200 q 476 1181 451 1189 q 526 1168 501 1174 q 575 1163 550 1163 q 631 1172 603 1163 q 688 1208 658 1182 l 688 1056 q 635 1031 660 1038 q 585 1024 610 1024 q 484 1042 533 1024 q 385 1061 435 1061 q 329 1051 357 1061 q 271 1014 301 1042 z "},"ò":{"ha":678,"x_min":56,"x_max":622,"o":"m 56 715 q 78 826 56 775 q 138 913 100 876 q 228 971 176 950 q 339 992 281 992 q 449 971 397 992 q 540 913 501 950 q 600 826 578 876 q 622 715 622 775 l 622 0 l 56 0 l 56 715 m 581 139 l 581 567 q 477 470 542 504 q 339 436 413 436 q 201 470 265 436 q 97 567 136 504 l 97 139 l 581 139 m 340 575 q 442 614 400 575 q 483 714 483 653 q 441 815 483 776 q 338 853 399 853 q 236 814 278 853 q 194 714 194 775 q 237 613 194 651 q 340 575 279 575 m 82 1231 l 190 1339 l 426 1103 l 338 1014 l 82 1231 z "},"ó":{"ha":678,"x_min":56,"x_max":622,"o":"m 56 0 l 56 715 q 78 826 56 775 q 138 913 100 876 q 228 971 176 950 q 339 992 281 992 q 449 971 397 992 q 540 913 501 950 q 600 826 578 876 q 622 715 622 775 l 622 0 l 56 0 m 97 139 l 581 139 l 581 567 q 477 470 542 504 q 339 436 413 436 q 201 470 265 436 q 97 567 136 504 l 97 139 m 194 714 q 237 613 194 651 q 340 575 279 575 q 442 614 400 575 q 483 714 483 653 q 441 815 483 776 q 338 853 399 853 q 236 814 278 853 q 194 714 194 775 m 485 1339 l 593 1231 l 338 1014 l 249 1103 l 485 1339 z "},"ô":{"ha":678,"x_min":56,"x_max":622,"o":"m 56 0 l 56 715 q 78 826 56 775 q 138 913 100 876 q 228 971 176 950 q 339 992 281 992 q 449 971 397 992 q 540 913 501 950 q 600 826 578 876 q 622 715 622 775 l 622 0 l 56 0 m 97 139 l 581 139 l 581 567 q 477 470 542 504 q 339 436 413 436 q 201 470 265 436 q 97 567 136 504 l 97 139 m 340 575 q 442 614 400 575 q 483 714 483 653 q 441 815 483 776 q 338 853 399 853 q 236 814 278 853 q 194 714 194 775 q 237 613 194 651 q 340 575 279 575 m 65 1014 l 168 1153 l 507 1153 l 610 1014 l 429 1014 l 338 1153 l 246 1014 l 65 1014 z "},"õ":{"ha":678,"x_min":56,"x_max":622,"o":"m 56 715 q 78 826 56 775 q 138 913 100 876 q 228 971 176 950 q 339 992 281 992 q 449 971 397 992 q 540 913 501 950 q 600 826 578 876 q 622 715 622 775 l 622 0 l 56 0 l 56 715 m 581 139 l 581 567 q 477 470 542 504 q 339 436 413 436 q 201 470 265 436 q 97 567 136 504 l 97 139 l 581 139 m 194 714 q 237 613 194 651 q 340 575 279 575 q 442 614 400 575 q 483 714 483 653 q 441 815 483 776 q 338 853 399 853 q 236 814 278 853 q 194 714 194 775 m 129 1167 q 183 1193 157 1186 q 233 1200 208 1200 q 285 1194 260 1200 q 335 1181 310 1189 q 384 1168 360 1174 q 433 1163 408 1163 q 489 1172 461 1163 q 546 1208 517 1182 l 546 1056 q 493 1031 518 1038 q 443 1024 468 1024 q 342 1042 392 1024 q 243 1061 293 1061 q 188 1051 215 1061 q 129 1014 160 1042 l 129 1167 z "},"ö":{"ha":678,"x_min":56,"x_max":622,"o":"m 56 0 l 56 715 q 78 826 56 775 q 138 913 100 876 q 228 971 176 950 q 339 992 281 992 q 449 971 397 992 q 540 913 501 950 q 600 826 578 876 q 622 715 622 775 l 622 0 l 56 0 m 581 139 l 581 567 q 477 470 542 504 q 339 436 413 436 q 201 470 265 436 q 97 567 136 504 l 97 139 l 581 139 m 194 714 q 237 613 194 651 q 340 575 279 575 q 442 614 400 575 q 483 714 483 653 q 441 815 483 776 q 338 853 399 853 q 236 814 278 853 q 194 714 194 775 m 442 1153 l 581 1153 l 581 1014 l 442 1014 l 442 1153 m 233 1153 l 233 1014 l 94 1014 l 94 1153 l 233 1153 z "},"ý":{"ha":893,"x_min":56,"x_max":949,"o":"m 56 0 l 56 878 q 149 960 97 931 q 268 989 200 989 q 365 969 324 989 q 433 917 406 950 q 473 839 460 883 q 486 743 486 794 q 463 595 486 668 q 406 451 440 522 q 329 314 371 381 q 251 185 288 247 l 254 182 q 363 358 307 272 q 478 532 419 444 q 625 753 553 643 q 776 972 697 864 l 949 972 l 228 0 l 56 0 m 96 533 l 96 53 q 200 188 143 114 q 307 341 257 261 q 390 505 357 421 q 424 668 424 589 q 417 729 424 696 q 397 792 411 763 q 360 840 383 821 q 300 860 336 860 q 212 824 250 860 q 148 738 174 789 q 109 630 122 686 q 96 533 96 574 m 400 1103 l 636 1339 l 744 1231 l 489 1014 l 400 1103 z "},"ü":{"ha":714,"x_min":42,"x_max":658,"o":"m 42 325 l 42 593 q 45 703 42 638 q 66 828 49 768 q 119 930 83 888 q 218 972 154 972 l 407 972 q 446 901 433 940 q 458 821 458 861 q 438 717 458 764 q 386 627 417 669 q 319 546 356 585 q 253 467 283 507 q 201 383 222 426 q 181 289 181 340 q 226 166 181 214 q 347 118 272 118 q 428 138 396 118 q 481 189 461 157 q 510 262 501 221 q 519 344 519 303 l 519 972 l 658 972 l 658 343 q 639 205 658 271 q 581 89 619 139 q 483 9 542 39 q 346 -21 424 -21 q 214 7 271 -21 q 119 82 157 35 q 61 192 81 129 q 42 325 42 256 m 319 821 q 292 898 319 865 q 217 931 264 931 q 138 891 165 931 q 96 797 110 851 q 79 685 82 742 q 76 593 76 628 l 74 353 q 114 487 75 426 q 199 602 153 547 q 282 710 244 657 q 319 821 319 763 m 519 1014 l 519 1153 l 658 1153 l 658 1014 l 519 1014 m 311 1153 l 311 1014 l 172 1014 l 172 1153 l 311 1153 z "},"û":{"ha":714,"x_min":42,"x_max":658,"o":"m 42 593 q 45 703 42 638 q 66 828 49 768 q 119 930 83 888 q 218 972 154 972 l 407 972 q 446 901 433 940 q 458 821 458 861 q 438 717 458 764 q 386 627 417 669 q 319 546 356 585 q 253 467 283 507 q 201 383 222 426 q 181 289 181 340 q 226 166 181 214 q 347 118 272 118 q 428 138 396 118 q 481 189 461 157 q 510 262 501 221 q 519 344 519 303 l 519 972 l 658 972 l 658 343 q 639 205 658 271 q 581 89 619 139 q 483 9 542 39 q 346 -21 424 -21 q 214 7 271 -21 q 119 82 157 35 q 61 192 81 129 q 42 325 42 256 l 42 593 m 319 821 q 292 898 319 865 q 217 931 264 931 q 138 891 165 931 q 96 797 110 851 q 79 685 82 742 q 76 593 76 628 l 74 353 q 114 487 75 426 q 199 602 153 547 q 282 710 244 657 q 319 821 319 763 m 282 1014 l 101 1014 l 204 1153 l 543 1153 l 646 1014 l 465 1014 l 374 1153 l 282 1014 z "},"ú":{"ha":714,"x_min":42,"x_max":658,"o":"m 42 325 l 42 593 q 45 703 42 638 q 66 828 49 768 q 119 930 83 888 q 218 972 154 972 l 407 972 q 446 901 433 940 q 458 821 458 861 q 438 717 458 764 q 386 627 417 669 q 319 546 356 585 q 253 467 283 507 q 201 383 222 426 q 181 289 181 340 q 226 166 181 214 q 347 118 272 118 q 428 138 396 118 q 481 189 461 157 q 510 262 501 221 q 519 344 519 303 l 519 972 l 658 972 l 658 343 q 639 205 658 271 q 581 89 619 139 q 483 9 542 39 q 346 -21 424 -21 q 214 7 271 -21 q 119 82 157 35 q 61 192 81 129 q 42 325 42 256 m 319 821 q 292 898 319 865 q 217 931 264 931 q 138 891 165 931 q 96 797 110 851 q 79 685 82 742 q 76 593 76 628 l 74 353 q 114 487 75 426 q 199 602 153 547 q 282 710 244 657 q 319 821 319 763 m 285 1103 l 521 1339 l 629 1231 l 374 1014 l 285 1103 z "},"ù":{"ha":714,"x_min":42,"x_max":658,"o":"m 42 325 l 42 593 q 45 703 42 638 q 66 828 49 768 q 119 930 83 888 q 218 972 154 972 l 407 972 q 446 901 433 940 q 458 821 458 861 q 438 717 458 764 q 386 627 417 669 q 319 546 356 585 q 253 467 283 507 q 201 383 222 426 q 181 289 181 340 q 226 166 181 214 q 347 118 272 118 q 428 138 396 118 q 481 189 461 157 q 510 262 501 221 q 519 344 519 303 l 519 972 l 658 972 l 658 343 q 639 205 658 271 q 581 89 619 139 q 483 9 542 39 q 346 -21 424 -21 q 214 7 271 -21 q 119 82 157 35 q 61 192 81 129 q 42 325 42 256 m 74 353 q 114 487 75 426 q 199 602 153 547 q 282 710 244 657 q 319 821 319 763 q 292 898 319 865 q 217 931 264 931 q 138 891 165 931 q 96 797 110 851 q 79 685 82 742 q 76 593 76 628 l 74 353 m 226 1339 l 463 1103 l 374 1014 l 118 1231 l 226 1339 z "},"ÿ":{"ha":893,"x_min":56,"x_max":949,"o":"m 56 0 l 56 878 q 149 960 97 931 q 268 989 200 989 q 365 969 324 989 q 433 917 406 950 q 473 839 460 883 q 486 743 486 794 q 463 595 486 668 q 406 451 440 522 q 329 314 371 381 q 251 185 288 247 l 254 182 q 363 358 307 272 q 478 532 419 444 q 625 753 553 643 q 776 972 697 864 l 949 972 l 228 0 l 56 0 m 96 53 q 200 188 143 114 q 307 341 257 261 q 390 505 357 421 q 424 668 424 589 q 417 729 424 696 q 397 792 411 763 q 360 840 383 821 q 300 860 336 860 q 212 824 250 860 q 148 738 174 789 q 109 630 122 686 q 96 533 96 574 l 96 53 m 593 1153 l 732 1153 l 732 1014 l 593 1014 l 593 1153 m 246 1153 l 385 1153 l 385 1014 l 246 1014 l 246 1153 z "},"Ā":{"ha":558,"x_min":0,"x_max":558,"o":"m 0 0 l 139 972 l 419 972 l 558 0 l 418 0 l 279 972 l 140 0 l 0 0 m 71 1014 l 71 1153 l 488 1153 l 488 1014 l 71 1014 z "},"ā":{"ha":764,"x_min":21,"x_max":778,"o":"m 21 138 q 42 243 21 196 q 94 332 63 290 q 162 414 125 374 q 230 501 199 454 q 282 603 261 547 q 303 729 303 658 q 299 785 303 751 q 288 853 294 818 q 271 921 281 889 q 250 972 261 953 l 399 972 l 778 0 l 629 0 l 486 365 q 485 249 490 313 q 457 130 479 185 q 392 38 435 75 q 281 0 350 0 l 63 0 q 31 66 40 31 q 21 138 21 101 m 281 42 q 366 69 333 42 q 418 137 399 96 q 444 225 438 178 q 451 313 451 272 q 441 431 451 375 q 414 542 431 488 q 376 649 397 596 q 333 758 356 703 q 314 577 340 657 q 253 428 288 497 q 190 297 219 360 q 160 169 160 235 q 191 77 160 113 q 281 42 222 42 m 150 1014 l 150 1153 l 567 1153 l 567 1014 l 150 1014 z "},"Ă":{"ha":558,"x_min":0,"x_max":558,"o":"m 140 0 l 0 0 l 139 972 l 419 972 l 558 0 l 418 0 l 279 972 l 140 0 m 196 1222 q 219 1163 196 1186 q 279 1139 243 1139 q 339 1163 315 1139 q 363 1222 363 1186 l 488 1222 q 472 1140 488 1178 q 428 1074 456 1101 q 362 1030 400 1046 q 279 1014 324 1014 q 197 1030 235 1014 q 131 1074 158 1046 q 87 1140 103 1101 q 71 1222 71 1178 l 196 1222 z "},"ă":{"ha":764,"x_min":21,"x_max":778,"o":"m 303 729 q 299 785 303 751 q 288 853 294 818 q 271 921 281 889 q 250 972 261 953 l 399 972 l 778 0 l 629 0 l 486 365 q 485 249 490 313 q 457 130 479 185 q 392 38 435 75 q 281 0 350 0 l 63 0 q 31 66 40 31 q 21 138 21 101 q 42 243 21 196 q 94 332 63 290 q 162 414 125 374 q 230 501 199 454 q 282 603 261 547 q 303 729 303 658 m 160 169 q 191 77 160 113 q 281 42 222 42 q 366 69 333 42 q 418 137 399 96 q 444 225 438 178 q 451 313 451 272 q 441 431 451 375 q 414 542 431 488 q 376 649 397 596 q 333 758 356 703 q 314 577 340 657 q 253 428 288 497 q 190 297 219 360 q 160 169 160 235 m 150 1222 l 275 1222 q 299 1163 275 1186 q 358 1139 322 1139 q 418 1163 394 1139 q 442 1222 442 1186 l 567 1222 q 551 1140 567 1178 q 507 1074 535 1101 q 441 1030 479 1046 q 358 1014 403 1014 q 276 1030 314 1014 q 210 1074 238 1046 q 166 1140 182 1101 q 150 1222 150 1178 z "},"Ć":{"ha":938,"x_min":21,"x_max":882,"o":"m 21 486 q 60 688 21 594 q 166 848 99 781 q 326 954 233 915 q 528 993 419 993 q 718 959 626 993 q 882 856 810 925 l 882 590 q 831 700 865 651 q 751 783 797 749 q 647 836 704 818 q 528 854 590 854 q 381 826 449 854 q 265 749 314 799 q 188 633 215 700 q 160 486 160 565 q 188 340 160 407 q 265 223 215 272 q 381 146 314 174 q 528 118 449 118 q 647 136 590 118 q 751 189 704 154 q 831 272 797 224 q 882 382 865 321 l 882 117 q 718 13 810 47 q 528 -21 626 -21 q 326 18 419 -21 q 166 124 233 57 q 60 285 99 192 q 21 486 21 378 m 418 1103 l 654 1339 l 763 1231 l 507 1014 l 418 1103 z "},"ć":{"ha":982,"x_min":21,"x_max":926,"o":"m 21 486 q 60 688 21 594 q 166 848 99 781 q 326 954 233 915 q 528 993 419 993 q 749 946 644 993 q 926 807 853 899 l 926 165 q 749 26 853 74 q 528 -21 644 -21 q 326 18 419 -21 q 166 124 233 57 q 60 285 99 192 q 21 486 21 378 m 528 118 q 674 146 607 118 q 791 223 742 174 q 868 340 840 272 q 896 486 896 407 q 868 633 896 565 q 791 749 840 700 q 674 826 742 799 q 528 854 607 854 q 381 826 449 854 q 265 749 314 799 q 188 633 215 700 q 160 486 160 565 q 188 340 160 407 q 265 223 215 272 q 381 146 314 174 q 528 118 449 118 m 436 1103 l 672 1339 l 781 1231 l 525 1014 l 436 1103 z "},"Ĉ":{"ha":938,"x_min":21,"x_max":882,"o":"m 21 486 q 60 688 21 594 q 166 848 99 781 q 326 954 233 915 q 528 993 419 993 q 718 959 626 993 q 882 856 810 925 l 882 590 q 831 700 865 651 q 751 783 797 749 q 647 836 704 818 q 528 854 590 854 q 381 826 449 854 q 265 749 314 799 q 188 633 215 700 q 160 486 160 565 q 188 340 160 407 q 265 223 215 272 q 381 146 314 174 q 528 118 449 118 q 647 136 590 118 q 751 189 704 154 q 831 272 797 224 q 882 382 865 321 l 882 117 q 718 13 810 47 q 528 -21 626 -21 q 326 18 419 -21 q 166 124 233 57 q 60 285 99 192 q 21 486 21 378 m 235 1014 l 338 1153 l 676 1153 l 779 1014 l 599 1014 l 507 1153 l 415 1014 l 235 1014 z "},"ĉ":{"ha":982,"x_min":21,"x_max":926,"o":"m 21 486 q 60 688 21 594 q 166 848 99 781 q 326 954 233 915 q 528 993 419 993 q 749 946 644 993 q 926 807 853 899 l 926 165 q 749 26 853 74 q 528 -21 644 -21 q 326 18 419 -21 q 166 124 233 57 q 60 285 99 192 q 21 486 21 378 m 528 118 q 674 146 607 118 q 791 223 742 174 q 868 340 840 272 q 896 486 896 407 q 868 633 896 565 q 791 749 840 700 q 674 826 742 799 q 528 854 607 854 q 381 826 449 854 q 265 749 314 799 q 188 633 215 700 q 160 486 160 565 q 188 340 160 407 q 265 223 215 272 q 381 146 314 174 q 528 118 449 118 m 253 1014 l 356 1153 l 694 1153 l 797 1014 l 617 1014 l 525 1153 l 433 1014 l 253 1014 z "},"Ċ":{"ha":938,"x_min":21,"x_max":882,"o":"m 21 486 q 60 688 21 594 q 166 848 99 781 q 326 954 233 915 q 528 993 419 993 q 718 959 626 993 q 882 856 810 925 l 882 590 q 831 700 865 651 q 751 783 797 749 q 647 836 704 818 q 528 854 590 854 q 381 826 449 854 q 265 749 314 799 q 188 633 215 700 q 160 486 160 565 q 188 340 160 407 q 265 223 215 272 q 381 146 314 174 q 528 118 449 118 q 647 136 590 118 q 751 189 704 154 q 831 272 797 224 q 882 382 865 321 l 882 117 q 718 13 810 47 q 528 -21 626 -21 q 326 18 419 -21 q 166 124 233 57 q 60 285 99 192 q 21 486 21 378 m 590 1153 l 590 1014 l 424 1014 l 424 1153 l 590 1153 z "},"ċ":{"ha":982,"x_min":21,"x_max":926,"o":"m 21 486 q 60 688 21 594 q 166 848 99 781 q 326 954 233 915 q 528 993 419 993 q 749 946 644 993 q 926 807 853 899 l 926 165 q 749 26 853 74 q 528 -21 644 -21 q 326 18 419 -21 q 166 124 233 57 q 60 285 99 192 q 21 486 21 378 m 160 486 q 188 340 160 407 q 265 223 215 272 q 381 146 314 174 q 528 118 449 118 q 674 146 607 118 q 791 223 742 174 q 868 340 840 272 q 896 486 896 407 q 868 633 896 565 q 791 749 840 700 q 674 826 742 799 q 528 854 607 854 q 381 826 449 854 q 265 749 314 799 q 188 633 215 700 q 160 486 160 565 m 442 1153 l 608 1153 l 608 1014 l 442 1014 l 442 1153 z "},"Č":{"ha":938,"x_min":21,"x_max":882,"o":"m 21 486 q 60 688 21 594 q 166 848 99 781 q 326 954 233 915 q 528 993 419 993 q 718 959 626 993 q 882 856 810 925 l 882 590 q 831 700 865 651 q 751 783 797 749 q 647 836 704 818 q 528 854 590 854 q 381 826 449 854 q 265 749 314 799 q 188 633 215 700 q 160 486 160 565 q 188 340 160 407 q 265 223 215 272 q 381 146 314 174 q 528 118 449 118 q 647 136 590 118 q 751 189 704 154 q 831 272 797 224 q 882 382 865 321 l 882 117 q 718 13 810 47 q 528 -21 626 -21 q 326 18 419 -21 q 166 124 233 57 q 60 285 99 192 q 21 486 21 378 m 235 1153 l 415 1153 l 507 1014 l 599 1153 l 779 1153 l 676 1014 l 338 1014 l 235 1153 z "},"č":{"ha":982,"x_min":21,"x_max":926,"o":"m 21 486 q 60 688 21 594 q 166 848 99 781 q 326 954 233 915 q 528 993 419 993 q 749 946 644 993 q 926 807 853 899 l 926 165 q 749 26 853 74 q 528 -21 644 -21 q 326 18 419 -21 q 166 124 233 57 q 60 285 99 192 q 21 486 21 378 m 528 118 q 674 146 607 118 q 791 223 742 174 q 868 340 840 272 q 896 486 896 407 q 868 633 896 565 q 791 749 840 700 q 674 826 742 799 q 528 854 607 854 q 381 826 449 854 q 265 749 314 799 q 188 633 215 700 q 160 486 160 565 q 188 340 160 407 q 265 223 215 272 q 381 146 314 174 q 528 118 449 118 m 253 1153 l 433 1153 l 525 1014 l 617 1153 l 797 1153 l 694 1014 l 356 1014 l 253 1153 z "},"Ď":{"ha":979,"x_min":69,"x_max":958,"o":"m 69 972 l 481 972 q 669 934 582 972 q 820 830 756 896 q 922 675 885 764 q 958 483 958 586 q 922 292 958 381 q 820 139 885 204 q 669 37 756 74 q 481 0 582 0 l 69 0 l 69 972 m 482 139 q 616 165 554 139 q 723 236 678 190 q 794 345 768 282 q 819 483 819 408 q 794 621 819 557 q 723 732 768 685 q 616 806 678 779 q 482 833 554 833 l 208 833 l 208 139 l 482 139 m 275 1014 l 172 1153 l 353 1153 l 444 1014 l 536 1153 l 717 1153 l 614 1014 l 275 1014 z "},"ď":{"ha":1076,"x_min":56,"x_max":1056,"o":"m 56 704 q 78 815 56 765 q 138 902 100 865 q 228 959 176 939 q 339 979 279 979 l 578 979 q 768 940 681 979 q 919 835 856 901 q 1019 678 983 768 q 1056 488 1056 589 q 1019 297 1056 386 q 919 142 983 208 q 768 38 856 76 q 578 0 681 0 l 56 0 l 56 704 m 579 139 q 715 166 653 139 q 822 240 778 193 q 892 350 867 286 q 917 486 917 414 q 866 677 917 589 q 719 810 815 765 l 219 139 l 579 139 m 194 700 q 235 600 194 638 q 336 563 275 563 q 444 588 394 563 q 537 652 494 614 q 615 737 579 690 q 682 825 651 783 q 579 840 629 840 l 338 840 q 235 801 276 840 q 194 700 194 763 m 550 647 q 494 584 525 618 q 428 521 464 550 q 353 472 393 492 q 272 451 314 451 q 171 480 217 451 q 97 554 125 508 l 97 39 l 550 647 m 343 1153 l 240 1292 l 421 1292 l 513 1153 l 604 1292 l 785 1292 l 682 1153 l 343 1153 z "},"Ē":{"ha":624,"x_min":69,"x_max":568,"o":"m 568 972 l 568 833 l 208 833 l 208 556 l 568 556 l 568 417 l 208 417 l 208 139 l 568 139 l 568 0 l 69 0 l 69 972 l 568 972 m 528 1153 l 528 1014 l 111 1014 l 111 1153 l 528 1153 z "},"ē":{"ha":696,"x_min":69,"x_max":744,"o":"m 744 972 q 615 923 686 958 q 480 838 543 888 q 374 727 417 789 q 332 597 332 665 q 363 504 332 542 q 451 467 393 467 q 531 490 497 467 q 589 548 565 513 q 624 626 613 583 q 636 708 636 669 l 636 386 q 474 329 564 329 q 386 347 424 329 q 324 394 349 364 q 286 465 299 425 q 274 553 274 506 q 311 708 274 639 q 413 833 349 778 l 208 833 l 208 139 l 638 139 l 638 0 l 69 0 l 69 972 l 744 972 m 153 1181 l 569 1181 l 569 1042 l 153 1042 l 153 1181 z "},"Ĕ":{"ha":624,"x_min":69,"x_max":568,"o":"m 69 0 l 69 972 l 568 972 l 568 833 l 208 833 l 208 556 l 568 556 l 568 417 l 208 417 l 208 139 l 568 139 l 568 0 l 69 0 m 111 1222 l 236 1222 q 260 1163 236 1186 q 319 1139 283 1139 q 379 1163 356 1139 q 403 1222 403 1186 l 528 1222 q 512 1140 528 1178 q 468 1074 496 1101 q 402 1030 440 1046 q 319 1014 364 1014 q 237 1030 275 1014 q 171 1074 199 1046 q 127 1140 143 1101 q 111 1222 111 1178 z "},"ĕ":{"ha":696,"x_min":69,"x_max":744,"o":"m 69 972 l 744 972 q 615 923 686 958 q 480 838 543 888 q 374 727 417 789 q 332 597 332 665 q 363 504 332 542 q 451 467 393 467 q 531 490 497 467 q 589 548 565 513 q 624 626 613 583 q 636 708 636 669 l 636 386 q 474 329 564 329 q 386 347 424 329 q 324 394 349 364 q 286 465 299 425 q 274 553 274 506 q 311 708 274 639 q 413 833 349 778 l 208 833 l 208 139 l 638 139 l 638 0 l 69 0 l 69 972 m 278 1250 q 301 1190 278 1214 q 361 1167 325 1167 q 421 1190 397 1167 q 444 1250 444 1214 l 569 1250 q 553 1167 569 1206 q 510 1101 538 1129 q 444 1058 482 1074 q 361 1042 406 1042 q 278 1058 317 1042 q 213 1101 240 1074 q 169 1167 185 1129 q 153 1250 153 1206 l 278 1250 z "},"Ė":{"ha":624,"x_min":69,"x_max":568,"o":"m 69 0 l 69 972 l 568 972 l 568 833 l 208 833 l 208 556 l 568 556 l 568 417 l 208 417 l 208 139 l 568 139 l 568 0 l 69 0 m 403 1153 l 403 1014 l 236 1014 l 236 1153 l 403 1153 z "},"ė":{"ha":696,"x_min":69,"x_max":744,"o":"m 744 972 q 615 923 686 958 q 480 838 543 888 q 374 727 417 789 q 332 597 332 665 q 363 504 332 542 q 451 467 393 467 q 531 490 497 467 q 589 548 565 513 q 624 626 613 583 q 636 708 636 669 l 636 386 q 474 329 564 329 q 386 347 424 329 q 324 394 349 364 q 286 465 299 425 q 274 553 274 506 q 311 708 274 639 q 413 833 349 778 l 208 833 l 208 139 l 638 139 l 638 0 l 69 0 l 69 972 l 744 972 m 444 1181 l 444 1042 l 278 1042 l 278 1181 l 444 1181 z "},"Ě":{"ha":624,"x_min":47,"x_max":592,"o":"m 69 972 l 568 972 l 568 833 l 208 833 l 208 556 l 568 556 l 568 417 l 208 417 l 208 139 l 568 139 l 568 0 l 69 0 l 69 972 m 47 1153 l 228 1153 l 319 1014 l 411 1153 l 592 1153 l 489 1014 l 150 1014 l 47 1153 z "},"ě":{"ha":696,"x_min":69,"x_max":744,"o":"m 69 0 l 69 972 l 744 972 q 615 923 686 958 q 480 838 543 888 q 374 727 417 789 q 332 597 332 665 q 363 504 332 542 q 451 467 393 467 q 531 490 497 467 q 589 548 565 513 q 624 626 613 583 q 636 708 636 669 l 636 386 q 474 329 564 329 q 386 347 424 329 q 324 394 349 364 q 286 465 299 425 q 274 553 274 506 q 311 708 274 639 q 413 833 349 778 l 208 833 l 208 139 l 638 139 l 638 0 l 69 0 m 192 1042 l 89 1181 l 269 1181 l 361 1042 l 453 1181 l 633 1181 l 531 1042 l 192 1042 z "},"Ĝ":{"ha":938,"x_min":21,"x_max":882,"o":"m 528 993 q 724 957 633 993 q 882 856 814 921 l 882 590 q 833 697 865 649 q 754 781 800 746 q 651 835 708 815 q 528 854 593 854 q 381 826 449 854 q 265 749 314 799 q 188 633 215 700 q 160 486 160 565 q 188 340 160 407 q 265 223 215 272 q 381 146 314 174 q 528 118 449 118 q 739 181 649 118 q 869 346 829 243 l 389 346 l 389 485 l 882 485 l 882 117 q 724 15 814 51 q 528 -21 633 -21 q 326 18 419 -21 q 166 124 233 57 q 60 285 99 192 q 21 486 21 378 q 60 688 21 594 q 166 848 99 781 q 326 954 233 915 q 528 993 419 993 m 415 1014 l 235 1014 l 338 1153 l 676 1153 l 779 1014 l 599 1014 l 507 1153 l 415 1014 z "},"ĝ":{"ha":989,"x_min":21,"x_max":926,"o":"m 21 469 q 58 675 21 579 q 161 842 94 771 q 321 953 228 913 q 526 993 414 993 q 749 944 644 993 q 926 801 853 896 l 926 0 l 788 0 l 788 465 l 315 465 q 440 454 375 465 q 558 415 504 443 q 646 338 611 386 q 681 217 681 290 q 660 118 681 161 q 605 46 640 75 q 524 2 569 17 q 425 -12 478 -12 q 252 30 328 -12 q 125 140 176 72 q 47 295 74 208 q 21 469 21 382 m 892 507 q 858 647 888 583 q 778 757 828 711 q 663 828 729 803 q 521 854 597 854 q 379 828 443 854 q 269 756 315 803 q 194 646 222 710 q 161 507 167 582 l 892 507 m 161 465 q 176 351 161 411 q 222 242 192 292 q 299 159 253 192 q 410 126 346 126 q 511 159 467 126 q 556 254 556 192 q 525 348 556 308 q 449 413 494 388 q 352 452 404 439 q 256 465 300 465 l 161 465 m 229 1014 l 332 1153 l 671 1153 l 774 1014 l 593 1014 l 501 1153 l 410 1014 l 229 1014 z "},"Ğ":{"ha":938,"x_min":21,"x_max":882,"o":"m 528 993 q 724 957 633 993 q 882 856 814 921 l 882 590 q 833 697 865 649 q 754 781 800 746 q 651 835 708 815 q 528 854 593 854 q 381 826 449 854 q 265 749 314 799 q 188 633 215 700 q 160 486 160 565 q 188 340 160 407 q 265 223 215 272 q 381 146 314 174 q 528 118 449 118 q 739 181 649 118 q 869 346 829 243 l 389 346 l 389 485 l 882 485 l 882 117 q 724 15 814 51 q 528 -21 633 -21 q 326 18 419 -21 q 166 124 233 57 q 60 285 99 192 q 21 486 21 378 q 60 688 21 594 q 166 848 99 781 q 326 954 233 915 q 528 993 419 993 m 299 1222 l 424 1222 q 447 1163 424 1186 q 507 1139 471 1139 q 567 1163 543 1139 q 590 1222 590 1186 l 715 1222 q 699 1140 715 1178 q 656 1074 683 1101 q 590 1030 628 1046 q 507 1014 551 1014 q 424 1030 463 1014 q 358 1074 386 1046 q 315 1140 331 1101 q 299 1222 299 1178 z "},"ğ":{"ha":989,"x_min":21,"x_max":926,"o":"m 21 469 q 58 675 21 579 q 161 842 94 771 q 321 953 228 913 q 526 993 414 993 q 749 944 644 993 q 926 801 853 896 l 926 0 l 788 0 l 788 465 l 315 465 q 440 454 375 465 q 558 415 504 443 q 646 338 611 386 q 681 217 681 290 q 660 118 681 161 q 605 46 640 75 q 524 2 569 17 q 425 -12 478 -12 q 252 30 328 -12 q 125 140 176 72 q 47 295 74 208 q 21 469 21 382 m 892 507 q 858 647 888 583 q 778 757 828 711 q 663 828 729 803 q 521 854 597 854 q 379 828 443 854 q 269 756 315 803 q 194 646 222 710 q 161 507 167 582 l 892 507 m 161 465 q 176 351 161 411 q 222 242 192 292 q 299 159 253 192 q 410 126 346 126 q 511 159 467 126 q 556 254 556 192 q 525 348 556 308 q 449 413 494 388 q 352 452 404 439 q 256 465 300 465 l 161 465 m 418 1222 q 442 1163 418 1186 q 501 1139 465 1139 q 561 1163 538 1139 q 585 1222 585 1186 l 710 1222 q 694 1140 710 1178 q 650 1074 678 1101 q 584 1030 622 1046 q 501 1014 546 1014 q 419 1030 457 1014 q 353 1074 381 1046 q 309 1140 325 1101 q 293 1222 293 1178 l 418 1222 z "},"Ġ":{"ha":938,"x_min":21,"x_max":882,"o":"m 21 486 q 60 688 21 594 q 166 848 99 781 q 326 954 233 915 q 528 993 419 993 q 724 957 633 993 q 882 856 814 921 l 882 590 q 833 697 865 649 q 754 781 800 746 q 651 835 708 815 q 528 854 593 854 q 381 826 449 854 q 265 749 314 799 q 188 633 215 700 q 160 486 160 565 q 188 340 160 407 q 265 223 215 272 q 381 146 314 174 q 528 118 449 118 q 739 181 649 118 q 869 346 829 243 l 389 346 l 389 485 l 882 485 l 882 117 q 724 15 814 51 q 528 -21 633 -21 q 326 18 419 -21 q 166 124 233 57 q 60 285 99 192 q 21 486 21 378 m 424 1014 l 424 1153 l 590 1153 l 590 1014 l 424 1014 z "},"ġ":{"ha":989,"x_min":21,"x_max":926,"o":"m 21 469 q 58 675 21 579 q 161 842 94 771 q 321 953 228 913 q 526 993 414 993 q 749 944 644 993 q 926 801 853 896 l 926 0 l 788 0 l 788 465 l 315 465 q 440 454 375 465 q 558 415 504 443 q 646 338 611 386 q 681 217 681 290 q 660 118 681 161 q 605 46 640 75 q 524 2 569 17 q 425 -12 478 -12 q 252 30 328 -12 q 125 140 176 72 q 47 295 74 208 q 21 469 21 382 m 892 507 q 858 647 888 583 q 778 757 828 711 q 663 828 729 803 q 521 854 597 854 q 379 828 443 854 q 269 756 315 803 q 194 646 222 710 q 161 507 167 582 l 892 507 m 161 465 q 176 351 161 411 q 222 242 192 292 q 299 159 253 192 q 410 126 346 126 q 511 159 467 126 q 556 254 556 192 q 525 348 556 308 q 449 413 494 388 q 352 452 404 439 q 256 465 300 465 l 161 465 m 585 1153 l 585 1014 l 418 1014 l 418 1153 l 585 1153 z "},"Ĥ":{"ha":1028,"x_min":69,"x_max":958,"o":"m 69 972 l 208 972 l 208 556 l 819 556 l 819 972 l 958 972 l 958 0 l 819 0 l 819 417 l 208 417 l 208 0 l 69 0 l 69 972 m 422 1014 l 242 1014 l 344 1153 l 683 1153 l 786 1014 l 606 1014 l 514 1153 l 422 1014 z "},"ĥ":{"ha":938,"x_min":14,"x_max":868,"o":"m 14 742 q 34 842 14 796 q 89 922 54 889 q 170 974 124 956 q 271 993 217 993 q 415 958 347 993 q 525 857 483 922 l 333 492 q 417 486 371 486 l 729 486 l 729 972 l 868 972 l 868 0 l 729 0 l 729 444 l 418 444 l 178 0 l 19 0 l 272 467 q 174 501 221 478 q 91 559 126 525 q 35 639 56 593 q 14 742 14 685 m 83 711 q 101 631 83 667 q 147 569 118 596 q 214 525 176 543 q 290 499 251 507 l 422 751 q 350 840 396 804 q 243 875 304 875 q 128 828 172 875 q 83 711 83 781 m 196 1014 l 299 1153 l 638 1153 l 740 1014 l 560 1014 l 468 1153 l 376 1014 l 196 1014 z "},"Ĩ":{"ha":278,"x_min":-69,"x_max":347,"o":"m 208 972 l 208 0 l 69 0 l 69 972 l 208 972 m -69 1014 l -69 1167 q -16 1193 -42 1186 q 35 1200 10 1200 q 86 1194 61 1200 q 136 1181 111 1189 q 185 1168 161 1174 q 235 1163 210 1163 q 290 1172 263 1163 q 347 1208 318 1182 l 347 1056 q 294 1031 319 1038 q 244 1024 269 1024 q 144 1042 193 1024 q 44 1061 94 1061 q -11 1051 17 1061 q -69 1014 -39 1042 z "},"ĩ":{"ha":739,"x_min":56,"x_max":739,"o":"m 56 0 l 56 925 q 133 974 92 956 q 224 992 175 992 q 328 967 282 992 q 406 903 374 943 q 455 813 438 864 q 472 708 472 763 l 472 139 l 739 139 l 739 0 l 56 0 m 97 139 l 333 139 l 333 933 q 208 894 254 933 q 136 796 161 856 q 104 667 111 736 q 97 536 97 597 l 97 139 m 543 1208 l 543 1056 q 490 1031 515 1038 q 440 1024 465 1024 q 340 1042 389 1024 q 240 1061 290 1061 q 185 1051 213 1061 q 126 1014 157 1042 l 126 1167 q 180 1193 154 1186 q 231 1200 206 1200 q 282 1194 257 1200 q 332 1181 307 1189 q 381 1168 357 1174 q 431 1163 406 1163 q 486 1172 458 1163 q 543 1208 514 1182 z "},"Ī":{"ha":278,"x_min":-69,"x_max":347,"o":"m 69 972 l 208 972 l 208 0 l 69 0 l 69 972 m -69 1153 l 347 1153 l 347 1014 l -69 1014 l -69 1153 z "},"ī":{"ha":739,"x_min":56,"x_max":739,"o":"m 56 925 q 133 974 92 956 q 224 992 175 992 q 328 967 282 992 q 406 903 374 943 q 455 813 438 864 q 472 708 472 763 l 472 139 l 739 139 l 739 0 l 56 0 l 56 925 m 97 139 l 333 139 l 333 933 q 208 894 254 933 q 136 796 161 856 q 104 667 111 736 q 97 536 97 597 l 97 139 m 126 1153 l 543 1153 l 543 1014 l 126 1014 l 126 1153 z "},"Ĵ":{"ha":500,"x_min":-36,"x_max":508,"o":"m 444 972 l 444 263 q 424 152 444 204 q 366 62 403 100 q 278 1 329 24 q 168 -21 228 -21 q 96 -12 132 -21 q 28 17 60 -3 l 28 261 q 67 160 28 201 q 167 118 106 118 q 267 160 228 118 q 306 261 306 201 l 306 833 l 28 833 l 28 972 l 444 972 m 144 1014 l -36 1014 l 67 1153 l 406 1153 l 508 1014 l 328 1014 l 236 1153 l 144 1014 z "},"ĵ":{"ha":569,"x_min":13,"x_max":557,"o":"m 56 972 l 514 972 l 514 268 q 493 158 514 210 q 435 67 472 106 q 348 7 399 29 q 238 -15 297 -15 q 56 51 133 -15 l 56 972 m 97 440 q 108 298 97 368 q 149 173 119 228 q 233 85 179 118 q 375 51 288 51 l 375 833 l 97 833 l 97 440 m 13 1014 l 115 1153 l 454 1153 l 557 1014 l 376 1014 l 285 1153 l 193 1014 l 13 1014 z "},"Ķ":{"ha":646,"x_min":69,"x_max":646,"o":"m 69 972 l 208 972 l 208 488 l 485 972 l 644 972 l 368 488 l 646 0 l 486 0 l 208 488 l 208 0 l 69 0 l 69 972 m 253 -347 l 253 -71 l 406 -71 l 378 -347 l 253 -347 z "},"ķ":{"ha":825,"x_min":69,"x_max":804,"o":"m 208 972 l 208 486 l 343 486 q 433 490 388 486 l 281 744 q 311 841 288 796 q 372 920 335 886 q 455 974 408 954 q 554 993 501 993 q 649 975 604 993 q 725 926 693 957 q 776 851 757 894 q 794 757 794 808 q 769 644 794 693 q 701 559 743 594 q 606 501 660 524 q 499 467 553 478 l 804 0 l 638 0 l 347 444 l 208 444 l 208 0 l 69 0 l 69 972 l 208 972 m 479 499 q 562 522 519 506 q 639 564 604 538 q 696 627 674 590 q 718 714 718 664 q 707 772 718 744 q 676 821 696 800 q 631 853 657 842 q 572 865 604 865 q 505 849 533 865 q 457 804 476 832 q 428 742 438 776 q 418 671 418 707 q 479 499 418 575 m 489 -71 l 461 -347 l 336 -347 l 336 -71 l 489 -71 z "},"Ĺ":{"ha":568,"x_min":69,"x_max":568,"o":"m 69 972 l 208 972 l 208 139 l 568 139 l 568 0 l 69 0 l 69 972 m 561 1231 l 306 1014 l 217 1103 l 453 1339 l 561 1231 z "},"ĺ":{"ha":583,"x_min":69,"x_max":554,"o":"m 69 0 l 69 704 q 90 815 69 763 q 148 905 111 867 q 235 965 185 943 q 346 988 286 988 q 528 921 450 988 l 528 0 l 69 0 m 208 139 l 486 139 l 486 532 q 475 675 486 606 q 434 799 464 744 q 350 888 404 854 q 208 921 296 921 l 208 139 m 446 1339 l 554 1231 l 299 1014 l 210 1103 l 446 1339 z "},"Ļ":{"ha":568,"x_min":69,"x_max":568,"o":"m 69 972 l 208 972 l 208 139 l 568 139 l 568 0 l 69 0 l 69 972 m 399 -71 l 371 -347 l 246 -347 l 246 -71 l 399 -71 z "},"ļ":{"ha":583,"x_min":69,"x_max":528,"o":"m 69 704 q 90 815 69 763 q 148 905 111 867 q 235 965 185 943 q 346 988 286 988 q 528 921 450 988 l 528 0 l 69 0 l 69 704 m 486 139 l 486 532 q 475 675 486 606 q 434 799 464 744 q 350 888 404 854 q 208 921 296 921 l 208 139 l 486 139 m 225 -347 l 225 -71 l 378 -71 l 350 -347 l 225 -347 z "},"Ń":{"ha":839,"x_min":69,"x_max":769,"o":"m 69 972 l 353 972 l 631 0 l 631 972 l 769 972 l 769 0 l 486 0 l 208 972 l 208 0 l 69 0 l 69 972 m 331 1103 l 567 1339 l 675 1231 l 419 1014 l 331 1103 z "},"ń":{"ha":943,"x_min":69,"x_max":888,"o":"m 69 0 l 69 972 l 365 972 q 485 744 428 856 q 581 504 543 632 l 585 506 q 547 640 567 567 q 528 776 528 714 q 574 934 528 871 q 721 997 621 997 q 810 981 768 997 q 888 931 853 964 l 888 0 l 69 0 m 208 42 l 706 42 l 208 972 l 208 42 m 576 714 q 606 565 576 650 q 679 390 636 479 q 768 217 722 300 q 846 78 814 135 l 846 658 q 838 727 846 692 q 811 792 829 763 q 765 841 793 822 q 697 860 736 860 q 605 816 633 860 q 576 714 576 772 m 626 1339 l 735 1231 l 479 1014 l 390 1103 l 626 1339 z "},"Ņ":{"ha":839,"x_min":69,"x_max":769,"o":"m 69 0 l 69 972 l 353 972 l 631 0 l 631 972 l 769 972 l 769 0 l 486 0 l 208 972 l 208 0 l 69 0 m 499 -71 l 471 -347 l 346 -347 l 346 -71 l 499 -71 z "},"ņ":{"ha":943,"x_min":69,"x_max":888,"o":"m 69 0 l 69 972 l 365 972 q 485 744 428 856 q 581 504 543 632 l 585 506 q 547 640 567 567 q 528 776 528 714 q 574 934 528 871 q 721 997 621 997 q 810 981 768 997 q 888 931 853 964 l 888 0 l 69 0 m 208 42 l 706 42 l 208 972 l 208 42 m 576 714 q 606 565 576 650 q 679 390 636 479 q 768 217 722 300 q 846 78 814 135 l 846 658 q 838 727 846 692 q 811 792 829 763 q 765 841 793 822 q 697 860 736 860 q 605 816 633 860 q 576 714 576 772 m 558 -71 l 531 -347 l 406 -347 l 406 -71 l 558 -71 z "},"Ň":{"ha":839,"x_min":69,"x_max":769,"o":"m 69 972 l 353 972 l 631 0 l 631 972 l 769 972 l 769 0 l 486 0 l 208 972 l 208 0 l 69 0 l 69 972 m 147 1153 l 328 1153 l 419 1014 l 511 1153 l 692 1153 l 589 1014 l 250 1014 l 147 1153 z "},"ň":{"ha":943,"x_min":69,"x_max":888,"o":"m 888 0 l 69 0 l 69 972 l 365 972 q 485 744 428 856 q 581 504 543 632 l 585 506 q 547 640 567 567 q 528 776 528 714 q 574 934 528 871 q 721 997 621 997 q 810 981 768 997 q 888 931 853 964 l 888 0 m 706 42 l 208 972 l 208 42 l 706 42 m 846 78 l 846 658 q 838 727 846 692 q 811 792 829 763 q 765 841 793 822 q 697 860 736 860 q 605 816 633 860 q 576 714 576 772 q 606 565 576 650 q 679 390 636 479 q 768 217 722 300 q 846 78 814 135 m 207 1153 l 388 1153 l 479 1014 l 571 1153 l 751 1153 l 649 1014 l 310 1014 l 207 1153 z "},"ŉ":{"ha":943,"x_min":69,"x_max":888,"o":"m 69 0 l 69 972 l 365 972 q 485 744 428 856 q 581 504 543 632 l 585 506 q 547 640 567 567 q 528 776 528 714 q 574 934 528 871 q 721 997 621 997 q 810 981 768 997 q 888 931 853 964 l 888 0 l 69 0 m 208 42 l 706 42 l 208 972 l 208 42 m 576 714 q 606 565 576 650 q 679 390 636 479 q 768 217 722 300 q 846 78 814 135 l 846 658 q 838 727 846 692 q 811 792 829 763 q 765 841 793 822 q 697 860 736 860 q 605 816 633 860 q 576 714 576 772 m 558 -71 l 531 -347 l 406 -347 l 406 -71 l 558 -71 z "},"Ō":{"ha":1056,"x_min":21,"x_max":1035,"o":"m 528 993 q 729 954 636 993 q 890 848 822 915 q 996 688 957 781 q 1035 486 1035 594 q 996 285 1035 378 q 890 124 957 192 q 729 18 822 57 q 528 -21 636 -21 q 326 18 419 -21 q 166 124 233 57 q 60 285 99 192 q 21 486 21 378 q 60 688 21 594 q 166 848 99 781 q 326 954 233 915 q 528 993 419 993 m 528 118 q 674 146 607 118 q 791 223 742 174 q 868 340 840 272 q 896 486 896 407 q 868 633 896 565 q 791 749 840 700 q 674 826 742 799 q 528 854 607 854 q 381 826 449 854 q 265 749 314 799 q 188 633 215 700 q 160 486 160 565 q 188 340 160 407 q 265 223 215 272 q 381 146 314 174 q 528 118 449 118 m 736 1153 l 736 1014 l 319 1014 l 319 1153 l 736 1153 z "},"ō":{"ha":678,"x_min":56,"x_max":622,"o":"m 56 0 l 56 715 q 78 826 56 775 q 138 913 100 876 q 228 971 176 950 q 339 992 281 992 q 449 971 397 992 q 540 913 501 950 q 600 826 578 876 q 622 715 622 775 l 622 0 l 56 0 m 97 139 l 581 139 l 581 567 q 477 470 542 504 q 339 436 413 436 q 201 470 265 436 q 97 567 136 504 l 97 139 m 340 575 q 442 614 400 575 q 483 714 483 653 q 441 815 483 776 q 338 853 399 853 q 236 814 278 853 q 194 714 194 775 q 237 613 194 651 q 340 575 279 575 m 129 1014 l 129 1153 l 546 1153 l 546 1014 l 129 1014 z "},"Ŏ":{"ha":1056,"x_min":21,"x_max":1035,"o":"m 528 993 q 729 954 636 993 q 890 848 822 915 q 996 688 957 781 q 1035 486 1035 594 q 996 285 1035 378 q 890 124 957 192 q 729 18 822 57 q 528 -21 636 -21 q 326 18 419 -21 q 166 124 233 57 q 60 285 99 192 q 21 486 21 378 q 60 688 21 594 q 166 848 99 781 q 326 954 233 915 q 528 993 419 993 m 528 118 q 674 146 607 118 q 791 223 742 174 q 868 340 840 272 q 896 486 896 407 q 868 633 896 565 q 791 749 840 700 q 674 826 742 799 q 528 854 607 854 q 381 826 449 854 q 265 749 314 799 q 188 633 215 700 q 160 486 160 565 q 188 340 160 407 q 265 223 215 272 q 381 146 314 174 q 528 118 449 118 m 319 1222 l 444 1222 q 468 1163 444 1186 q 528 1139 492 1139 q 588 1163 564 1139 q 611 1222 611 1186 l 736 1222 q 720 1140 736 1178 q 676 1074 704 1101 q 610 1030 649 1046 q 528 1014 572 1014 q 445 1030 483 1014 q 379 1074 407 1046 q 335 1140 351 1101 q 319 1222 319 1178 z "},"ŏ":{"ha":678,"x_min":56,"x_max":622,"o":"m 339 992 q 449 971 397 992 q 540 913 501 950 q 600 826 578 876 q 622 715 622 775 l 622 0 l 56 0 l 56 715 q 78 826 56 775 q 138 913 100 876 q 228 971 176 950 q 339 992 281 992 m 581 139 l 581 567 q 477 470 542 504 q 339 436 413 436 q 201 470 265 436 q 97 567 136 504 l 97 139 l 581 139 m 194 714 q 237 613 194 651 q 340 575 279 575 q 442 614 400 575 q 483 714 483 653 q 441 815 483 776 q 338 853 399 853 q 236 814 278 853 q 194 714 194 775 m 129 1222 l 254 1222 q 278 1163 254 1186 q 338 1139 301 1139 q 397 1163 374 1139 q 421 1222 421 1186 l 546 1222 q 530 1140 546 1178 q 486 1074 514 1101 q 420 1030 458 1046 q 338 1014 382 1014 q 255 1030 293 1014 q 189 1074 217 1046 q 145 1140 161 1101 q 129 1222 129 1178 z "},"Ő":{"ha":1056,"x_min":21,"x_max":1035,"o":"m 528 993 q 729 954 636 993 q 890 848 822 915 q 996 688 957 781 q 1035 486 1035 594 q 996 285 1035 378 q 890 124 957 192 q 729 18 822 57 q 528 -21 636 -21 q 326 18 419 -21 q 166 124 233 57 q 60 285 99 192 q 21 486 21 378 q 60 688 21 594 q 166 848 99 781 q 326 954 233 915 q 528 993 419 993 m 528 118 q 674 146 607 118 q 791 223 742 174 q 868 340 840 272 q 896 486 896 407 q 868 633 896 565 q 791 749 840 700 q 674 826 742 799 q 528 854 607 854 q 381 826 449 854 q 265 749 314 799 q 188 633 215 700 q 160 486 160 565 q 188 340 160 407 q 265 223 215 272 q 381 146 314 174 q 528 118 449 118 m 578 1103 l 814 1339 l 922 1231 l 667 1014 l 578 1103 m 300 1103 l 536 1339 l 644 1231 l 389 1014 l 300 1103 z "},"ő":{"ha":678,"x_min":56,"x_max":732,"o":"m 56 0 l 56 715 q 78 826 56 775 q 138 913 100 876 q 228 971 176 950 q 339 992 281 992 q 449 971 397 992 q 540 913 501 950 q 600 826 578 876 q 622 715 622 775 l 622 0 l 56 0 m 97 139 l 581 139 l 581 567 q 477 470 542 504 q 339 436 413 436 q 201 470 265 436 q 97 567 136 504 l 97 139 m 194 714 q 237 613 194 651 q 340 575 279 575 q 442 614 400 575 q 483 714 483 653 q 441 815 483 776 q 338 853 399 853 q 236 814 278 853 q 194 714 194 775 m 388 1103 l 624 1339 l 732 1231 l 476 1014 l 388 1103 m 110 1103 l 346 1339 l 454 1231 l 199 1014 l 110 1103 z "},"Ŕ":{"ha":951,"x_min":69,"x_max":924,"o":"m 69 972 l 610 972 q 720 951 668 972 q 810 893 772 931 q 871 805 849 856 q 893 694 893 754 q 819 511 893 565 q 626 457 746 457 q 488 472 560 457 l 488 468 q 642 399 578 447 q 755 287 706 351 q 843 148 804 222 q 924 0 882 74 l 764 0 l 522 417 l 208 417 l 208 0 l 69 0 l 69 972 m 208 556 l 610 556 q 712 594 669 556 q 754 694 754 633 q 712 794 754 756 q 610 833 669 833 l 208 833 l 208 556 m 574 1339 l 682 1231 l 426 1014 l 338 1103 l 574 1339 z "},"ŕ":{"ha":947,"x_min":69,"x_max":906,"o":"m 622 972 q 733 951 681 972 q 823 893 785 931 q 883 805 861 856 q 906 694 906 754 l 906 536 q 903 438 906 494 q 892 322 900 382 q 867 205 883 263 q 821 101 850 147 q 750 28 792 56 q 649 0 708 0 l 425 0 q 389 110 389 49 q 416 208 389 163 q 483 292 443 254 q 569 362 522 331 q 656 418 617 393 q 639 417 647 417 q 622 417 631 417 l 208 417 l 208 0 l 69 0 l 69 972 l 622 972 m 208 556 l 594 556 q 656 564 626 556 q 710 590 686 572 q 747 633 733 607 q 761 694 761 660 q 747 755 761 729 q 709 798 732 781 q 656 824 686 815 q 594 833 626 833 l 208 833 l 208 556 m 647 42 q 735 69 699 42 q 797 142 772 97 q 835 244 821 188 q 857 357 850 300 q 866 465 864 414 q 868 553 868 517 q 783 466 840 506 q 669 384 726 426 q 570 290 613 342 q 528 163 528 238 q 560 74 528 107 q 647 42 592 42 m 385 1103 l 621 1339 l 729 1231 l 474 1014 l 385 1103 z "},"Ŗ":{"ha":951,"x_min":69,"x_max":924,"o":"m 69 972 l 610 972 q 720 951 668 972 q 810 893 772 931 q 871 805 849 856 q 893 694 893 754 q 819 511 893 565 q 626 457 746 457 q 488 472 560 457 l 488 468 q 642 399 578 447 q 755 287 706 351 q 843 148 804 222 q 924 0 882 74 l 764 0 l 522 417 l 208 417 l 208 0 l 69 0 l 69 972 m 208 556 l 610 556 q 712 594 669 556 q 754 694 754 633 q 712 794 754 756 q 610 833 669 833 l 208 833 l 208 556 m 561 -71 l 533 -347 l 408 -347 l 408 -71 l 561 -71 z "},"ŗ":{"ha":947,"x_min":69,"x_max":906,"o":"m 622 972 q 733 951 681 972 q 823 893 785 931 q 883 805 861 856 q 906 694 906 754 l 906 536 q 903 438 906 494 q 892 322 900 382 q 867 205 883 263 q 821 101 850 147 q 750 28 792 56 q 649 0 708 0 l 425 0 q 389 110 389 49 q 416 208 389 163 q 483 292 443 254 q 569 362 522 331 q 656 418 617 393 q 639 417 647 417 q 622 417 631 417 l 208 417 l 208 0 l 69 0 l 69 972 l 622 972 m 208 556 l 594 556 q 656 564 626 556 q 710 590 686 572 q 747 633 733 607 q 761 694 761 660 q 747 755 761 729 q 709 798 732 781 q 656 824 686 815 q 594 833 626 833 l 208 833 l 208 556 m 647 42 q 735 69 699 42 q 797 142 772 97 q 835 244 821 188 q 857 357 850 300 q 866 465 864 414 q 868 553 868 517 q 783 466 840 506 q 669 384 726 426 q 570 290 613 342 q 528 163 528 238 q 560 74 528 107 q 647 42 592 42 m 553 -71 l 525 -347 l 400 -347 l 400 -71 l 553 -71 z "},"Ř":{"ha":951,"x_min":69,"x_max":924,"o":"m 610 972 q 720 951 668 972 q 810 893 772 931 q 871 805 849 856 q 893 694 893 754 q 819 511 893 565 q 626 457 746 457 q 488 472 560 457 l 488 468 q 642 399 578 447 q 755 287 706 351 q 843 148 804 222 q 924 0 882 74 l 764 0 l 522 417 l 208 417 l 208 0 l 69 0 l 69 972 l 610 972 m 610 556 q 712 594 669 556 q 754 694 754 633 q 712 794 754 756 q 610 833 669 833 l 208 833 l 208 556 l 610 556 m 154 1153 l 335 1153 l 426 1014 l 518 1153 l 699 1153 l 596 1014 l 257 1014 l 154 1153 z "},"ř":{"ha":947,"x_min":69,"x_max":906,"o":"m 69 972 l 622 972 q 733 951 681 972 q 823 893 785 931 q 883 805 861 856 q 906 694 906 754 l 906 536 q 903 438 906 494 q 892 322 900 382 q 867 205 883 263 q 821 101 850 147 q 750 28 792 56 q 649 0 708 0 l 425 0 q 389 110 389 49 q 416 208 389 163 q 483 292 443 254 q 569 362 522 331 q 656 418 617 393 q 639 417 647 417 q 622 417 631 417 l 208 417 l 208 0 l 69 0 l 69 972 m 594 556 q 656 564 626 556 q 710 590 686 572 q 747 633 733 607 q 761 694 761 660 q 747 755 761 729 q 709 798 732 781 q 656 824 686 815 q 594 833 626 833 l 208 833 l 208 556 l 594 556 m 528 163 q 560 74 528 107 q 647 42 592 42 q 735 69 699 42 q 797 142 772 97 q 835 244 821 188 q 857 357 850 300 q 866 465 864 414 q 868 553 868 517 q 783 466 840 506 q 669 384 726 426 q 570 290 613 342 q 528 163 528 238 m 304 1014 l 201 1153 l 382 1153 l 474 1014 l 565 1153 l 746 1153 l 643 1014 l 304 1014 z "},"Ś":{"ha":646,"x_min":49,"x_max":604,"o":"m 49 68 l 49 322 q 78 241 54 278 q 135 178 101 204 q 212 138 169 153 q 297 124 254 124 q 358 132 328 124 q 412 158 388 140 q 451 201 436 175 q 465 261 465 226 q 435 341 465 310 q 358 397 404 372 q 257 444 311 421 q 156 500 203 467 q 79 582 110 533 q 49 707 49 631 q 73 826 49 774 q 139 914 97 878 q 236 969 181 950 q 354 988 292 988 q 468 970 413 988 q 571 917 524 953 l 571 661 q 500 797 561 746 q 356 849 439 849 q 295 841 325 849 q 241 817 265 833 q 202 776 217 801 q 188 715 188 751 q 218 631 188 664 q 295 571 249 597 q 396 519 342 544 q 497 460 450 494 q 574 378 543 426 q 604 257 604 331 q 579 141 604 192 q 513 56 554 90 q 415 3 471 21 q 299 -15 360 -15 q 167 6 232 -15 q 49 68 101 26 m 474 1339 l 582 1231 l 326 1014 l 238 1103 l 474 1339 z "},"ś":{"ha":667,"x_min":56,"x_max":611,"o":"m 56 64 l 56 715 q 81 831 56 781 q 147 916 106 881 q 244 969 189 951 q 358 988 299 988 q 496 960 429 988 q 611 879 563 932 l 611 260 q 585 142 611 193 q 517 56 560 92 q 417 3 474 21 q 299 -15 360 -15 q 171 4 233 -15 q 56 64 108 24 m 569 397 l 569 582 q 558 683 569 635 q 522 767 547 731 q 456 826 497 804 q 357 849 415 849 q 297 841 326 849 q 245 817 268 833 q 208 777 222 801 q 194 718 194 753 q 240 621 194 660 q 346 549 285 582 q 470 481 407 515 q 569 397 533 447 m 97 568 l 97 379 q 108 283 97 329 q 144 201 119 236 q 209 144 169 165 q 306 124 249 124 q 366 131 336 124 q 419 155 396 139 q 458 196 443 171 q 472 256 472 221 q 428 351 472 315 q 323 417 383 388 q 199 481 263 447 q 97 568 135 514 m 244 1103 l 481 1339 l 589 1231 l 333 1014 l 244 1103 z "},"Ŝ":{"ha":646,"x_min":49,"x_max":604,"o":"m 297 124 q 358 132 328 124 q 412 158 388 140 q 451 201 436 175 q 465 261 465 226 q 435 341 465 310 q 358 397 404 372 q 257 444 311 421 q 156 500 203 467 q 79 582 110 533 q 49 707 49 631 q 73 826 49 774 q 139 914 97 878 q 236 969 181 950 q 354 988 292 988 q 468 970 413 988 q 571 917 524 953 l 571 661 q 500 797 561 746 q 356 849 439 849 q 295 841 325 849 q 241 817 265 833 q 202 776 217 801 q 188 715 188 751 q 218 631 188 664 q 295 571 249 597 q 396 519 342 544 q 497 460 450 494 q 574 378 543 426 q 604 257 604 331 q 579 141 604 192 q 513 56 554 90 q 415 3 471 21 q 299 -15 360 -15 q 167 6 232 -15 q 49 68 101 26 l 49 322 q 78 241 54 278 q 135 178 101 204 q 212 138 169 153 q 297 124 254 124 m 54 1014 l 157 1153 l 496 1153 l 599 1014 l 418 1014 l 326 1153 l 235 1014 l 54 1014 z "},"ŝ":{"ha":667,"x_min":56,"x_max":611,"o":"m 56 64 l 56 715 q 81 831 56 781 q 147 916 106 881 q 244 969 189 951 q 358 988 299 988 q 496 960 429 988 q 611 879 563 932 l 611 260 q 585 142 611 193 q 517 56 560 92 q 417 3 474 21 q 299 -15 360 -15 q 171 4 233 -15 q 56 64 108 24 m 569 397 l 569 582 q 558 683 569 635 q 522 767 547 731 q 456 826 497 804 q 357 849 415 849 q 297 841 326 849 q 245 817 268 833 q 208 777 222 801 q 194 718 194 753 q 240 621 194 660 q 346 549 285 582 q 470 481 407 515 q 569 397 533 447 m 97 568 l 97 379 q 108 283 97 329 q 144 201 119 236 q 209 144 169 165 q 306 124 249 124 q 366 131 336 124 q 419 155 396 139 q 458 196 443 171 q 472 256 472 221 q 428 351 472 315 q 323 417 383 388 q 199 481 263 447 q 97 568 135 514 m 61 1014 l 164 1153 l 503 1153 l 606 1014 l 425 1014 l 333 1153 l 242 1014 l 61 1014 z "},"Š":{"ha":646,"x_min":49,"x_max":604,"o":"m 297 124 q 358 132 328 124 q 412 158 388 140 q 451 201 436 175 q 465 261 465 226 q 435 341 465 310 q 358 397 404 372 q 257 444 311 421 q 156 500 203 467 q 79 582 110 533 q 49 707 49 631 q 73 826 49 774 q 139 914 97 878 q 236 969 181 950 q 354 988 292 988 q 468 970 413 988 q 571 917 524 953 l 571 661 q 500 797 561 746 q 356 849 439 849 q 295 841 325 849 q 241 817 265 833 q 202 776 217 801 q 188 715 188 751 q 218 631 188 664 q 295 571 249 597 q 396 519 342 544 q 497 460 450 494 q 574 378 543 426 q 604 257 604 331 q 579 141 604 192 q 513 56 554 90 q 415 3 471 21 q 299 -15 360 -15 q 167 6 232 -15 q 49 68 101 26 l 49 322 q 78 241 54 278 q 135 178 101 204 q 212 138 169 153 q 297 124 254 124 m 54 1153 l 235 1153 l 326 1014 l 418 1153 l 599 1153 l 496 1014 l 157 1014 l 54 1153 z "},"š":{"ha":667,"x_min":56,"x_max":611,"o":"m 56 64 l 56 715 q 81 831 56 781 q 147 916 106 881 q 244 969 189 951 q 358 988 299 988 q 496 960 429 988 q 611 879 563 932 l 611 260 q 585 142 611 193 q 517 56 560 92 q 417 3 474 21 q 299 -15 360 -15 q 171 4 233 -15 q 56 64 108 24 m 569 397 l 569 582 q 558 683 569 635 q 522 767 547 731 q 456 826 497 804 q 357 849 415 849 q 297 841 326 849 q 245 817 268 833 q 208 777 222 801 q 194 718 194 753 q 240 621 194 660 q 346 549 285 582 q 470 481 407 515 q 569 397 533 447 m 97 568 l 97 379 q 108 283 97 329 q 144 201 119 236 q 209 144 169 165 q 306 124 249 124 q 366 131 336 124 q 419 155 396 139 q 458 196 443 171 q 472 256 472 221 q 428 351 472 315 q 323 417 383 388 q 199 481 263 447 q 97 568 135 514 m 61 1153 l 242 1153 l 333 1014 l 425 1153 l 606 1153 l 503 1014 l 164 1014 l 61 1153 z "},"Ť":{"ha":500,"x_min":-22,"x_max":522,"o":"m 0 833 l 0 972 l 500 972 l 500 833 l 319 833 l 319 0 l 181 0 l 181 833 l 0 833 m 81 1014 l -22 1153 l 158 1153 l 250 1014 l 342 1153 l 522 1153 l 419 1014 l 81 1014 z "},"Ũ":{"ha":667,"x_min":56,"x_max":611,"o":"m 56 972 l 194 972 l 194 261 q 234 158 194 199 q 333 118 274 118 q 433 158 393 118 q 472 261 472 199 l 472 972 l 611 972 l 611 263 q 590 151 611 203 q 531 60 568 99 q 444 1 494 22 q 335 -21 393 -21 q 225 1 276 -21 q 136 60 174 22 q 77 151 99 99 q 56 263 56 203 l 56 972 m 125 1014 l 125 1167 q 178 1193 153 1186 q 229 1200 204 1200 q 281 1194 256 1200 q 331 1181 306 1189 q 380 1168 356 1174 q 429 1163 404 1163 q 485 1172 457 1163 q 542 1208 513 1182 l 542 1056 q 489 1031 514 1038 q 439 1024 464 1024 q 338 1042 388 1024 q 239 1061 289 1061 q 183 1051 211 1061 q 125 1014 156 1042 z "},"ũ":{"ha":714,"x_min":42,"x_max":658,"o":"m 42 325 l 42 593 q 45 703 42 638 q 66 828 49 768 q 119 930 83 888 q 218 972 154 972 l 407 972 q 446 901 433 940 q 458 821 458 861 q 438 717 458 764 q 386 627 417 669 q 319 546 356 585 q 253 467 283 507 q 201 383 222 426 q 181 289 181 340 q 226 166 181 214 q 347 118 272 118 q 428 138 396 118 q 481 189 461 157 q 510 262 501 221 q 519 344 519 303 l 519 972 l 658 972 l 658 343 q 639 205 658 271 q 581 89 619 139 q 483 9 542 39 q 346 -21 424 -21 q 214 7 271 -21 q 119 82 157 35 q 61 192 81 129 q 42 325 42 256 m 319 821 q 292 898 319 865 q 217 931 264 931 q 138 891 165 931 q 96 797 110 851 q 79 685 82 742 q 76 593 76 628 l 74 353 q 114 487 75 426 q 199 602 153 547 q 282 710 244 657 q 319 821 319 763 m 165 1014 l 165 1167 q 219 1193 193 1186 q 269 1200 244 1200 q 321 1194 296 1200 q 371 1181 346 1189 q 420 1168 396 1174 q 469 1163 444 1163 q 525 1172 497 1163 q 582 1208 553 1182 l 582 1056 q 529 1031 554 1038 q 479 1024 504 1024 q 378 1042 428 1024 q 279 1061 329 1061 q 224 1051 251 1061 q 165 1014 196 1042 z "},"Ū":{"ha":667,"x_min":56,"x_max":611,"o":"m 56 263 l 56 972 l 194 972 l 194 261 q 234 158 194 199 q 333 118 274 118 q 433 158 393 118 q 472 261 472 199 l 472 972 l 611 972 l 611 263 q 590 151 611 203 q 531 60 568 99 q 444 1 494 22 q 335 -21 393 -21 q 225 1 276 -21 q 136 60 174 22 q 77 151 99 99 q 56 263 56 203 m 125 1153 l 542 1153 l 542 1014 l 125 1014 l 125 1153 z "},"ū":{"ha":714,"x_min":42,"x_max":658,"o":"m 42 325 l 42 593 q 45 703 42 638 q 66 828 49 768 q 119 930 83 888 q 218 972 154 972 l 407 972 q 446 901 433 940 q 458 821 458 861 q 438 717 458 764 q 386 627 417 669 q 319 546 356 585 q 253 467 283 507 q 201 383 222 426 q 181 289 181 340 q 226 166 181 214 q 347 118 272 118 q 428 138 396 118 q 481 189 461 157 q 510 262 501 221 q 519 344 519 303 l 519 972 l 658 972 l 658 343 q 639 205 658 271 q 581 89 619 139 q 483 9 542 39 q 346 -21 424 -21 q 214 7 271 -21 q 119 82 157 35 q 61 192 81 129 q 42 325 42 256 m 319 821 q 292 898 319 865 q 217 931 264 931 q 138 891 165 931 q 96 797 110 851 q 79 685 82 742 q 76 593 76 628 l 74 353 q 114 487 75 426 q 199 602 153 547 q 282 710 244 657 q 319 821 319 763 m 165 1153 l 582 1153 l 582 1014 l 165 1014 l 165 1153 z "},"Ŭ":{"ha":667,"x_min":56,"x_max":611,"o":"m 194 972 l 194 261 q 234 158 194 199 q 333 118 274 118 q 433 158 393 118 q 472 261 472 199 l 472 972 l 611 972 l 611 263 q 590 151 611 203 q 531 60 568 99 q 444 1 494 22 q 335 -21 393 -21 q 225 1 276 -21 q 136 60 174 22 q 77 151 99 99 q 56 263 56 203 l 56 972 l 194 972 m 250 1222 q 274 1163 250 1186 q 333 1139 297 1139 q 393 1163 369 1139 q 417 1222 417 1186 l 542 1222 q 526 1140 542 1178 q 482 1074 510 1101 q 416 1030 454 1046 q 333 1014 378 1014 q 251 1030 289 1014 q 185 1074 213 1046 q 141 1140 157 1101 q 125 1222 125 1178 l 250 1222 z "},"ŭ":{"ha":714,"x_min":42,"x_max":658,"o":"m 42 593 q 45 703 42 638 q 66 828 49 768 q 119 930 83 888 q 218 972 154 972 l 407 972 q 446 901 433 940 q 458 821 458 861 q 438 717 458 764 q 386 627 417 669 q 319 546 356 585 q 253 467 283 507 q 201 383 222 426 q 181 289 181 340 q 226 166 181 214 q 347 118 272 118 q 428 138 396 118 q 481 189 461 157 q 510 262 501 221 q 519 344 519 303 l 519 972 l 658 972 l 658 343 q 639 205 658 271 q 581 89 619 139 q 483 9 542 39 q 346 -21 424 -21 q 214 7 271 -21 q 119 82 157 35 q 61 192 81 129 q 42 325 42 256 l 42 593 m 74 353 q 114 487 75 426 q 199 602 153 547 q 282 710 244 657 q 319 821 319 763 q 292 898 319 865 q 217 931 264 931 q 138 891 165 931 q 96 797 110 851 q 79 685 82 742 q 76 593 76 628 l 74 353 m 165 1222 l 290 1222 q 314 1163 290 1186 q 374 1139 338 1139 q 433 1163 410 1139 q 457 1222 457 1186 l 582 1222 q 566 1140 582 1178 q 522 1074 550 1101 q 456 1030 494 1046 q 374 1014 418 1014 q 291 1030 329 1014 q 225 1074 253 1046 q 181 1140 197 1101 q 165 1222 165 1178 z "},"Ů":{"ha":667,"x_min":56,"x_max":611,"o":"m 56 263 l 56 972 l 194 972 l 194 261 q 234 158 194 199 q 333 118 274 118 q 433 158 393 118 q 472 261 472 199 l 472 972 l 611 972 l 611 263 q 590 151 611 203 q 531 60 568 99 q 444 1 494 22 q 335 -21 393 -21 q 225 1 276 -21 q 136 60 174 22 q 77 151 99 99 q 56 263 56 203 m 125 1221 q 141 1303 125 1265 q 185 1369 157 1342 q 251 1413 213 1397 q 333 1429 289 1429 q 416 1413 378 1429 q 482 1369 454 1397 q 526 1303 510 1342 q 542 1221 542 1265 q 526 1138 542 1176 q 482 1072 510 1100 q 416 1028 454 1044 q 333 1013 378 1013 q 251 1028 289 1013 q 185 1072 213 1044 q 141 1138 157 1100 q 125 1221 125 1176 m 251 1221 q 274 1162 251 1185 q 333 1139 297 1139 q 392 1162 369 1139 q 415 1221 415 1185 q 392 1280 415 1257 q 333 1303 369 1303 q 274 1280 297 1303 q 251 1221 251 1257 z "},"ů":{"ha":714,"x_min":42,"x_max":658,"o":"m 42 593 q 45 703 42 638 q 66 828 49 768 q 119 930 83 888 q 218 972 154 972 l 407 972 q 446 901 433 940 q 458 821 458 861 q 438 717 458 764 q 386 627 417 669 q 319 546 356 585 q 253 467 283 507 q 201 383 222 426 q 181 289 181 340 q 226 166 181 214 q 347 118 272 118 q 428 138 396 118 q 481 189 461 157 q 510 262 501 221 q 519 344 519 303 l 519 972 l 658 972 l 658 343 q 639 205 658 271 q 581 89 619 139 q 483 9 542 39 q 346 -21 424 -21 q 214 7 271 -21 q 119 82 157 35 q 61 192 81 129 q 42 325 42 256 l 42 593 m 165 1221 q 181 1303 165 1265 q 225 1369 197 1342 q 291 1413 253 1397 q 374 1429 329 1429 q 456 1413 418 1429 q 522 1369 494 1397 q 566 1303 550 1342 q 582 1221 582 1265 q 566 1138 582 1176 q 522 1072 550 1100 q 456 1028 494 1044 q 374 1013 418 1013 q 291 1028 329 1013 q 225 1072 253 1044 q 181 1138 197 1100 q 165 1221 165 1176 m 319 821 q 292 898 319 865 q 217 931 264 931 q 138 891 165 931 q 96 797 110 851 q 79 685 82 742 q 76 593 76 628 l 74 353 q 114 487 75 426 q 199 602 153 547 q 282 710 244 657 q 319 821 319 763 m 292 1221 q 315 1162 292 1185 q 374 1139 338 1139 q 433 1162 410 1139 q 456 1221 456 1185 q 433 1280 456 1257 q 374 1303 410 1303 q 315 1280 338 1303 q 292 1221 292 1257 z "},"Ű":{"ha":667,"x_min":56,"x_max":728,"o":"m 56 263 l 56 972 l 194 972 l 194 261 q 234 158 194 199 q 333 118 274 118 q 433 158 393 118 q 472 261 472 199 l 472 972 l 611 972 l 611 263 q 590 151 611 203 q 531 60 568 99 q 444 1 494 22 q 335 -21 393 -21 q 225 1 276 -21 q 136 60 174 22 q 77 151 99 99 q 56 263 56 203 m 619 1339 l 728 1231 l 472 1014 l 383 1103 l 619 1339 m 342 1339 l 450 1231 l 194 1014 l 106 1103 l 342 1339 z "},"ű":{"ha":714,"x_min":42,"x_max":768,"o":"m 42 325 l 42 593 q 45 703 42 638 q 66 828 49 768 q 119 930 83 888 q 218 972 154 972 l 407 972 q 446 901 433 940 q 458 821 458 861 q 438 717 458 764 q 386 627 417 669 q 319 546 356 585 q 253 467 283 507 q 201 383 222 426 q 181 289 181 340 q 226 166 181 214 q 347 118 272 118 q 428 138 396 118 q 481 189 461 157 q 510 262 501 221 q 519 344 519 303 l 519 972 l 658 972 l 658 343 q 639 205 658 271 q 581 89 619 139 q 483 9 542 39 q 346 -21 424 -21 q 214 7 271 -21 q 119 82 157 35 q 61 192 81 129 q 42 325 42 256 m 74 353 q 114 487 75 426 q 199 602 153 547 q 282 710 244 657 q 319 821 319 763 q 292 898 319 865 q 217 931 264 931 q 138 891 165 931 q 96 797 110 851 q 79 685 82 742 q 76 593 76 628 l 74 353 m 660 1339 l 768 1231 l 513 1014 l 424 1103 l 660 1339 m 146 1103 l 382 1339 l 490 1231 l 235 1014 l 146 1103 z "},"Ŵ":{"ha":1261,"x_min":69,"x_max":1192,"o":"m 69 972 l 208 972 l 208 0 l 486 972 l 775 972 l 1053 0 l 1053 972 l 1192 972 l 1192 0 l 908 0 l 631 972 l 353 0 l 69 0 l 69 972 m 539 1014 l 358 1014 l 461 1153 l 800 1153 l 903 1014 l 722 1014 l 631 1153 l 539 1014 z "},"ŵ":{"ha":1322,"x_min":69,"x_max":1308,"o":"m 69 972 l 783 972 l 869 676 l 869 690 q 876 781 869 732 q 902 873 883 831 q 955 944 921 915 q 1043 972 989 972 l 1267 972 q 1299 906 1289 942 q 1308 833 1308 869 q 1288 728 1308 774 q 1235 644 1267 683 q 1167 565 1204 604 q 1099 480 1131 526 q 1047 374 1068 433 q 1026 235 1026 315 q 1038 116 1026 174 q 1065 0 1050 58 l 917 0 l 635 972 l 353 0 l 69 0 l 69 972 m 478 931 l 208 931 l 208 0 l 478 931 m 903 689 q 932 466 903 574 q 993 249 961 358 q 1021 421 993 344 q 1082 561 1049 497 q 1142 681 1115 625 q 1169 793 1169 738 q 1135 891 1169 851 q 1042 931 1101 931 q 969 906 997 931 q 927 844 942 881 q 908 765 913 807 q 903 689 903 722 m 363 1014 l 465 1153 l 804 1153 l 907 1014 l 726 1014 l 635 1153 l 543 1014 l 363 1014 z "},"Ŷ":{"ha":514,"x_min":-21,"x_max":535,"o":"m 122 972 l 203 685 q 224 594 214 644 q 240 492 233 544 q 251 389 247 440 q 256 296 256 338 l 260 296 q 263 389 260 338 q 274 492 267 440 q 290 594 281 544 q 311 685 300 644 l 392 972 l 535 972 l 326 281 l 326 0 l 188 0 l 188 281 l -21 972 l 122 972 m -15 1014 l 88 1153 l 426 1153 l 529 1014 l 349 1014 l 257 1153 l 165 1014 l -15 1014 z "},"ŷ":{"ha":893,"x_min":56,"x_max":949,"o":"m 56 0 l 56 878 q 149 960 97 931 q 268 989 200 989 q 365 969 324 989 q 433 917 406 950 q 473 839 460 883 q 486 743 486 794 q 463 595 486 668 q 406 451 440 522 q 329 314 371 381 q 251 185 288 247 l 254 182 q 363 358 307 272 q 478 532 419 444 q 625 753 553 643 q 776 972 697 864 l 949 972 l 228 0 l 56 0 m 96 533 l 96 53 q 200 188 143 114 q 307 341 257 261 q 390 505 357 421 q 424 668 424 589 q 417 729 424 696 q 397 792 411 763 q 360 840 383 821 q 300 860 336 860 q 212 824 250 860 q 148 738 174 789 q 109 630 122 686 q 96 533 96 574 m 397 1014 l 217 1014 l 319 1153 l 658 1153 l 761 1014 l 581 1014 l 489 1153 l 397 1014 z "},"Ÿ":{"ha":514,"x_min":-21,"x_max":535,"o":"m -21 972 l 122 972 l 203 685 q 224 594 214 644 q 240 492 233 544 q 251 389 247 440 q 256 296 256 338 l 260 296 q 263 389 260 338 q 274 492 267 440 q 290 594 281 544 q 311 685 300 644 l 392 972 l 535 972 l 326 281 l 326 0 l 188 0 l 188 281 l -21 972 m 361 1153 l 500 1153 l 500 1014 l 361 1014 l 361 1153 m 14 1014 l 14 1153 l 153 1153 l 153 1014 l 14 1014 z "},"Ź":{"ha":861,"x_min":49,"x_max":813,"o":"m 49 307 l 813 833 l 49 833 l 49 972 l 813 972 l 813 664 l 49 139 l 813 139 l 813 0 l 49 0 l 49 307 m 578 1339 l 686 1231 l 431 1014 l 342 1103 l 578 1339 z "},"ź":{"ha":886,"x_min":56,"x_max":844,"o":"m 56 185 l 819 833 l 56 833 l 56 972 l 819 972 l 819 651 l 368 267 q 499 315 432 297 q 638 333 567 333 q 717 325 679 333 q 783 298 756 317 q 828 247 811 279 q 844 167 844 215 q 827 77 844 121 q 778 0 810 33 l 56 0 l 56 185 m 104 42 l 507 42 q 576 51 540 42 q 640 78 611 60 q 688 125 669 96 q 707 193 707 154 q 675 267 707 244 q 596 289 643 289 q 469 265 538 289 q 335 203 401 240 q 208 122 268 165 q 104 42 147 79 m 361 1103 l 597 1339 l 706 1231 l 450 1014 l 361 1103 z "},"Ż":{"ha":861,"x_min":49,"x_max":813,"o":"m 49 307 l 813 833 l 49 833 l 49 972 l 813 972 l 813 664 l 49 139 l 813 139 l 813 0 l 49 0 l 49 307 m 347 1014 l 347 1153 l 514 1153 l 514 1014 l 347 1014 z "},"ż":{"ha":886,"x_min":56,"x_max":844,"o":"m 819 833 l 56 833 l 56 972 l 819 972 l 819 651 l 368 267 q 499 315 432 297 q 638 333 567 333 q 717 325 679 333 q 783 298 756 317 q 828 247 811 279 q 844 167 844 215 q 827 77 844 121 q 778 0 810 33 l 56 0 l 56 185 l 819 833 m 507 42 q 576 51 540 42 q 640 78 611 60 q 688 125 669 96 q 707 193 707 154 q 675 267 707 244 q 596 289 643 289 q 469 265 538 289 q 335 203 401 240 q 208 122 268 165 q 104 42 147 79 l 507 42 m 367 1153 l 533 1153 l 533 1014 l 367 1014 l 367 1153 z "},"Ž":{"ha":861,"x_min":49,"x_max":813,"o":"m 49 307 l 813 833 l 49 833 l 49 972 l 813 972 l 813 664 l 49 139 l 813 139 l 813 0 l 49 0 l 49 307 m 158 1153 l 339 1153 l 431 1014 l 522 1153 l 703 1153 l 600 1014 l 261 1014 l 158 1153 z "},"ž":{"ha":886,"x_min":56,"x_max":844,"o":"m 778 0 l 56 0 l 56 185 l 819 833 l 56 833 l 56 972 l 819 972 l 819 651 l 368 267 q 499 315 432 297 q 638 333 567 333 q 717 325 679 333 q 783 298 756 317 q 828 247 811 279 q 844 167 844 215 q 827 77 844 121 q 778 0 810 33 m 104 42 l 507 42 q 576 51 540 42 q 640 78 611 60 q 688 125 669 96 q 707 193 707 154 q 675 267 707 244 q 596 289 643 289 q 469 265 538 289 q 335 203 401 240 q 208 122 268 165 q 104 42 147 79 m 178 1153 l 358 1153 l 450 1014 l 542 1153 l 722 1153 l 619 1014 l 281 1014 l 178 1153 z "},"Ș":{"ha":646,"x_min":49,"x_max":604,"o":"m 49 322 q 78 241 54 278 q 135 178 101 204 q 212 138 169 153 q 297 124 254 124 q 358 132 328 124 q 412 158 388 140 q 451 201 436 175 q 465 261 465 226 q 435 341 465 310 q 358 397 404 372 q 257 444 311 421 q 156 500 203 467 q 79 582 110 533 q 49 707 49 631 q 73 826 49 774 q 139 914 97 878 q 236 969 181 950 q 354 988 292 988 q 468 970 413 988 q 571 917 524 953 l 571 661 q 500 797 561 746 q 356 849 439 849 q 295 841 325 849 q 241 817 265 833 q 202 776 217 801 q 188 715 188 751 q 218 631 188 664 q 295 571 249 597 q 396 519 342 544 q 497 460 450 494 q 574 378 543 426 q 604 257 604 331 q 579 141 604 192 q 513 56 554 90 q 415 3 471 21 q 299 -15 360 -15 q 167 6 232 -15 q 49 68 101 26 l 49 322 m 406 -71 l 378 -347 l 253 -347 l 253 -71 l 406 -71 z "},"ș":{"ha":667,"x_min":56,"x_max":611,"o":"m 56 64 l 56 715 q 81 831 56 781 q 147 916 106 881 q 244 969 189 951 q 358 988 299 988 q 496 960 429 988 q 611 879 563 932 l 611 260 q 585 142 611 193 q 517 56 560 92 q 417 3 474 21 q 299 -15 360 -15 q 171 4 233 -15 q 56 64 108 24 m 194 718 q 240 621 194 660 q 346 549 285 582 q 470 481 407 515 q 569 397 533 447 l 569 582 q 558 683 569 635 q 522 767 547 731 q 456 826 497 804 q 357 849 415 849 q 297 841 326 849 q 245 817 268 833 q 208 777 222 801 q 194 718 194 753 m 306 124 q 366 131 336 124 q 419 155 396 139 q 458 196 443 171 q 472 256 472 221 q 428 351 472 315 q 323 417 383 388 q 199 481 263 447 q 97 568 135 514 l 97 379 q 108 283 97 329 q 144 201 119 236 q 209 144 169 165 q 306 124 249 124 m 413 -71 l 385 -347 l 260 -347 l 260 -71 l 413 -71 z "},"Ț":{"ha":500,"x_min":0,"x_max":500,"o":"m 0 972 l 500 972 l 500 833 l 319 833 l 319 0 l 181 0 l 181 833 l 0 833 l 0 972 m 335 -71 l 307 -347 l 182 -347 l 182 -71 l 335 -71 z "},"ț":{"ha":626,"x_min":-7,"x_max":571,"o":"m 571 972 l 571 51 q 390 -15 493 -15 q 177 63 256 -15 q 99 276 99 142 q 117 417 99 349 q 156 555 135 486 q 196 692 178 624 q 214 833 214 761 l -7 833 l -7 972 l 571 972 m 529 440 l 529 833 l 251 833 l 251 51 q 393 85 339 51 q 477 173 447 118 q 518 298 507 228 q 529 440 529 368 m 208 -71 l 361 -71 l 333 -347 l 208 -347 l 208 -71 z "},"Ẁ":{"ha":1261,"x_min":69,"x_max":1192,"o":"m 69 0 l 69 972 l 208 972 l 208 0 l 486 972 l 775 972 l 1053 0 l 1053 972 l 1192 972 l 1192 0 l 908 0 l 631 972 l 353 0 l 69 0 m 483 1339 l 719 1103 l 631 1014 l 375 1231 l 483 1339 z "},"ẁ":{"ha":1322,"x_min":69,"x_max":1308,"o":"m 69 972 l 783 972 l 869 676 l 869 690 q 876 781 869 732 q 902 873 883 831 q 955 944 921 915 q 1043 972 989 972 l 1267 972 q 1299 906 1289 942 q 1308 833 1308 869 q 1288 728 1308 774 q 1235 644 1267 683 q 1167 565 1204 604 q 1099 480 1131 526 q 1047 374 1068 433 q 1026 235 1026 315 q 1038 116 1026 174 q 1065 0 1050 58 l 917 0 l 635 972 l 353 0 l 69 0 l 69 972 m 208 0 l 478 931 l 208 931 l 208 0 m 903 689 q 932 466 903 574 q 993 249 961 358 q 1021 421 993 344 q 1082 561 1049 497 q 1142 681 1115 625 q 1169 793 1169 738 q 1135 891 1169 851 q 1042 931 1101 931 q 969 906 997 931 q 927 844 942 881 q 908 765 913 807 q 903 689 903 722 m 379 1231 l 488 1339 l 724 1103 l 635 1014 l 379 1231 z "},"Ẃ":{"ha":1261,"x_min":69,"x_max":1192,"o":"m 353 0 l 69 0 l 69 972 l 208 972 l 208 0 l 486 972 l 775 972 l 1053 0 l 1053 972 l 1192 972 l 1192 0 l 908 0 l 631 972 l 353 0 m 542 1103 l 778 1339 l 886 1231 l 631 1014 l 542 1103 z "},"ẃ":{"ha":1322,"x_min":69,"x_max":1308,"o":"m 69 972 l 783 972 l 869 676 l 869 690 q 876 781 869 732 q 902 873 883 831 q 955 944 921 915 q 1043 972 989 972 l 1267 972 q 1299 906 1289 942 q 1308 833 1308 869 q 1288 728 1308 774 q 1235 644 1267 683 q 1167 565 1204 604 q 1099 480 1131 526 q 1047 374 1068 433 q 1026 235 1026 315 q 1038 116 1026 174 q 1065 0 1050 58 l 917 0 l 635 972 l 353 0 l 69 0 l 69 972 m 208 0 l 478 931 l 208 931 l 208 0 m 903 689 q 932 466 903 574 q 993 249 961 358 q 1021 421 993 344 q 1082 561 1049 497 q 1142 681 1115 625 q 1169 793 1169 738 q 1135 891 1169 851 q 1042 931 1101 931 q 969 906 997 931 q 927 844 942 881 q 908 765 913 807 q 903 689 903 722 m 782 1339 l 890 1231 l 635 1014 l 546 1103 l 782 1339 z "},"Ẅ":{"ha":1261,"x_min":69,"x_max":1192,"o":"m 69 0 l 69 972 l 208 972 l 208 0 l 486 972 l 775 972 l 1053 0 l 1053 972 l 1192 972 l 1192 0 l 908 0 l 631 972 l 353 0 l 69 0 m 735 1014 l 735 1153 l 874 1153 l 874 1014 l 735 1014 m 526 1153 l 526 1014 l 388 1014 l 388 1153 l 526 1153 z "},"ẅ":{"ha":1322,"x_min":69,"x_max":1308,"o":"m 69 972 l 783 972 l 869 676 l 869 690 q 876 781 869 732 q 902 873 883 831 q 955 944 921 915 q 1043 972 989 972 l 1267 972 q 1299 906 1289 942 q 1308 833 1308 869 q 1288 728 1308 774 q 1235 644 1267 683 q 1167 565 1204 604 q 1099 480 1131 526 q 1047 374 1068 433 q 1026 235 1026 315 q 1038 116 1026 174 q 1065 0 1050 58 l 917 0 l 635 972 l 353 0 l 69 0 l 69 972 m 208 0 l 478 931 l 208 931 l 208 0 m 993 249 q 1021 421 993 344 q 1082 561 1049 497 q 1142 681 1115 625 q 1169 793 1169 738 q 1135 891 1169 851 q 1042 931 1101 931 q 969 906 997 931 q 927 844 942 881 q 908 765 913 807 q 903 689 903 722 q 932 466 903 574 q 993 249 961 358 m 739 1153 l 878 1153 l 878 1014 l 739 1014 l 739 1153 m 392 1153 l 531 1153 l 531 1014 l 392 1014 l 392 1153 z "},"⁄":{"ha":604,"x_min":-56,"x_max":660,"o":"m 500 1250 l 660 1250 l 104 278 l -56 278 l 500 1250 z "},"∕":{"ha":604,"x_min":-54,"x_max":661,"o":"m 501 972 l 661 972 l 106 0 l -54 0 l 501 972 z "},"В":{"ha":965,"x_min":69,"x_max":917,"o":"m 69 972 l 633 972 q 744 951 692 972 q 834 894 796 931 q 894 806 872 857 q 917 696 917 756 q 888 574 917 629 q 800 486 858 519 q 888 399 858 453 q 917 278 917 344 q 894 167 917 218 q 834 79 872 117 q 744 21 796 42 q 633 0 692 0 l 69 0 l 69 972 m 208 556 l 635 556 q 736 594 694 556 q 778 694 778 633 q 736 794 778 756 q 635 833 694 833 l 208 833 l 208 556 m 635 139 q 736 178 694 139 q 778 278 778 217 q 736 378 778 339 q 635 417 694 417 l 208 417 l 208 139 l 635 139 z "},"Е":{"ha":624,"x_min":69,"x_max":568,"o":"m 69 972 l 568 972 l 568 833 l 208 833 l 208 556 l 568 556 l 568 417 l 208 417 l 208 139 l 568 139 l 568 0 l 69 0 l 69 972 z "},"К":{"ha":646,"x_min":69,"x_max":646,"o":"m 69 972 l 208 972 l 208 488 l 485 972 l 644 972 l 368 488 l 646 0 l 486 0 l 208 488 l 208 0 l 69 0 l 69 972 z "},"М":{"ha":1261,"x_min":69,"x_max":1192,"o":"m 69 972 l 353 972 l 631 0 l 908 972 l 1192 972 l 1192 0 l 1053 0 l 1053 972 l 775 0 l 486 0 l 208 972 l 208 0 l 69 0 l 69 972 z "},"Н":{"ha":1028,"x_min":69,"x_max":958,"o":"m 208 972 l 208 556 l 819 556 l 819 972 l 958 972 l 958 0 l 819 0 l 819 417 l 208 417 l 208 0 l 69 0 l 69 972 l 208 972 z "},"О":{"ha":1056,"x_min":21,"x_max":1035,"o":"m 528 993 q 729 954 636 993 q 890 848 822 915 q 996 688 957 781 q 1035 486 1035 594 q 996 285 1035 378 q 890 124 957 192 q 729 18 822 57 q 528 -21 636 -21 q 326 18 419 -21 q 166 124 233 57 q 60 285 99 192 q 21 486 21 378 q 60 688 21 594 q 166 848 99 781 q 326 954 233 915 q 528 993 419 993 m 528 118 q 674 146 607 118 q 791 223 742 174 q 868 340 840 272 q 896 486 896 407 q 868 633 896 565 q 791 749 840 700 q 674 826 742 799 q 528 854 607 854 q 381 826 449 854 q 265 749 314 799 q 188 633 215 700 q 160 486 160 565 q 188 340 160 407 q 265 223 215 272 q 381 146 314 174 q 528 118 449 118 z "},"Р":{"ha":875,"x_min":69,"x_max":861,"o":"m 69 972 l 578 972 q 688 951 636 972 q 778 894 740 931 q 839 806 817 857 q 861 696 861 756 q 839 585 861 636 q 778 497 817 535 q 688 438 740 460 q 578 417 636 417 l 208 417 l 208 0 l 69 0 l 69 972 m 208 833 l 208 556 l 579 556 q 681 594 639 556 q 722 694 722 633 q 681 794 722 756 q 579 833 639 833 l 208 833 z "},"С":{"ha":938,"x_min":21,"x_max":882,"o":"m 21 486 q 60 688 21 594 q 166 848 99 781 q 326 954 233 915 q 528 993 419 993 q 718 959 626 993 q 882 856 810 925 l 882 590 q 831 700 865 651 q 751 783 797 749 q 647 836 704 818 q 528 854 590 854 q 381 826 449 854 q 265 749 314 799 q 188 633 215 700 q 160 486 160 565 q 188 340 160 407 q 265 223 215 272 q 381 146 314 174 q 528 118 449 118 q 647 136 590 118 q 751 189 704 154 q 831 272 797 224 q 882 382 865 321 l 882 117 q 718 13 810 47 q 528 -21 626 -21 q 326 18 419 -21 q 166 124 233 57 q 60 285 99 192 q 21 486 21 378 z "},"Т":{"ha":500,"x_min":0,"x_max":500,"o":"m 500 972 l 500 833 l 319 833 l 319 0 l 181 0 l 181 833 l 0 833 l 0 972 l 500 972 z "},"Я":{"ha":951,"x_min":28,"x_max":882,"o":"m 28 0 q 109 148 69 74 q 197 287 149 222 q 310 399 246 351 q 464 468 374 447 l 464 472 q 325 457 392 457 q 132 511 206 457 q 58 694 58 565 q 81 805 58 754 q 141 893 103 856 q 231 951 179 931 q 342 972 283 972 l 882 972 l 882 0 l 743 0 l 743 417 l 429 417 l 188 0 l 28 0 m 342 556 l 743 556 l 743 833 l 342 833 q 240 794 282 833 q 197 694 197 756 q 240 594 197 633 q 342 556 282 556 z "},"Ё":{"ha":624,"x_min":69,"x_max":568,"o":"m 568 972 l 568 833 l 208 833 l 208 556 l 568 556 l 568 417 l 208 417 l 208 139 l 568 139 l 568 0 l 69 0 l 69 972 l 568 972 m 424 1181 l 563 1181 l 563 1042 l 424 1042 l 424 1181 m 215 1181 l 215 1042 l 76 1042 l 76 1181 l 215 1181 z "},"Ѕ":{"ha":646,"x_min":49,"x_max":604,"o":"m 49 322 q 78 241 54 278 q 135 178 101 204 q 212 138 169 153 q 297 124 254 124 q 358 132 328 124 q 412 158 388 140 q 451 201 436 175 q 465 261 465 226 q 435 341 465 310 q 358 397 404 372 q 257 444 311 421 q 156 500 203 467 q 79 582 110 533 q 49 707 49 631 q 73 826 49 774 q 139 914 97 878 q 236 969 181 950 q 354 988 292 988 q 468 970 413 988 q 571 917 524 953 l 571 661 q 500 797 561 746 q 356 849 439 849 q 295 841 325 849 q 241 817 265 833 q 202 776 217 801 q 188 715 188 751 q 218 631 188 664 q 295 571 249 597 q 396 519 342 544 q 497 460 450 494 q 574 378 543 426 q 604 257 604 331 q 579 141 604 192 q 513 56 554 90 q 415 3 471 21 q 299 -15 360 -15 q 167 6 232 -15 q 49 68 101 26 l 49 322 z "},"І":{"ha":278,"x_min":69,"x_max":208,"o":"m 69 972 l 208 972 l 208 0 l 69 0 l 69 972 z "},"Ї":{"ha":278,"x_min":-104,"x_max":382,"o":"m 69 972 l 208 972 l 208 0 l 69 0 l 69 972 m 243 1153 l 382 1153 l 382 1014 l 243 1014 l 243 1153 m 35 1153 l 35 1014 l -104 1014 l -104 1153 l 35 1153 z "},"Ј":{"ha":500,"x_min":28,"x_max":444,"o":"m 444 972 l 444 263 q 424 152 444 204 q 366 62 403 100 q 278 1 329 24 q 168 -21 228 -21 q 96 -12 132 -21 q 28 17 60 -3 l 28 261 q 67 160 28 201 q 167 118 106 118 q 267 160 228 118 q 306 261 306 201 l 306 833 l 28 833 l 28 972 l 444 972 z "},"Ќ":{"ha":646,"x_min":69,"x_max":646,"o":"m 69 0 l 69 972 l 208 972 l 208 488 l 485 972 l 644 972 l 368 488 l 646 0 l 486 0 l 208 488 l 208 0 l 69 0 m 235 1103 l 471 1339 l 579 1231 l 324 1014 l 235 1103 z "},"а":{"ha":764,"x_min":21,"x_max":778,"o":"m 21 138 q 42 243 21 196 q 94 332 63 290 q 162 414 125 374 q 230 501 199 454 q 282 603 261 547 q 303 729 303 658 q 299 785 303 751 q 288 853 294 818 q 271 921 281 889 q 250 972 261 953 l 399 972 l 778 0 l 629 0 l 486 365 q 485 249 490 313 q 457 130 479 185 q 392 38 435 75 q 281 0 350 0 l 63 0 q 31 66 40 31 q 21 138 21 101 m 281 42 q 366 69 333 42 q 418 137 399 96 q 444 225 438 178 q 451 313 451 272 q 441 431 451 375 q 414 542 431 488 q 376 649 397 596 q 333 758 356 703 q 314 577 340 657 q 253 428 288 497 q 190 297 219 360 q 160 169 160 235 q 191 77 160 113 q 281 42 222 42 z "},"в":{"ha":943,"x_min":56,"x_max":908,"o":"m 611 972 q 714 955 665 972 q 800 906 763 938 q 859 828 838 874 q 881 725 881 782 q 831 577 881 640 q 700 490 781 514 q 851 406 794 467 q 908 246 908 346 q 887 139 908 185 q 828 62 865 93 q 742 15 792 31 q 635 0 692 0 l 393 0 q 289 4 347 0 q 178 26 231 8 q 91 79 126 44 q 56 176 56 114 l 56 365 q 199 417 118 417 q 294 396 251 417 q 372 344 336 375 q 442 277 408 314 q 511 210 475 240 q 588 158 547 179 q 679 138 629 138 q 784 174 744 138 q 824 278 824 211 q 799 369 824 331 q 737 431 775 407 q 651 467 699 456 q 558 478 604 478 l 56 478 l 56 972 l 611 972 m 194 617 l 613 617 q 701 644 660 617 q 742 725 742 672 q 701 806 742 778 q 613 833 660 833 l 194 833 l 194 617 m 368 35 l 660 32 q 490 75 557 36 q 375 159 424 114 q 285 241 326 204 q 190 278 243 278 q 122 251 146 278 q 97 179 97 224 q 126 101 97 129 q 196 58 154 72 q 285 39 238 43 q 368 35 332 35 z "},"е":{"ha":696,"x_min":69,"x_max":744,"o":"m 69 972 l 744 972 q 615 923 686 958 q 480 838 543 888 q 374 727 417 789 q 332 597 332 665 q 363 504 332 542 q 451 467 393 467 q 531 490 497 467 q 589 548 565 513 q 624 626 613 583 q 636 708 636 669 l 636 386 q 474 329 564 329 q 386 347 424 329 q 324 394 349 364 q 286 465 299 425 q 274 553 274 506 q 311 708 274 639 q 413 833 349 778 l 208 833 l 208 139 l 638 139 l 638 0 l 69 0 l 69 972 z "},"о":{"ha":678,"x_min":56,"x_max":622,"o":"m 56 0 l 56 715 q 78 826 56 775 q 138 913 100 876 q 228 971 176 950 q 339 992 281 992 q 449 971 397 992 q 540 913 501 950 q 600 826 578 876 q 622 715 622 775 l 622 0 l 56 0 m 581 139 l 581 567 q 477 470 542 504 q 339 436 413 436 q 201 470 265 436 q 97 567 136 504 l 97 139 l 581 139 m 194 714 q 237 613 194 651 q 340 575 279 575 q 442 614 400 575 q 483 714 483 653 q 441 815 483 776 q 338 853 399 853 q 236 814 278 853 q 194 714 194 775 z "},"с":{"ha":982,"x_min":21,"x_max":926,"o":"m 21 486 q 60 688 21 594 q 166 848 99 781 q 326 954 233 915 q 528 993 419 993 q 749 946 644 993 q 926 807 853 899 l 926 165 q 749 26 853 74 q 528 -21 644 -21 q 326 18 419 -21 q 166 124 233 57 q 60 285 99 192 q 21 486 21 378 m 160 486 q 188 340 160 407 q 265 223 215 272 q 381 146 314 174 q 528 118 449 118 q 674 146 607 118 q 791 223 742 174 q 868 340 840 272 q 896 486 896 407 q 868 633 896 565 q 791 749 840 700 q 674 826 742 799 q 528 854 607 854 q 381 826 449 854 q 265 749 314 799 q 188 633 215 700 q 160 486 160 565 z "},"х":{"ha":921,"x_min":-35,"x_max":858,"o":"m 138 972 l 411 603 l 686 972 l 858 972 l 858 94 q 765 13 817 42 q 646 -17 714 -17 q 549 3 590 -17 q 481 56 508 22 q 441 133 454 89 q 428 229 428 178 q 451 377 428 304 q 508 521 474 450 q 585 658 543 592 q 663 788 626 725 l 660 790 q 551 614 607 700 q 436 440 494 528 q 289 219 361 329 q 138 0 217 108 l -35 0 l 325 486 l -35 972 l 138 972 m 614 113 q 702 149 664 113 q 766 235 740 185 q 805 342 792 286 q 818 439 818 399 l 818 919 q 714 785 771 860 q 607 631 657 711 q 524 467 557 551 q 490 304 490 383 q 497 243 490 276 q 517 181 503 210 q 555 132 531 151 q 614 113 579 113 z "},"Л":{"ha":558,"x_min":0,"x_max":558,"o":"m 0 0 l 139 972 l 419 972 l 558 0 l 418 0 l 279 972 l 140 0 l 0 0 z "},"А":{"ha":558,"x_min":0,"x_max":558,"o":"m 0 0 l 139 972 l 419 972 l 558 0 l 418 0 l 399 139 l 160 139 l 140 0 l 0 0 m 381 264 l 279 972 l 178 264 l 381 264 z "},"Б":{"ha":896,"x_min":69,"x_max":861,"o":"m 833 972 l 833 833 l 208 833 l 208 556 l 578 556 q 688 534 636 556 q 778 475 740 513 q 839 387 817 438 q 861 276 861 336 q 839 166 861 217 q 778 78 817 115 q 688 21 739 42 q 578 0 636 0 l 69 0 l 69 972 l 833 972 m 208 139 l 579 139 q 681 178 639 139 q 722 278 722 217 q 681 378 722 339 q 579 417 639 417 l 208 417 l 208 139 z "},"к":{"ha":825,"x_min":69,"x_max":804,"o":"m 69 972 l 208 972 l 208 486 l 343 486 q 433 490 388 486 l 281 744 q 311 841 288 796 q 372 920 335 886 q 455 974 408 954 q 554 993 501 993 q 649 975 604 993 q 725 926 693 957 q 776 851 757 894 q 794 757 794 808 q 769 644 794 693 q 701 559 743 594 q 606 501 660 524 q 499 467 553 478 l 804 0 l 638 0 l 347 444 l 208 444 l 208 0 l 69 0 l 69 972 m 479 499 q 562 522 519 506 q 639 564 604 538 q 696 627 674 590 q 718 714 718 664 q 707 772 718 744 q 676 821 696 800 q 631 853 657 842 q 572 865 604 865 q 505 849 533 865 q 457 804 476 832 q 428 742 438 776 q 418 671 418 707 q 479 499 418 575 z "},"м":{"ha":1179,"x_min":69,"x_max":1131,"o":"m 69 0 l 69 972 l 353 972 l 611 68 l 611 594 q 619 730 611 660 q 655 858 628 800 q 732 954 682 917 q 865 992 782 992 q 986 966 936 992 q 1068 897 1036 940 q 1115 795 1100 853 q 1131 674 1131 738 l 1131 392 q 1127 281 1131 347 q 1107 151 1124 214 q 1055 44 1090 89 q 954 0 1019 0 l 765 0 q 726 80 739 36 q 714 168 714 124 q 734 276 714 228 q 784 367 754 325 q 849 450 814 410 q 913 533 883 490 q 963 624 943 576 q 983 732 983 672 q 948 855 983 803 q 835 907 913 907 q 739 875 775 907 q 684 796 703 843 q 659 694 665 749 q 653 594 653 640 l 653 0 l 486 0 l 208 972 l 208 0 l 69 0 m 853 160 q 880 78 853 114 q 957 42 907 42 q 1035 81 1007 42 q 1076 176 1063 121 q 1093 288 1090 231 q 1096 379 1096 344 l 1099 683 q 1058 526 1097 596 q 974 394 1019 456 q 890 276 928 332 q 853 160 853 219 z "},"т":{"ha":626,"x_min":-7,"x_max":571,"o":"m -7 972 l 571 972 l 571 51 q 390 -15 493 -15 q 177 63 256 -15 q 99 276 99 142 q 117 417 99 349 q 156 555 135 486 q 196 692 178 624 q 214 833 214 761 l -7 833 l -7 972 m 251 833 l 251 51 q 393 85 339 51 q 477 173 447 118 q 518 298 507 228 q 529 440 529 368 l 529 833 l 251 833 z "},"я":{"ha":947,"x_min":42,"x_max":878,"o":"m 42 694 q 64 805 42 754 q 124 893 86 856 q 215 951 163 931 q 325 972 267 972 l 878 972 l 878 0 l 739 0 l 739 417 l 325 417 q 308 417 317 417 q 292 418 300 417 q 378 362 332 393 q 465 292 425 331 q 531 208 504 254 q 558 110 558 163 q 522 0 558 49 l 299 0 q 197 28 239 0 q 126 101 156 56 q 81 205 97 147 q 56 322 64 263 q 44 438 47 382 q 42 536 42 494 l 42 694 m 186 694 q 200 633 186 660 q 238 590 214 607 q 291 564 261 572 q 353 556 321 556 l 739 556 l 739 833 l 353 833 q 292 824 322 833 q 238 798 261 815 q 201 755 215 781 q 186 694 186 729 m 300 42 q 388 74 356 42 q 419 163 419 107 q 377 290 419 238 q 278 384 335 342 q 164 466 221 426 q 79 553 107 506 q 81 465 79 517 q 90 357 83 414 q 112 244 97 300 q 151 142 126 188 q 212 69 175 97 q 300 42 249 42 z "},"ё":{"ha":696,"x_min":67,"x_max":744,"o":"m 69 972 l 744 972 q 615 923 686 958 q 480 838 543 888 q 374 727 417 789 q 332 597 332 665 q 363 504 332 542 q 451 467 393 467 q 531 490 497 467 q 589 548 565 513 q 624 626 613 583 q 636 708 636 669 l 636 386 q 474 329 564 329 q 386 347 424 329 q 324 394 349 364 q 286 465 299 425 q 274 553 274 506 q 312 708 274 638 q 413 833 350 779 l 208 833 l 208 139 l 638 139 l 638 0 l 69 0 l 69 972 m 497 1181 l 636 1181 l 636 1042 l 497 1042 l 497 1181 m 206 1181 l 206 1042 l 67 1042 l 67 1181 l 206 1181 z "},"Ж":{"ha":1106,"x_min":0,"x_max":1106,"o":"m 164 0 l 0 0 l 319 513 l 13 972 l 179 972 l 483 515 l 483 972 l 622 972 l 622 515 l 926 972 l 1093 972 l 786 513 l 1106 0 l 942 0 l 622 515 l 622 0 l 483 0 l 483 515 l 164 0 z "},"З":{"ha":850,"x_min":56,"x_max":801,"o":"m 56 972 l 786 972 l 786 686 q 447 599 618 632 q 97 565 275 565 l 72 565 l 72 561 l 110 561 q 198 563 150 561 q 299 564 246 564 q 474 555 385 564 q 635 517 563 546 q 755 431 708 488 q 801 279 801 375 q 779 169 801 219 q 719 81 757 118 q 628 22 681 43 q 518 0 576 0 l 60 0 l 60 139 l 519 139 q 621 178 579 139 q 663 278 663 217 q 621 378 663 339 q 519 417 579 417 l 56 417 l 56 567 l 786 833 l 56 833 l 56 972 z "},"Г":{"ha":568,"x_min":69,"x_max":568,"o":"m 69 972 l 568 972 l 568 833 l 208 833 l 208 0 l 69 0 l 69 972 z "},"И":{"ha":839,"x_min":69,"x_max":769,"o":"m 69 0 l 69 972 l 208 972 l 208 0 l 486 972 l 769 972 l 769 0 l 631 0 l 631 972 l 353 0 l 69 0 z "},"Й":{"ha":839,"x_min":69,"x_max":769,"o":"m 69 972 l 208 972 l 208 0 l 486 972 l 769 972 l 769 0 l 631 0 l 631 972 l 353 0 l 69 0 l 69 972 m 318 1222 q 342 1163 318 1186 q 401 1139 365 1139 q 461 1163 438 1139 q 485 1222 485 1186 l 610 1222 q 594 1140 610 1178 q 550 1074 578 1101 q 484 1030 522 1046 q 401 1014 446 1014 q 319 1030 357 1014 q 253 1074 281 1046 q 209 1140 225 1101 q 193 1222 193 1178 l 318 1222 z "},"П":{"ha":1042,"x_min":69,"x_max":972,"o":"m 69 972 l 972 972 l 972 0 l 833 0 l 833 833 l 208 833 l 208 0 l 69 0 l 69 972 z "},"У":{"ha":514,"x_min":-37,"x_max":538,"o":"m 108 972 l 203 660 q 224 585 215 618 q 237 519 233 551 q 238 455 240 488 q 225 383 235 422 l 231 382 q 249 452 240 419 q 265 517 257 485 q 283 585 274 550 q 304 661 293 619 l 392 972 l 538 972 l 242 1 l 94 0 l 188 281 l -37 972 l 108 972 z "},"Ф":{"ha":1097,"x_min":21,"x_max":1076,"o":"m 21 515 q 49 652 21 589 q 124 762 76 715 q 237 835 172 808 q 374 861 301 861 l 479 861 l 479 972 l 618 972 l 618 861 l 724 861 q 861 835 797 861 q 973 762 925 808 q 1049 652 1021 715 q 1076 515 1076 589 q 1049 378 1076 442 q 973 267 1021 314 q 861 194 925 221 q 724 167 797 167 l 618 167 l 618 0 l 479 0 l 479 167 l 374 167 q 236 194 300 167 q 124 267 172 221 q 49 378 76 314 q 21 515 21 442 m 618 722 l 618 306 l 725 306 q 877 363 817 306 q 938 514 938 421 q 877 665 938 607 q 725 722 817 722 l 618 722 m 160 514 q 220 363 160 421 q 372 306 281 306 l 479 306 l 479 722 l 372 722 q 220 665 281 722 q 160 514 160 607 z "},"Ц":{"ha":1028,"x_min":69,"x_max":1069,"o":"m 69 972 l 208 972 l 208 139 l 764 139 l 764 972 l 903 972 l 903 139 l 1069 139 l 1069 -208 l 931 -208 l 931 0 l 69 0 l 69 972 z "},"Ч":{"ha":931,"x_min":28,"x_max":861,"o":"m 28 725 l 28 972 l 167 972 l 167 724 q 183 642 167 679 q 226 576 199 604 q 292 533 254 549 q 374 517 329 517 l 722 517 l 722 972 l 861 972 l 861 0 l 722 0 l 722 378 l 375 378 q 238 404 301 378 q 127 477 174 431 q 54 588 81 524 q 28 725 28 651 z "},"Ш":{"ha":1250,"x_min":69,"x_max":1181,"o":"m 208 972 l 208 139 l 556 139 l 556 972 l 694 972 l 694 139 l 1042 139 l 1042 972 l 1181 972 l 1181 0 l 69 0 l 69 972 l 208 972 z "},"Щ":{"ha":1306,"x_min":69,"x_max":1347,"o":"m 69 0 l 69 972 l 208 972 l 208 139 l 556 139 l 556 972 l 694 972 l 694 139 l 1042 139 l 1042 972 l 1181 972 l 1181 139 l 1347 139 l 1347 -208 l 1208 -208 l 1208 0 l 69 0 z "},"Ь":{"ha":875,"x_min":69,"x_max":861,"o":"m 69 972 l 208 972 l 208 556 l 578 556 q 688 534 636 556 q 778 475 740 513 q 839 387 817 438 q 861 276 861 336 q 839 166 861 217 q 778 78 817 115 q 688 21 739 42 q 578 0 636 0 l 69 0 l 69 972 m 208 417 l 208 139 l 579 139 q 681 178 639 139 q 722 278 722 217 q 681 378 722 339 q 579 417 639 417 l 208 417 z "},"Ъ":{"ha":944,"x_min":-42,"x_max":931,"o":"m 278 972 l 278 556 l 647 556 q 758 534 706 556 q 848 475 810 513 q 908 387 886 438 q 931 276 931 336 q 908 166 931 217 q 847 78 886 115 q 757 21 808 42 q 647 0 706 0 l 139 0 l 139 833 l -42 833 l -42 972 l 278 972 m 278 417 l 278 139 l 649 139 q 750 178 708 139 q 792 278 792 217 q 750 378 792 339 q 649 417 708 417 l 278 417 z "},"Э":{"ha":938,"x_min":56,"x_max":917,"o":"m 56 382 q 106 272 72 321 q 187 189 140 224 q 290 136 233 154 q 410 118 347 118 q 538 140 478 118 q 647 200 599 161 q 727 294 694 239 q 772 417 760 350 l 332 417 l 332 556 l 772 556 q 727 678 760 622 q 647 772 694 733 q 538 833 599 811 q 410 854 478 854 q 290 836 347 854 q 187 783 233 818 q 106 700 140 749 q 56 590 72 651 l 56 856 q 219 958 126 924 q 410 993 311 993 q 611 954 518 993 q 772 848 704 915 q 878 688 839 781 q 917 486 917 594 q 878 285 917 378 q 772 124 839 192 q 611 18 704 57 q 410 -21 518 -21 q 219 14 311 -21 q 56 117 126 49 l 56 382 z "},"Ю":{"ha":1451,"x_min":69,"x_max":1431,"o":"m 69 972 l 208 972 l 208 556 l 421 556 q 476 733 433 653 q 587 872 519 814 q 740 961 654 929 q 924 993 826 993 q 1125 954 1032 993 q 1285 848 1218 915 q 1392 688 1353 781 q 1431 486 1431 594 q 1392 285 1431 378 q 1285 124 1353 192 q 1125 18 1218 57 q 924 -21 1032 -21 q 740 11 826 -21 q 587 101 654 43 q 476 239 519 158 q 421 417 433 319 l 208 417 l 208 0 l 69 0 l 69 972 m 924 118 q 1070 146 1003 118 q 1187 223 1138 174 q 1264 340 1236 272 q 1292 486 1292 407 q 1264 633 1292 565 q 1187 749 1236 700 q 1070 826 1138 799 q 924 854 1003 854 q 777 826 844 854 q 660 749 710 799 q 583 633 611 700 q 556 486 556 565 q 583 340 556 407 q 660 223 611 272 q 777 146 710 174 q 924 118 844 118 z "},"Ы":{"ha":1153,"x_min":69,"x_max":1083,"o":"m 69 972 l 208 972 l 208 556 l 578 556 q 688 534 636 556 q 778 475 740 513 q 839 387 817 438 q 861 276 861 336 q 839 166 861 217 q 778 78 817 115 q 688 21 739 42 q 578 0 636 0 l 69 0 l 69 972 m 208 417 l 208 139 l 579 139 q 681 178 639 139 q 722 278 722 217 q 681 378 722 339 q 579 417 639 417 l 208 417 m 944 0 l 944 972 l 1083 972 l 1083 0 l 944 0 z "},"Д":{"ha":1151,"x_min":-42,"x_max":1193,"o":"m -42 -208 l -42 139 l 124 139 l 124 972 l 1026 972 l 1026 139 l 1193 139 l 1193 -208 l 1054 -208 l 1054 0 l 97 0 l 97 -208 l -42 -208 m 888 139 l 888 833 l 263 833 l 263 139 l 888 139 z "},"Є":{"ha":938,"x_min":21,"x_max":882,"o":"m 21 486 q 60 688 21 594 q 166 848 99 781 q 326 954 233 915 q 528 993 419 993 q 719 958 626 993 q 882 856 811 924 l 882 590 q 831 700 865 651 q 751 783 797 749 q 647 836 704 818 q 528 854 590 854 q 399 833 460 854 q 291 772 339 811 q 210 678 243 733 q 165 556 178 622 l 606 556 l 606 417 l 165 417 q 210 294 178 350 q 291 200 243 239 q 399 140 339 161 q 528 118 460 118 q 647 136 590 118 q 751 189 704 154 q 831 272 797 224 q 882 382 865 321 l 882 117 q 719 14 811 49 q 528 -21 626 -21 q 326 18 419 -21 q 166 124 233 57 q 60 285 99 192 q 21 486 21 378 z "},"Џ":{"ha":972,"x_min":69,"x_max":903,"o":"m 69 972 l 208 972 l 208 139 l 764 139 l 764 972 l 903 972 l 903 0 l 556 0 l 556 -208 l 417 -208 l 417 0 l 69 0 l 69 972 z "},"Ў":{"ha":514,"x_min":-37,"x_max":538,"o":"m -37 972 l 108 972 l 203 660 q 224 585 215 618 q 237 519 233 551 q 238 455 240 488 q 225 383 235 422 l 231 382 q 249 452 240 419 q 265 517 257 485 q 283 585 274 550 q 304 661 293 619 l 392 972 l 538 972 l 242 1 l 94 0 l 188 281 l -37 972 m 43 1222 l 168 1222 q 192 1163 168 1186 q 251 1139 215 1139 q 311 1163 288 1139 q 335 1222 335 1186 l 460 1222 q 444 1140 460 1178 q 400 1074 428 1101 q 334 1030 372 1046 q 251 1014 296 1014 q 169 1030 207 1014 q 103 1074 131 1046 q 59 1140 75 1101 q 43 1222 43 1178 z "},"Ѓ":{"ha":568,"x_min":69,"x_max":568,"o":"m 69 972 l 568 972 l 568 833 l 208 833 l 208 0 l 69 0 l 69 972 m 557 1231 l 301 1014 l 213 1103 l 449 1339 l 557 1231 z "},"Ґ":{"ha":596,"x_min":69,"x_max":596,"o":"m 69 972 l 457 972 l 457 1111 l 596 1111 l 596 833 l 208 833 l 208 0 l 69 0 l 69 972 z "},"Ђ":{"ha":889,"x_min":0,"x_max":875,"o":"m 0 972 l 667 972 l 667 833 l 319 833 l 319 556 l 592 556 q 702 534 650 556 q 792 475 754 513 q 853 387 831 438 q 875 276 875 336 q 853 166 875 217 q 792 78 831 115 q 701 21 753 42 q 592 0 650 0 l 458 0 l 458 139 l 593 139 q 694 178 653 139 q 736 278 736 217 q 694 378 736 339 q 593 417 653 417 l 319 417 l 319 0 l 181 0 l 181 833 l 0 833 l 0 972 z "},"Њ":{"ha":1199,"x_min":69,"x_max":1185,"o":"m 69 972 l 208 972 l 208 556 l 556 556 l 556 972 l 694 972 l 694 556 l 901 556 q 1012 534 960 556 q 1102 475 1064 513 q 1163 387 1140 438 q 1185 276 1185 336 q 1163 166 1185 217 q 1101 78 1140 115 q 1011 21 1063 42 q 901 0 960 0 l 556 0 l 556 417 l 208 417 l 208 0 l 69 0 l 69 972 m 694 417 l 694 139 l 903 139 q 1004 178 963 139 q 1046 278 1046 217 q 1004 378 1046 339 q 903 417 963 417 l 694 417 z "},"Љ":{"ha":1051,"x_min":-14,"x_max":1038,"o":"m 131 0 l -14 0 l 264 972 l 547 972 l 547 554 l 754 554 q 865 533 813 554 q 955 474 917 511 q 1015 385 993 436 q 1038 275 1038 335 q 1015 165 1038 215 q 954 77 993 114 q 864 19 915 40 q 754 -1 813 -1 l 408 -1 l 408 972 l 131 0 m 547 415 l 547 138 l 756 138 q 857 176 815 138 q 899 276 899 215 q 857 376 899 338 q 756 415 815 415 l 547 415 z "},"Ћ":{"ha":903,"x_min":0,"x_max":875,"o":"m 0 972 l 667 972 l 667 833 l 319 833 l 319 556 l 528 556 q 665 529 601 556 q 776 456 729 503 q 849 346 822 410 q 875 208 875 282 l 875 0 l 736 0 l 736 210 q 720 292 736 254 q 676 357 704 329 q 611 401 649 385 q 529 417 574 417 l 319 417 l 319 0 l 181 0 l 181 833 l 0 833 l 0 972 z "},"г":{"ha":667,"x_min":56,"x_max":611,"o":"m 56 257 l 56 972 l 611 972 l 611 93 q 494 13 561 40 q 354 -15 428 -15 q 239 3 293 -15 q 144 57 185 22 q 79 142 103 92 q 56 257 56 193 m 356 124 q 455 146 414 124 q 522 205 496 168 q 558 290 547 242 q 569 390 569 339 l 569 631 q 465 556 528 597 q 341 468 401 515 q 238 367 281 421 q 194 254 194 314 q 208 195 194 219 q 245 155 222 171 q 297 131 268 139 q 356 124 325 124 m 97 372 q 183 509 122 447 q 320 626 244 571 q 474 731 396 681 q 611 832 553 781 l 97 833 l 97 372 z "},"п":{"ha":944,"x_min":69,"x_max":903,"o":"m 69 972 l 631 972 q 743 948 693 972 q 828 883 793 924 q 883 789 864 843 q 903 676 903 735 l 903 360 q 899 253 903 315 q 876 135 894 192 q 824 40 858 79 q 726 0 789 0 l 538 0 q 499 72 511 32 q 486 153 486 111 q 507 255 486 210 q 558 340 528 300 q 625 415 589 379 q 692 488 661 450 q 743 567 722 525 q 764 658 764 608 q 715 784 764 735 q 590 833 667 833 l 208 833 l 208 0 l 69 0 l 69 972 m 625 154 q 652 75 625 108 q 728 42 679 42 q 810 87 781 42 q 853 194 839 132 q 869 319 867 256 q 871 418 871 382 q 870 472 871 446 q 869 526 869 499 q 808 437 849 483 q 726 342 767 390 q 656 247 686 294 q 625 154 625 199 z "},"и":{"ha":943,"x_min":56,"x_max":874,"o":"m 874 0 l 56 0 l 56 931 q 222 997 125 997 q 369 934 322 997 q 415 776 415 871 q 396 640 415 714 q 358 506 376 567 l 363 504 q 458 744 400 632 q 578 972 515 856 l 874 972 l 874 0 m 735 42 l 735 972 l 238 42 l 735 42 m 97 658 l 97 78 q 175 217 129 135 q 264 390 221 300 q 337 565 307 479 q 367 714 367 650 q 338 816 367 772 q 246 860 310 860 q 178 841 207 860 q 132 792 150 822 q 106 727 114 763 q 97 658 97 692 z "},"й":{"ha":943,"x_min":56,"x_max":874,"o":"m 874 0 l 56 0 l 56 931 q 222 997 125 997 q 369 934 322 997 q 415 776 415 871 q 396 640 415 714 q 358 506 376 567 l 363 504 q 458 744 400 632 q 578 972 515 856 l 874 972 l 874 0 m 238 42 l 735 42 l 735 972 l 238 42 m 97 658 l 97 78 q 175 217 129 135 q 264 390 221 300 q 337 565 307 479 q 367 714 367 650 q 338 816 367 772 q 246 860 310 860 q 178 841 207 860 q 132 792 150 822 q 106 727 114 763 q 97 658 97 692 m 257 1222 l 382 1222 q 406 1163 382 1186 q 465 1139 429 1139 q 525 1163 501 1139 q 549 1222 549 1186 l 674 1222 q 658 1140 674 1178 q 614 1074 642 1101 q 548 1030 586 1046 q 465 1014 510 1014 q 383 1030 421 1014 q 317 1074 344 1046 q 273 1140 289 1101 q 257 1222 257 1178 z "},"з":{"ha":975,"x_min":69,"x_max":919,"o":"m 69 0 l 69 972 l 906 972 l 906 665 q 661 517 783 589 q 401 401 539 446 l 403 397 q 546 440 471 419 q 693 461 621 461 q 780 447 739 461 q 852 407 821 433 q 901 343 883 381 q 919 257 919 306 q 892 147 919 194 q 822 66 865 99 q 724 17 779 33 q 613 0 669 0 l 69 0 m 111 296 l 906 833 l 111 833 l 111 296 m 614 139 q 681 147 647 139 q 740 171 714 154 q 782 215 765 188 q 799 281 799 242 q 784 342 799 317 q 745 382 769 367 q 691 405 721 397 q 631 413 661 413 q 487 385 556 413 q 356 319 418 358 l 69 139 l 614 139 z "},"у":{"ha":893,"x_min":56,"x_max":949,"o":"m 56 0 l 56 878 q 149 960 97 931 q 268 989 200 989 q 365 969 324 989 q 433 917 406 950 q 473 839 460 883 q 486 743 486 794 q 463 595 486 668 q 406 451 440 522 q 329 314 371 381 q 251 185 288 247 l 254 182 q 363 358 307 272 q 478 532 419 444 q 625 753 553 643 q 776 972 697 864 l 949 972 l 228 0 l 56 0 m 96 53 q 200 188 143 114 q 307 341 257 261 q 390 505 357 421 q 424 668 424 589 q 417 729 424 696 q 397 792 411 763 q 360 840 383 821 q 300 860 336 860 q 212 824 250 860 q 148 738 174 789 q 109 630 122 686 q 96 533 96 574 l 96 53 z "},"ш":{"ha":1250,"x_min":69,"x_max":1181,"o":"m 208 972 l 208 772 q 228 618 208 700 q 288 466 247 536 q 390 349 328 396 q 540 303 453 303 q 647 337 603 303 q 692 438 692 371 q 672 510 692 481 q 624 562 653 539 q 560 606 594 585 q 497 653 526 626 q 449 715 468 679 q 429 804 429 751 q 449 899 429 853 q 510 972 468 944 l 1181 972 l 1181 0 l 69 0 l 69 972 l 208 972 m 208 139 l 1042 139 l 1042 931 l 804 931 q 735 926 775 931 q 658 910 694 922 q 594 874 621 897 q 568 810 568 850 q 587 753 568 778 q 635 708 606 729 q 697 665 664 686 q 758 615 729 643 q 806 548 788 586 q 825 456 825 510 q 805 357 825 400 q 750 285 785 314 q 669 240 715 256 q 569 225 622 225 q 406 266 474 225 q 292 373 338 307 q 219 520 246 439 q 181 682 193 601 l 176 681 q 204 410 200 546 q 208 139 208 275 z "},"щ":{"ha":1347,"x_min":69,"x_max":1389,"o":"m 208 972 l 208 772 q 228 618 208 700 q 288 466 247 536 q 390 349 328 396 q 540 303 453 303 q 647 337 603 303 q 692 438 692 371 q 672 510 692 481 q 624 562 653 539 q 560 606 594 585 q 497 653 526 626 q 449 715 468 679 q 429 804 429 751 q 449 899 429 853 q 510 972 468 944 l 1181 972 l 1181 139 l 1389 139 l 1389 -208 l 1250 -208 l 1250 0 l 69 0 l 69 972 l 208 972 m 208 139 l 1042 139 l 1042 931 l 804 931 q 735 926 775 931 q 658 910 694 922 q 594 874 621 897 q 568 810 568 850 q 587 753 568 778 q 635 708 606 729 q 697 665 664 686 q 758 615 729 643 q 806 548 788 586 q 825 456 825 510 q 805 357 825 400 q 750 285 785 314 q 669 240 715 256 q 569 225 622 225 q 406 266 474 225 q 292 373 338 307 q 219 520 246 439 q 181 682 193 601 l 176 681 q 204 410 200 546 q 208 139 208 275 z "},"ч":{"ha":769,"x_min":28,"x_max":700,"o":"m 28 432 q 44 518 28 482 q 87 582 61 554 q 142 633 113 610 q 198 680 172 656 q 240 733 224 704 q 257 803 257 763 q 237 882 257 850 q 184 934 217 914 q 111 963 151 954 q 31 972 71 972 l 700 972 l 700 0 l 561 0 l 561 308 q 569 496 561 403 q 593 681 576 589 l 589 682 q 560 529 579 611 q 504 376 542 447 q 408 258 467 306 q 260 211 349 211 q 167 226 210 211 q 94 270 125 242 q 45 340 63 299 q 28 432 28 381 m 294 303 q 399 335 356 303 q 472 418 443 367 q 519 534 501 469 q 547 665 538 599 q 558 792 556 731 q 561 896 561 853 l 561 931 l 347 931 q 383 863 371 900 q 394 788 394 826 q 377 700 394 736 q 334 637 360 664 q 278 588 308 610 q 222 544 247 567 q 178 493 196 521 q 161 426 161 465 q 199 335 161 367 q 294 303 238 303 z "},"р":{"ha":721,"x_min":0,"x_max":707,"o":"m 0 890 q 4 972 0 931 l 156 972 q 144 878 149 925 q 140 783 140 832 q 144 702 140 744 q 163 622 149 660 q 201 551 176 583 q 264 500 225 519 l 264 919 q 351 974 300 956 q 453 992 401 992 q 555 971 508 992 q 635 914 601 950 q 688 830 669 878 q 707 728 707 782 q 680 609 707 661 q 608 520 653 557 q 506 465 564 483 q 386 446 449 446 q 311 453 353 446 l 311 0 l 171 0 l 171 510 q 38 678 76 575 q 0 890 0 781 m 307 692 l 307 499 q 349 490 328 493 q 392 486 369 486 q 472 500 435 486 q 536 540 508 514 q 580 601 564 565 q 596 681 596 638 q 585 744 596 713 q 556 799 575 775 q 510 838 538 824 q 447 853 482 853 q 388 839 414 853 q 344 803 361 825 q 317 751 326 781 q 307 692 307 722 z "},"ь":{"ha":721,"x_min":0,"x_max":707,"o":"m 0 82 q 38 294 0 192 q 171 463 76 397 l 171 972 l 311 972 l 311 519 q 386 526 353 526 q 506 508 449 526 q 608 452 564 489 q 680 363 653 415 q 707 244 707 311 q 688 142 707 190 q 635 58 669 94 q 555 1 601 22 q 453 -19 508 -19 q 351 -1 401 -19 q 264 53 300 17 l 264 472 q 201 421 225 453 q 163 351 176 389 q 144 271 149 313 q 140 189 140 229 q 144 94 140 140 q 156 0 149 47 l 4 0 q 0 82 0 42 m 307 474 l 307 281 q 317 221 307 250 q 344 169 326 192 q 388 133 361 147 q 447 119 414 119 q 510 134 482 119 q 556 173 538 149 q 585 228 575 197 q 596 292 596 260 q 580 372 596 336 q 536 433 564 407 q 472 472 508 458 q 392 486 435 486 q 349 483 369 486 q 307 474 328 479 z "},"ы":{"ha":1014,"x_min":0,"x_max":944,"o":"m 171 463 l 171 972 l 944 972 l 944 0 l 806 0 l 806 931 l 311 931 l 311 519 q 386 526 353 526 q 506 508 449 526 q 608 452 564 489 q 680 363 653 415 q 707 244 707 311 q 688 142 707 190 q 635 58 669 94 q 555 1 601 22 q 453 -19 508 -19 q 351 -1 401 -19 q 264 53 300 17 l 264 472 q 201 421 225 453 q 163 351 176 389 q 144 271 149 313 q 140 189 140 229 q 144 94 140 140 q 156 0 149 47 l 4 0 q 0 82 0 42 q 38 294 0 192 q 171 463 76 397 m 307 281 q 317 221 307 250 q 344 169 326 192 q 388 133 361 147 q 447 119 414 119 q 510 134 482 119 q 556 173 538 149 q 585 228 575 197 q 596 292 596 260 q 580 372 596 336 q 536 433 564 407 q 472 472 508 458 q 392 486 435 486 q 349 483 369 486 q 307 474 328 479 l 307 281 z "},"э":{"ha":967,"x_min":56,"x_max":946,"o":"m 56 139 l 276 139 q 411 156 344 139 q 531 210 478 174 q 617 302 585 246 q 650 435 650 358 q 644 489 650 461 q 626 540 639 517 q 591 579 613 564 q 538 594 569 594 q 477 570 500 594 q 437 509 454 546 q 404 429 419 472 q 365 349 389 386 q 303 288 340 313 q 207 264 267 264 q 60 339 113 264 l 60 972 l 468 972 q 658 935 571 972 q 809 832 744 897 q 910 678 874 767 q 946 489 946 590 q 910 299 946 388 q 810 143 874 210 q 658 38 746 76 q 468 0 571 0 l 56 0 l 56 139 m 200 403 q 251 426 231 403 q 287 483 271 449 q 319 558 303 518 q 359 633 335 599 q 419 691 383 668 q 510 714 454 714 q 600 694 561 714 q 665 640 639 674 q 705 563 692 607 q 718 472 718 519 q 698 360 718 413 q 643 265 678 307 q 560 190 608 222 q 458 139 513 158 q 599 165 535 139 q 709 238 663 192 q 781 349 756 285 q 807 489 807 413 q 782 625 807 563 q 713 734 757 688 q 606 807 668 781 q 469 833 543 833 l 97 833 l 97 582 q 102 528 97 558 q 118 469 107 497 q 149 422 129 442 q 200 403 169 403 z "},"ъ":{"ha":832,"x_min":14,"x_max":818,"o":"m 14 833 l 14 972 l 422 972 l 422 519 q 497 526 464 526 q 617 508 560 526 q 719 452 675 489 q 791 363 764 415 q 818 244 818 311 q 799 142 818 190 q 747 58 781 94 q 666 1 713 22 q 564 -19 619 -19 q 462 -1 513 -19 q 375 53 411 17 l 375 463 q 251 356 297 433 q 207 165 206 278 l 208 0 l 69 0 l 69 82 q 128 306 69 214 q 282 456 186 397 l 282 833 l 14 833 m 418 281 q 428 221 418 250 q 455 169 438 192 q 499 133 472 147 q 558 119 525 119 q 621 134 593 119 q 667 173 649 149 q 697 228 686 197 q 707 292 707 260 q 691 372 707 336 q 647 433 675 407 q 583 472 619 458 q 503 486 546 486 q 460 483 481 486 q 418 474 439 479 l 418 281 z "},"ю":{"ha":1435,"x_min":69,"x_max":1414,"o":"m 69 972 l 208 972 l 208 507 l 518 507 q 536 691 506 603 q 628 847 567 779 q 778 953 690 914 q 967 993 865 993 q 1144 956 1063 993 q 1286 853 1226 919 q 1380 696 1346 788 q 1414 493 1414 604 q 1383 297 1414 390 q 1291 133 1351 204 q 1142 21 1231 63 q 936 -21 1053 -21 q 750 15 826 -21 q 617 106 674 51 q 518 222 561 160 q 431 339 475 285 q 334 429 386 393 q 208 465 282 465 l 208 0 l 69 0 l 69 972 m 506 465 q 589 367 551 426 q 672 252 626 307 q 780 158 717 197 q 940 118 843 118 q 1081 146 1019 118 q 1184 221 1142 174 q 1249 331 1226 268 q 1275 465 1272 394 l 506 465 m 658 507 l 1275 507 q 1245 646 1271 582 q 1177 756 1219 710 q 1078 829 1135 803 q 957 856 1022 856 q 828 827 888 856 q 728 750 769 799 q 667 639 686 701 q 658 507 647 576 z "},"ф":{"ha":1157,"x_min":28,"x_max":1129,"o":"m 306 139 q 195 185 246 154 q 107 260 144 217 q 49 360 69 304 q 28 478 28 415 q 49 593 28 540 q 109 684 71 646 q 200 744 147 722 q 315 765 253 765 q 499 706 419 765 q 618 553 578 647 l 857 833 l 210 833 l 210 972 l 960 972 l 857 833 q 965 788 915 818 q 1051 714 1015 757 q 1108 617 1088 671 q 1129 501 1129 564 q 1108 384 1129 438 q 1047 291 1086 331 q 955 229 1008 251 q 838 207 901 207 q 657 264 735 207 q 540 414 579 321 l 306 139 l 946 139 l 946 0 l 196 0 l 306 139 m 833 332 q 956 375 908 332 q 1004 494 1004 418 q 994 558 1004 526 q 965 614 983 589 q 918 655 946 639 q 856 671 890 671 q 789 656 821 671 q 729 620 757 642 q 676 572 701 599 q 631 521 651 546 q 655 449 638 483 q 699 389 672 415 q 759 347 725 363 q 833 332 793 332 m 321 317 q 385 328 357 317 q 438 357 414 339 q 485 398 463 375 q 528 446 507 421 q 497 519 517 483 q 451 581 478 554 q 389 624 424 608 q 311 640 354 640 q 197 597 242 640 q 153 483 153 553 q 201 364 153 411 q 321 317 249 317 z "},"н":{"ha":1028,"x_min":69,"x_max":958,"o":"m 69 972 l 208 972 l 208 429 q 230 496 217 458 q 263 566 243 533 q 311 622 283 599 q 376 644 339 644 q 467 616 421 644 q 556 553 513 588 q 639 491 599 519 q 714 463 679 463 q 765 494 746 463 q 797 576 785 526 q 813 686 808 626 q 819 803 818 746 q 820 906 821 860 q 819 972 819 951 l 958 972 l 958 0 l 819 0 l 819 547 q 798 481 811 518 q 764 409 785 443 q 715 352 743 375 q 650 329 688 329 q 559 358 604 329 q 471 420 514 386 q 388 483 428 454 q 314 511 347 511 q 263 479 283 511 q 231 397 243 447 q 215 287 219 347 q 208 169 210 226 q 208 67 207 113 q 208 0 208 21 l 69 0 l 69 972 z "},"ђ":{"ha":721,"x_min":-8,"x_max":707,"o":"m -8 972 l 658 972 l 658 833 l 311 833 l 311 519 q 386 526 353 526 q 506 508 449 526 q 608 452 564 489 q 680 363 653 415 q 707 244 707 311 q 688 142 707 190 q 635 58 669 94 q 555 1 601 22 q 453 -19 508 -19 q 351 -1 401 -19 q 264 53 300 17 l 264 472 q 201 421 225 453 q 163 351 176 389 q 144 271 149 313 q 140 189 140 229 q 144 94 140 140 q 156 0 149 47 l 4 0 q 0 82 0 42 q 38 294 0 192 q 171 463 76 397 l 171 833 l -8 833 l -8 972 m 307 474 l 307 281 q 317 221 307 250 q 344 169 326 192 q 388 133 361 147 q 447 119 414 119 q 510 134 482 119 q 556 173 538 149 q 585 228 575 197 q 596 292 596 260 q 580 372 596 336 q 536 433 564 407 q 472 472 508 458 q 392 486 435 486 q 349 483 369 486 q 307 474 328 479 z "},"ѓ":{"ha":667,"x_min":56,"x_max":611,"o":"m 56 972 l 611 972 l 611 93 q 494 13 561 40 q 354 -15 428 -15 q 239 3 293 -15 q 144 57 185 22 q 79 142 103 92 q 56 257 56 193 l 56 972 m 356 124 q 455 146 414 124 q 522 205 496 168 q 558 290 547 242 q 569 390 569 339 l 569 631 q 465 556 528 597 q 341 468 401 515 q 238 367 281 421 q 194 254 194 314 q 208 195 194 219 q 245 155 222 171 q 297 131 268 139 q 356 124 325 124 m 611 832 l 97 833 l 97 372 q 183 509 122 447 q 320 626 244 571 q 474 731 396 681 q 611 832 553 781 m 246 1103 l 482 1339 l 590 1231 l 335 1014 l 246 1103 z "},"ґ":{"ha":667,"x_min":56,"x_max":611,"o":"m 56 972 l 472 972 l 472 1111 l 611 1111 l 611 257 q 588 142 611 193 q 523 57 564 92 q 428 3 482 22 q 313 -15 374 -15 q 172 13 239 -15 q 56 93 106 40 l 56 972 m 97 390 q 108 290 97 339 q 145 205 119 242 q 212 146 171 168 q 311 124 253 124 q 370 131 342 124 q 422 155 399 139 q 458 195 444 171 q 472 254 472 219 q 429 367 472 314 q 326 468 386 421 q 202 556 265 515 q 97 631 139 597 l 97 390 m 569 372 l 569 833 l 56 832 q 192 731 114 781 q 347 626 271 681 q 483 509 422 571 q 569 372 544 447 z "},"є":{"ha":967,"x_min":21,"x_max":911,"o":"m 21 489 q 57 678 21 590 q 158 832 93 767 q 310 935 222 897 q 499 972 397 972 l 907 972 l 907 339 q 760 264 856 264 q 663 288 700 264 q 602 349 626 313 q 563 429 578 386 q 530 509 547 472 q 490 570 513 546 q 429 594 467 594 q 376 579 397 594 q 341 540 354 564 q 322 489 328 517 q 317 435 317 461 q 350 302 317 358 q 436 210 383 246 q 556 156 489 174 q 690 139 622 139 l 911 139 l 911 0 l 499 0 q 308 38 396 0 q 157 143 221 76 q 57 299 93 210 q 21 489 21 388 m 160 489 q 185 349 160 413 q 258 238 211 285 q 368 165 304 192 q 508 139 432 139 q 406 190 454 158 q 324 265 358 222 q 269 360 289 307 q 249 472 249 413 q 262 563 249 519 q 301 640 275 607 q 367 694 328 674 q 457 714 406 714 q 548 691 513 714 q 608 633 583 668 q 648 558 632 599 q 680 483 664 518 q 716 426 696 449 q 767 403 736 403 q 817 422 797 403 q 849 469 838 442 q 865 528 860 497 q 869 582 869 558 l 869 833 l 497 833 q 362 807 424 833 q 255 734 300 781 q 185 625 210 688 q 160 489 160 563 z "},"ѕ":{"ha":667,"x_min":56,"x_max":611,"o":"m 358 988 q 496 960 429 988 q 611 879 563 932 l 611 260 q 585 142 611 193 q 517 56 560 92 q 417 3 474 21 q 299 -15 360 -15 q 171 4 233 -15 q 56 64 108 24 l 56 715 q 81 831 56 781 q 147 916 106 881 q 244 969 189 951 q 358 988 299 988 m 194 718 q 240 621 194 660 q 346 549 285 582 q 470 481 407 515 q 569 397 533 447 l 569 582 q 558 683 569 635 q 522 767 547 731 q 456 826 497 804 q 357 849 415 849 q 297 841 326 849 q 245 817 268 833 q 208 777 222 801 q 194 718 194 753 m 97 568 l 97 379 q 108 283 97 329 q 144 201 119 236 q 209 144 169 165 q 306 124 249 124 q 366 131 336 124 q 419 155 396 139 q 458 196 443 171 q 472 256 472 221 q 428 351 472 315 q 323 417 383 388 q 199 481 263 447 q 97 568 135 514 z "},"і":{"ha":739,"x_min":56,"x_max":739,"o":"m 56 0 l 56 925 q 133 974 92 956 q 224 992 175 992 q 328 967 282 992 q 406 903 374 943 q 455 813 438 864 q 472 708 472 763 l 472 139 l 739 139 l 739 0 l 56 0 m 97 139 l 333 139 l 333 933 q 208 894 254 933 q 136 796 161 856 q 104 667 111 736 q 97 536 97 597 l 97 139 z "},"ї":{"ha":739,"x_min":56,"x_max":739,"o":"m 56 925 q 133 974 92 956 q 224 992 175 992 q 328 967 282 992 q 406 903 374 943 q 455 813 438 864 q 472 708 472 763 l 472 139 l 739 139 l 739 0 l 56 0 l 56 925 m 97 139 l 333 139 l 333 933 q 208 894 254 933 q 136 796 161 856 q 104 667 111 736 q 97 536 97 597 l 97 139 m 439 1014 l 439 1153 l 578 1153 l 578 1014 l 439 1014 m 92 1014 l 92 1153 l 231 1153 l 231 1014 l 92 1014 z "},"ј":{"ha":569,"x_min":56,"x_max":514,"o":"m 56 51 l 56 972 l 514 972 l 514 268 q 493 158 514 210 q 435 67 472 106 q 348 7 399 29 q 238 -15 297 -15 q 56 51 133 -15 m 375 51 l 375 833 l 97 833 l 97 440 q 108 298 97 368 q 149 173 119 228 q 233 85 179 118 q 375 51 288 51 z "},"ћ":{"ha":721,"x_min":-8,"x_max":707,"o":"m -8 972 l 707 972 l 707 833 l 311 833 l 311 519 q 408 532 360 532 q 538 506 482 532 q 631 436 593 481 q 688 331 668 392 q 707 201 707 271 l 707 0 l 568 0 l 568 247 q 556 340 568 297 q 520 416 544 383 q 457 467 496 449 q 364 486 418 486 q 254 459 299 486 q 183 388 210 432 q 144 290 156 344 q 132 179 132 235 q 156 0 132 90 l 4 0 q 0 82 0 42 q 9 186 0 133 q 38 286 18 239 q 90 374 57 333 q 171 440 124 414 l 171 833 l -8 833 l -8 972 z "},"ќ":{"ha":825,"x_min":69,"x_max":804,"o":"m 208 972 l 208 486 l 343 486 q 433 490 388 486 l 281 744 q 311 841 288 796 q 372 920 335 886 q 455 974 408 954 q 554 993 501 993 q 649 975 604 993 q 725 926 693 957 q 776 851 757 894 q 794 757 794 808 q 769 644 794 693 q 701 559 743 594 q 606 501 660 524 q 499 467 553 478 l 804 0 l 638 0 l 347 444 l 208 444 l 208 0 l 69 0 l 69 972 l 208 972 m 479 499 q 562 522 519 506 q 639 564 604 538 q 696 627 674 590 q 718 714 718 664 q 707 772 718 744 q 676 821 696 800 q 631 853 657 842 q 572 865 604 865 q 505 849 533 865 q 457 804 476 832 q 428 742 438 776 q 418 671 418 707 q 479 499 418 575 m 529 1339 l 638 1231 l 382 1014 l 293 1103 l 529 1339 z "}}}
